<?xml version="1.0" encoding="utf-8"?>
<!-- Generator: Adobe Illustrator 19.0.0, SVG Export Plug-In . SVG Version: 6.00 Build 0)  -->
<svg version="1.1" id="Layer_1" xmlns="http://www.w3.org/2000/svg" xmlns:xlink="http://www.w3.org/1999/xlink" x="0px" y="0px"
	 viewBox="0 0 139 72.6" style="enable-background:new 0 0 139 72.6;" xml:space="preserve">
<style type="text/css">
	.st0{fill:#246AB4;}
	.st1{fill:#F8991D;}
</style>
<g>
	<g>
		<path id="russia_word" class="st0" d="M138.4,23.7h-2.9c-0.5,0-0.6,0.2-0.7,0.7v20.4c-0.1,0.3,0.1,0.6,0.4,0.7c0.1,0,0.2,0,0.2,0
			h2.9c0.3,0.1,0.6-0.1,0.7-0.4c0-0.1,0-0.2,0-0.3V24.4c0.1-0.3-0.1-0.5-0.4-0.7C138.6,23.7,138.5,23.7,138.4,23.7z M98.2,23.7h-2.9
			c-0.5,0-0.6,0.2-0.7,0.7v20.4c-0.1,0.3,0.1,0.6,0.4,0.7c0.1,0,0.2,0,0.2,0h2.9c0.3,0.1,0.6-0.1,0.7-0.4c0-0.1,0-0.2,0-0.3V24.4
			C98.8,23.8,98.6,23.7,98.2,23.7z M88.8,50.9c-1.9-0.5-5.7-1.8-6.7-5.3c5.5-2.1,6.9-7.4,6.9-11.1c0-6.6-4-11.3-9.8-11.3
			c-5.4,0-9.9,3.9-9.9,11.5c0,5,2.3,10.2,8.4,11.1c2.5,5.9,10.6,6.9,11.2,6.9c0.5,0.1,1-0.3,1-0.8c0-0.1,0-0.1,0-0.1
			C90,51.2,89.5,51.1,88.8,50.9L88.8,50.9z M79.1,43.4c-0.4,0-2.6,0-4.1-2.6c-1.1-1.9-1.4-4.4-1.4-6.4c0-2.1,0.3-4.6,1.4-6.3
			c0.9-1.5,2.4-2.4,4.1-2.4c1.6,0,3.2,0.9,4,2.4c1.3,2,1.5,4.8,1.5,6.3c0.1,1.8-0.2,4.4-1.2,6.3C82.3,42.6,80.6,43.4,79.1,43.4
			L79.1,43.4z M129,23.7h-2.1c-0.3-0.1-0.7,0.2-0.7,0.5c0,0.1,0,0.1,0,0.1l-3.6,14.1l-4.4-14.1c-0.2-0.6-0.2-0.7-0.4-0.7h-1.2
			c-0.3,0-0.4,0.2-0.5,0.6l-4.3,14.1l-3.5-14c-0.2-0.7-0.3-0.7-0.8-0.7h-2.9c-0.3-0.1-0.5,0.1-0.6,0.4c0,0.1,0,0.1,0,0.1
			c0,0.2,0.1,0.3,0.1,0.5l5.8,20.3c0.2,0.5,0.3,0.6,0.9,0.6c0.4,0,1.3,0,1.4-0.1c0.3,0,0.4-0.1,0.5-0.5l4.1-13.2l4.4,13.2
			c0.2,0.4,0.3,0.5,0.5,0.6h1.5c0.4,0,0.5-0.1,0.7-0.6l5.7-20.2c0.1-0.2,0.1-0.4,0.1-0.5C129.7,23.7,129.4,23.7,129,23.7L129,23.7z"
			/>
		<path id="main_word" class="st0" d="M113.2,54.6c0,0-0.1,0-0.1,0C113.1,54.6,113.2,54.5,113.2,54.6c0.7-0.3,1.2-1,1.2-1.7
			c0-0.5-0.3-1.1-0.8-1.4c-0.6-0.3-1.3-0.4-2-0.4c-0.5,0-1.1,0.1-1.6,0.1c-0.2,0.1-0.2,0.2-0.2,0.3l0,0V58c0,0.2,0,0.3,0.2,0.4
			c0.5,0.1,1,0.2,1.5,0.2c0.8,0,3.2,0,3.2-2C114.9,55.6,114.1,54.7,113.2,54.6z M111,51.8c0.1,0,0.7-0.1,0.7-0.1
			c1,0,1.6,0.4,1.6,1.3c0,0.3-0.1,1.2-1.5,1.3c0,0-0.7,0-0.8,0L111,51.8L111,51.8z M111.8,57.9c0,0-0.8-0.1-0.8-0.1V55
			c0.1,0,0.1,0,0.1,0h0.5c0.7-0.1,1.3,0.1,1.8,0.5c0.2,0.3,0.4,0.7,0.3,1C113.6,57.7,112.5,57.9,111.8,57.9L111.8,57.9z M96.7,54.4
			c0.1-0.1,2.3-2.9,2.3-2.9l0.1-0.1l0.1-0.2c0-0.1-0.1-0.2-0.2-0.2l0,0h-0.5c-0.1,0.1-0.2,0.1-0.3,0.2c0,0-2,2.4-2.4,3v-3l-0.1-0.2
			l-0.2-0.1h-0.6c-0.1,0-0.2,0.1-0.3,0.2c0,0.1,0,0.1,0,0.1v6.9c-0.1,0.1,0.1,0.2,0.2,0.3c0.1,0,0.1,0,0.1,0h0.6
			c0.1,0.1,0.2-0.1,0.2-0.1v-0.1v-3.6c0.2,0.2,2.5,3.6,2.5,3.6c0.1,0.1,0.2,0.2,0.4,0.2h0.8c0.1,0,0.2-0.1,0.2-0.1c0,0,0,0,0-0.1
			l-0.2-0.2C99.5,58.2,97,54.7,96.7,54.4z M122.6,51.1H122c-0.1,0-0.3,0.1-0.3,0.2c0,0-3.6,5.1-3.8,5.3v-5.2
			c0.1-0.1-0.1-0.2-0.2-0.3h-0.5c-0.2,0-0.2,0.1-0.2,0.2v7c0,0.2,0.1,0.2,0.2,0.2h0.4c0.1,0,0.2-0.1,0.3-0.2c0,0,3.5-4.8,4.1-5.6
			v5.5c0,0.1,0,0.2,0.1,0.2c0.2,0,0.4,0,0.5,0c0.1,0,0.2-0.1,0.2-0.2v-0.1v-6.9C122.9,51.2,122.8,51.1,122.6,51.1z M106.9,51.1h-0.4
			c-0.1,0-0.2,0.1-0.3,0.2c0,0-3.5,4.8-4.1,5.7v-5.6c0.1-0.1-0.1-0.2-0.1-0.2c-0.2,0-0.4,0-0.5,0c-0.2,0-0.2,0.1-0.2,0.3v6.9
			c0,0.2,0.1,0.2,0.2,0.2h0.6c0.1,0,0.3-0.1,0.3-0.2c0,0,3.6-5.1,3.8-5.3v5.2c0,0.1,0,0.2,0.2,0.2h0.5c0.2,0,0.2-0.1,0.2-0.2v-7
			C107.2,51.1,107.1,51.1,106.9,51.1z"/>
	</g>
	<path id="sign" class="st1" d="M54.8,48.6c-0.7-0.3-0.8,0.5-0.5,1.1c0.4,1.2,0.9,2.2,1.3,2.4c0.4,0.2,0.8-0.3,0.5-1.5
		C55.9,50,55.5,48.9,54.8,48.6z M49.5,50.9C49.4,50.9,49.4,50.9,49.5,50.9C49.4,50.9,49.4,50.9,49.5,50.9l-0.1-0.1c0,0,0,0-0.1,0
		c-0.1,0-0.1,0-0.1-0.1c-0.4-0.1-0.9,0-1.2,0.2c-0.8,0.5-0.9,1.8-0.3,2.8c0.3,0.4,0.7,0.8,1.2,0.9c0,0,0,0,0.1,0H49H49h0.1
		c0.1,0,0.1,0,0.1,0c0.4,0.1,0.9,0,1.2-0.2c0.8-0.5,0.9-1.8,0.3-2.7C50.3,51.4,49.9,51.1,49.5,50.9L49.5,50.9z M68.6,70.4
		c-2-4-5.5-7-9.3-9.2c-1.3-0.7-2.7-1.3-4.1-1.8c-3-1-5.9-1.2-9.2-1.8c-2.7-0.4-4.9-1.6-7.2-3.1c-1.2-0.9-2.2-1.9-3-3.1
		c-0.2-0.2-0.9-1.2-0.8-1.5c-0.3,1.8-0.1,3.5,0.5,5.2c-9.8-0.4-18.3-5.8-22.2-12.4C6.1,30.6,8.7,16,18.3,9.5s24.3-1.9,32.1,9.7
		c4.9,7.3,6.2,15.8,4.1,22.8c0,0.1-0.1,0.1-0.1,0.2c-4.2-3.1-8-1.5-8-1.5c4.2-0.4,7.5,2.9,7.5,2.9c0.5,0.4,0.9,0.9,1.4,1.4
		c0.1,0.1,0.2,0.3,0.3,0.4c1,1.4,1.8,3.1,2.1,4.8c8.3-10.5,9.7-25.1,2.3-36.4C50.6-0.7,30.7-4.3,15.4,5.5c-15.2,9.9-20,29.5-10.6,44
		c7.7,11.9,25.7,15.5,36,12.2c3.9-1.2,17.3-2.4,26.6,8.6c0.5,0.6,0.9,1.3,1.3,2c0.1,0.2,0.2,0.3,0.4,0.2c0,0,0.1,0,0.1-0.1
		C69.2,72.5,69.5,72.2,68.6,70.4L68.6,70.4z"/>
</g>
</svg>
