<?xml version="1.0" encoding="utf-8"?>
<!-- Generator: Adobe Illustrator 19.0.0, SVG Export Plug-In . SVG Version: 6.00 Build 0)  -->
<svg version="1.1" id="Layer_1" xmlns="http://www.w3.org/2000/svg" xmlns:xlink="http://www.w3.org/1999/xlink" x="0px" y="0px"
	 viewBox="0 0 75.2 45" style="enable-background:new 0 0 75.2 45;" xml:space="preserve">
<style type="text/css">
	.st0{fill:#FBB230;}
	.st1{fill:#EB2230;}
	.st2{fill:#FFFFFF;}
	.st3{fill:none;stroke:#FFFFFF;stroke-width:0.216;stroke-miterlimit:2.6131;}
</style>
<g>
	<polygon class="st0" points="52.6,45 53.8,45 55,44.9 56.1,44.7 57.2,44.5 58.3,44.3 59.4,44 60.4,43.6 61.4,43.2 62.4,42.8 
		63.4,42.3 64.3,41.7 65.3,41.2 66.1,40.5 67,39.9 67.8,39.2 68.6,38.4 69.3,37.6 70,36.8 70.7,36 71.3,35.1 71.9,34.2 72.5,33.2 
		73,32.2 73.4,31.2 73.8,30.2 74.2,29.2 74.5,28.1 74.7,27 74.9,25.9 75.1,24.8 75.2,23.6 75.2,22.5 75.2,21.3 75.1,20.2 74.9,19 
		74.7,17.9 74.5,16.9 74.2,15.8 73.8,14.8 73.4,13.7 73,12.7 72.5,11.8 71.9,10.8 71.3,9.9 70.7,9 70,8.2 69.3,7.4 68.6,6.6 
		67.8,5.8 67,5.1 66.1,4.5 65.3,3.8 64.3,3.3 63.4,2.7 62.4,2.2 61.4,1.8 60.4,1.4 59.4,1 58.3,0.7 57.2,0.5 56.1,0.3 55,0.1 
		53.8,0 52.6,0 51.5,0 50.3,0.1 49.2,0.3 48.1,0.5 47,0.7 46,1 44.9,1.4 43.9,1.8 42.9,2.2 41.9,2.7 41,3.3 40.1,3.8 39.2,4.5 
		38.4,5.1 37.5,5.8 36.8,6.6 36,7.4 35.3,8.2 34.6,9 34,9.9 33.4,10.8 32.9,11.8 32.4,12.7 31.9,13.7 31.5,14.8 31.2,15.8 
		30.9,16.9 30.6,17.9 30.4,19 30.3,20.2 30.2,21.3 30.2,22.5 30.2,23.6 30.3,24.8 30.4,25.9 30.6,27 30.9,28.1 31.2,29.2 31.5,30.2 
		31.9,31.2 32.4,32.2 32.9,33.2 33.4,34.2 34,35.1 34.6,36 35.3,36.8 36,37.6 36.8,38.4 37.5,39.2 38.4,39.9 39.2,40.5 40.1,41.2 
		41,41.7 41.9,42.3 42.9,42.8 43.9,43.2 44.9,43.6 46,44 47,44.3 48.1,44.5 49.2,44.7 50.3,44.9 51.5,45 52.6,45 52.6,45 	"/>
	<polygon class="st1" points="22.5,45 23.7,45 24.8,44.9 26,44.7 27.1,44.5 28.2,44.3 29.2,44 30.3,43.6 31.3,43.2 32.3,42.8 
		33.3,42.3 34.2,41.7 35.1,41.2 36,40.5 36.8,39.9 37.6,39.2 38.4,38.4 39.2,37.6 39.9,36.8 40.5,36 41.2,35.1 41.8,34.2 42.3,33.2 
		42.8,32.2 43.2,31.2 43.6,30.2 44,29.2 44.3,28.1 44.6,27 44.7,25.9 44.9,24.8 45,23.6 45,22.5 45,21.3 44.9,20.2 44.7,19 
		44.6,17.9 44.3,16.9 44,15.8 43.6,14.8 43.2,13.7 42.8,12.7 42.3,11.8 41.8,10.8 41.2,9.9 40.5,9 39.9,8.2 39.2,7.4 38.4,6.6 
		37.6,5.8 36.8,5.1 36,4.5 35.1,3.8 34.2,3.3 33.3,2.7 32.3,2.2 31.3,1.8 30.3,1.4 29.2,1 28.2,0.7 27.1,0.5 26,0.3 24.8,0.1 
		23.7,0 22.5,0 21.4,0 20.2,0.1 19.1,0.3 18,0.5 16.9,0.7 15.8,1 14.8,1.4 13.8,1.8 12.8,2.2 11.8,2.7 10.9,3.3 9.9,3.8 9.1,4.5 
		8.2,5.1 7.4,5.8 6.6,6.6 5.9,7.4 5.1,8.2 4.5,9 3.8,9.9 3.3,10.8 2.7,11.8 2.2,12.7 1.8,13.7 1.4,14.8 1,15.8 0.7,16.9 0.5,17.9 
		0.3,19 0.1,20.2 0,21.3 0,22.5 0,23.6 0.1,24.8 0.3,25.9 0.5,27 0.7,28.1 1,29.2 1.4,30.2 1.8,31.2 2.2,32.2 2.7,33.2 3.3,34.2 
		3.8,35.1 4.5,36 5.1,36.8 5.9,37.6 6.6,38.4 7.4,39.2 8.2,39.9 9.1,40.5 9.9,41.2 10.9,41.7 11.8,42.3 12.8,42.8 13.8,43.2 
		14.8,43.6 15.8,44 16.9,44.3 18,44.5 19.1,44.7 20.2,44.9 21.4,45 22.5,45 22.5,45 	"/>
	<polygon class="st0" points="35,8.6 46.9,8.6 46.9,7.4 36,7.4 35,8.6 35,8.6 	"/>
	<polygon class="st0" points="33.2,11.3 46.9,11.3 46.9,10.1 33.9,10.1 33.2,11.3 33.2,11.3 	"/>
	<polygon class="st0" points="31.8,14.1 46.9,14.1 46.9,12.8 32.4,12.8 31.8,14.1 31.8,14.1 	"/>
	<polygon class="st0" points="30.9,16.8 46.9,16.8 46.9,15.6 31.3,15.6 30.9,16.8 30.9,16.8 	"/>
	<polygon class="st0" points="31.4,29.9 47,29.9 47,28.7 31.1,28.7 31.4,29.9 31.4,29.9 	"/>
	<polygon class="st0" points="32.6,32.6 47,32.6 47,31.4 32,31.4 32.6,32.6 32.6,32.6 	"/>
	<polygon class="st0" points="34.2,35.3 47,35.3 47,34.1 33.4,34.1 34.2,35.3 34.2,35.3 	"/>
	<polygon class="st0" points="36.4,38.1 47,38.1 47,36.8 35.4,36.8 36.4,38.1 36.4,38.1 	"/>
	<polygon class="st0" points="30.4,19.5 46.9,19.5 46.9,18.3 30.6,18.3 30.4,19.5 30.4,19.5 	"/>
	<polygon class="st0" points="40.5,27.2 46.8,27.2 46.8,26 40.7,26 40.5,27.2 40.5,27.2 	"/>
	<polygon class="st0" points="41,24.5 46.8,24.5 46.8,23.3 41.2,23.3 41,24.5 41,24.5 	"/>
	<polygon class="st0" points="30,23.3 31.6,23.3 31.6,24.5 30,24.5 30,23.3 30,23.3 	"/>
	<polygon class="st2" points="26.9,21.8 26.8,21.8 26.7,21.8 26.6,21.7 26.5,21.7 26.4,21.7 26.3,21.7 26.2,21.7 26.1,21.7 26,21.6 
		25.9,21.6 25.7,21.6 25.6,21.6 25.4,21.6 25.3,21.6 25.1,21.6 24.8,21.7 24.7,21.7 24.5,21.7 24.4,21.8 24.3,21.8 24.2,21.9 
		24.1,21.9 24,22 23.9,22.1 23.9,22.1 23.9,22.2 23.8,22.3 23.8,22.4 23.9,22.5 23.9,22.6 24,22.7 24,22.8 24.2,22.9 24.4,23.1 
		24.6,23.2 24.8,23.2 25.1,23.3 25.3,23.4 25.6,23.5 25.8,23.6 26,23.7 26.2,23.9 26.4,24.1 26.6,24.3 26.7,24.6 26.8,24.9 
		26.8,25.3 26.8,25.8 26.7,26.2 26.6,26.5 26.5,26.8 26.4,27 26.2,27.3 26,27.4 25.8,27.6 25.6,27.8 25.3,27.9 25.1,28 24.8,28 
		24.5,28.1 24.3,28.1 24,28.2 23.8,28.2 23.5,28.2 23.2,28.2 22.9,28.2 22.6,28.2 22.4,28.2 22.2,28.2 22,28.2 21.8,28.1 21.6,28.1 
		21.4,28.1 21.3,28.1 21.2,28 21,28 20.9,28 20.8,27.9 20.7,27.9 20.5,27.8 20.9,26.2 20.9,26.2 21,26.2 21.1,26.2 21.3,26.3 
		21.4,26.3 21.5,26.3 21.7,26.4 21.9,26.4 22.1,26.4 22.3,26.5 22.5,26.5 22.7,26.5 22.9,26.5 23.1,26.5 23.4,26.5 23.6,26.5 
		23.8,26.5 24,26.4 24.1,26.3 24.2,26.2 24.3,26.1 24.4,26 24.4,25.9 24.4,25.7 24.4,25.5 24.4,25.3 24.2,25.2 24,25.1 23.8,24.9 
		23.6,24.8 23.3,24.7 23,24.6 22.7,24.5 22.4,24.3 22.1,24.1 21.9,23.9 21.7,23.6 21.5,23.2 21.5,22.8 21.5,22.3 21.5,22.1 
		21.6,21.8 21.6,21.5 21.7,21.3 21.9,21 22,20.8 22.1,20.7 22.3,20.5 22.6,20.3 22.8,20.2 23.1,20.1 23.4,20 23.7,20 24.1,19.9 
		24.5,19.9 25,19.9 25.2,19.9 25.5,19.9 25.7,19.9 25.9,19.9 26.1,19.9 26.3,19.9 26.5,19.9 26.6,19.9 26.7,20 26.8,20 26.9,20 
		27,20 27.1,20 27.2,20 27.2,20.1 27.3,20.1 26.9,21.8 26.9,21.8 	"/>
	<polyline class="st3" points="26.9,21.8 26.9,21.8 26.8,21.8 26.7,21.8 26.6,21.7 26.5,21.7 26.4,21.7 26.3,21.7 26.2,21.7 
		26.1,21.7 26,21.6 25.9,21.6 25.7,21.6 25.6,21.6 25.4,21.6 25.3,21.6 25.1,21.6 24.8,21.7 24.8,21.7 24.7,21.7 24.5,21.7 
		24.4,21.8 24.3,21.8 24.2,21.9 24.1,21.9 24,22 23.9,22.1 23.9,22.1 23.9,22.2 23.8,22.3 23.8,22.4 23.9,22.5 23.9,22.6 24,22.7 
		24,22.8 24,22.8 24.2,22.9 24.4,23.1 24.6,23.2 24.8,23.2 25.1,23.3 25.3,23.4 25.6,23.5 25.8,23.6 26,23.7 26.2,23.9 26.4,24.1 
		26.6,24.3 26.7,24.6 26.8,24.9 26.8,25.3 26.8,25.8 26.8,25.8 26.7,26.2 26.6,26.5 26.5,26.8 26.4,27 26.2,27.3 26,27.4 25.8,27.6 
		25.6,27.8 25.3,27.9 25.1,28 24.8,28 24.5,28.1 24.3,28.1 24,28.2 23.8,28.2 23.5,28.2 23.5,28.2 23.2,28.2 22.9,28.2 22.6,28.2 
		22.4,28.2 22.2,28.2 22,28.2 21.8,28.1 21.6,28.1 21.4,28.1 21.3,28.1 21.2,28 21,28 20.9,28 20.8,27.9 20.7,27.9 20.5,27.8 
		20.9,26.2 20.9,26.2 20.9,26.2 21,26.2 21.1,26.2 21.3,26.3 21.4,26.3 21.5,26.3 21.7,26.4 21.9,26.4 22.1,26.4 22.3,26.5 
		22.5,26.5 22.7,26.5 22.9,26.5 23.1,26.5 23.4,26.5 23.6,26.5 23.6,26.5 23.8,26.5 24,26.4 24.1,26.3 24.2,26.2 24.3,26.1 24.4,26 
		24.4,25.9 24.4,25.7 24.4,25.7 24.4,25.5 24.4,25.3 24.2,25.2 24,25.1 23.8,24.9 23.6,24.8 23.3,24.7 23,24.6 22.7,24.5 22.4,24.3 
		22.1,24.1 21.9,23.9 21.7,23.6 21.5,23.2 21.5,22.8 21.5,22.3 21.5,22.3 21.5,22.1 21.6,21.8 21.6,21.5 21.7,21.3 21.9,21 22,20.8 
		22.1,20.7 22.3,20.5 22.6,20.3 22.8,20.2 23.1,20.1 23.4,20 23.7,20 24.1,19.9 24.5,19.9 25,19.9 25,19.9 25.2,19.9 25.5,19.9 
		25.7,19.9 25.9,19.9 26.1,19.9 26.3,19.9 26.5,19.9 26.6,19.9 26.7,20 26.8,20 26.9,20 27,20 27.1,20 27.2,20 27.2,20.1 27.3,20.1 
		26.9,21.8 	"/>
	<polygon class="st2" points="28.7,18.2 30.8,18.2 30.5,20 31.8,20 31.5,21.7 30.1,21.7 29.4,25.9 29.4,26.1 29.5,26.2 29.5,26.3 
		29.6,26.4 29.8,26.5 29.9,26.5 30.1,26.5 30.3,26.5 30.4,26.5 30.6,26.5 30.7,26.5 30.8,26.5 30.9,26.4 31,26.4 31.1,26.4 
		31.1,26.4 30.8,27.8 30.7,27.8 30.7,27.9 30.6,27.9 30.6,27.9 30.5,28 30.5,28 30.4,28 30.3,28 30.3,28 30.2,28.1 30.1,28.1 
		30,28.1 29.9,28.1 29.8,28.1 29.7,28.1 29.5,28.2 29,28.2 28.7,28.1 28.4,28.1 28.2,28.1 27.9,28 27.8,27.9 27.6,27.9 27.5,27.8 
		27.4,27.7 27.3,27.6 27.3,27.4 27.2,27.3 27.2,27.2 27.2,27 27.2,26.8 27.2,26.7 27.3,26.5 28.7,18.2 28.7,18.2 	"/>
	<polyline class="st3" points="28.7,18.2 30.8,18.2 30.5,20 31.8,20 31.5,21.7 30.1,21.7 29.4,25.9 29.4,25.9 29.4,26.1 29.5,26.2 
		29.5,26.3 29.6,26.4 29.8,26.5 29.9,26.5 30.1,26.5 30.3,26.5 30.3,26.5 30.4,26.5 30.6,26.5 30.7,26.5 30.8,26.5 30.9,26.4 
		31,26.4 31.1,26.4 31.1,26.4 30.8,27.8 30.8,27.8 30.7,27.8 30.7,27.9 30.6,27.9 30.6,27.9 30.5,28 30.5,28 30.4,28 30.3,28 
		30.3,28 30.2,28.1 30.1,28.1 30,28.1 29.9,28.1 29.8,28.1 29.7,28.1 29.5,28.2 29,28.2 29,28.2 28.7,28.1 28.4,28.1 28.2,28.1 
		27.9,28 27.8,27.9 27.6,27.9 27.5,27.8 27.4,27.7 27.3,27.6 27.3,27.4 27.2,27.3 27.2,27.2 27.2,27 27.2,26.8 27.2,26.7 27.3,26.5 
		28.7,18.2 	"/>
	<polyline class="st3" points="33.4,24.6 33.4,24.6 33.4,24.7 33.4,24.9 33.4,25 33.5,25.2 33.5,25.3 33.6,25.4 33.6,25.6 
		33.7,25.7 33.8,25.8 34,26 34.1,26.1 34.2,26.2 34.4,26.2 34.5,26.3 34.7,26.4 34.8,26.4 34.8,26.4 35,26.4 35.2,26.4 35.4,26.5 
		35.6,26.5 35.8,26.5 36,26.5 36.2,26.5 36.4,26.5 36.6,26.4 36.8,26.4 37,26.4 37.2,26.3 37.4,26.2 37.7,26.1 37.9,26 38.1,25.9 
		37.8,27.7 37.8,27.7 37.7,27.8 37.5,27.9 37.4,27.9 37.3,27.9 37.2,28 37.1,28 37,28 36.8,28.1 36.7,28.1 36.5,28.1 36.4,28.1 
		36.2,28.1 36,28.1 35.8,28.1 35.6,28.2 35.3,28.2 35.3,28.2 34.9,28.1 34.6,28.1 34.2,28.1 33.8,28 33.4,27.9 33.1,27.7 32.7,27.5 
		32.4,27.3 32.1,27 31.9,26.7 31.6,26.4 31.5,26 31.3,25.5 31.2,25 31.2,24.5 31.3,23.8 31.3,23.8 31.3,23.6 31.3,23.3 31.4,23 
		31.5,22.7 31.6,22.4 31.7,22 31.9,21.7 32.1,21.4 32.4,21.1 32.7,20.8 33,20.5 33.4,20.3 33.8,20.1 34.3,20 34.8,19.9 35.5,19.9 
		35.5,19.9 35.8,19.9 36.1,19.9 36.4,20 36.7,20 37,20.1 37.3,20.3 37.6,20.5 37.8,20.7 38,20.9 38.2,21.2 38.4,21.6 38.5,22 
		38.6,22.4 38.6,23 38.5,23.5 38.4,24.2 38.4,24.6 32.8,24.6 33.2,23.1 36.5,23.1 36.5,23.1 36.5,23 36.5,22.8 36.5,22.6 36.5,22.5 
		36.4,22.3 36.4,22.2 36.3,22.1 36.2,22 36.1,21.9 36,21.8 35.9,21.7 35.8,21.7 35.7,21.6 35.5,21.6 35.4,21.6 35.3,21.5 35.3,21.5 
		35.1,21.6 35,21.6 34.9,21.6 34.7,21.7 34.6,21.7 34.5,21.8 34.4,21.9 34.3,22 34.2,22.1 34.1,22.2 34,22.3 33.9,22.4 33.9,22.6 
		33.8,22.7 33.8,22.9 33.7,23 33.4,24.6 	"/>
	<polygon class="st2" points="51.5,20.5 51.4,20.4 51.3,20.4 51.2,20.3 51.1,20.3 51,20.2 50.9,20.2 50.8,20.1 50.6,20.1 50.5,20.1 
		50.3,20 50.2,20 50,20 49.8,20 49.7,19.9 49.5,19.9 49.3,19.9 49.1,19.9 48.9,20 48.7,20 48.5,20 48.3,20.1 48.1,20.2 47.8,20.3 
		47.6,20.4 47.4,20.6 47.2,20.8 47,21 46.9,21.3 46.7,21.6 46.5,22 46.4,22.4 46.3,22.9 46.2,23.2 46.2,23.5 46.2,23.7 46.2,24 
		46.2,24.2 46.3,24.5 46.3,24.7 46.4,24.9 46.5,25.1 46.7,25.3 46.8,25.5 47,25.7 47.2,25.8 47.4,25.9 47.7,26 48,26.1 48.1,26.1 
		48.2,26.1 48.3,26.2 48.5,26.2 48.7,26.2 48.8,26.2 49,26.2 49.2,26.2 49.4,26.1 49.6,26.1 49.8,26.1 50,26 50.2,25.9 50.3,25.8 
		50.5,25.7 50.7,25.6 50.3,27.6 50.3,27.6 50.2,27.7 50.2,27.7 50.1,27.8 50,27.8 49.9,27.9 49.8,27.9 49.7,28 49.5,28 49.3,28.1 
		49.1,28.1 48.8,28.1 48.5,28.1 48.1,28.1 47.8,28.1 47.3,28.1 47,28.1 46.6,28 46.3,27.9 45.9,27.7 45.6,27.6 45.3,27.3 45,27.1 
		44.7,26.8 44.5,26.4 44.2,26 44.1,25.6 43.9,25.1 43.8,24.6 43.8,24.1 43.8,23.5 43.9,22.9 44,22.6 44,22.3 44.1,22 44.2,21.7 
		44.3,21.4 44.4,21.2 44.5,20.9 44.6,20.7 44.7,20.4 44.8,20.2 44.9,20 45.1,19.8 45.2,19.6 45.3,19.4 45.5,19.3 45.7,19.1 45.8,19 
		46,18.8 46.2,18.7 46.4,18.6 46.6,18.4 46.8,18.3 47,18.3 47.2,18.2 47.5,18.1 47.7,18 47.9,18 48.2,17.9 48.5,17.9 48.7,17.9 
		49,17.9 49.3,17.8 49.5,17.9 49.8,17.9 50,17.9 50.2,17.9 50.4,18 50.6,18 50.8,18 51,18.1 51.2,18.1 51.3,18.2 51.5,18.2 
		51.6,18.3 51.7,18.3 51.8,18.3 51.9,18.4 51.9,18.4 51.5,20.5 51.5,20.5 	"/>
	<polyline class="st3" points="51.5,20.5 51.5,20.5 51.4,20.4 51.3,20.4 51.2,20.3 51.1,20.3 51,20.2 50.9,20.2 50.8,20.1 
		50.6,20.1 50.5,20.1 50.3,20 50.2,20 50,20 49.8,20 49.7,19.9 49.5,19.9 49.3,19.9 49.3,19.9 49.1,19.9 48.9,20 48.7,20 48.5,20 
		48.3,20.1 48.1,20.2 47.8,20.3 47.6,20.4 47.4,20.6 47.2,20.8 47,21 46.9,21.3 46.7,21.6 46.5,22 46.4,22.4 46.3,22.9 46.3,22.9 
		46.2,23.2 46.2,23.5 46.2,23.7 46.2,24 46.2,24.2 46.3,24.5 46.3,24.7 46.4,24.9 46.5,25.1 46.7,25.3 46.8,25.5 47,25.7 47.2,25.8 
		47.4,25.9 47.7,26 48,26.1 48,26.1 48.1,26.1 48.2,26.1 48.3,26.2 48.5,26.2 48.7,26.2 48.8,26.2 49,26.2 49.2,26.2 49.4,26.1 
		49.6,26.1 49.8,26.1 50,26 50.2,25.9 50.3,25.8 50.5,25.7 50.7,25.6 50.3,27.6 50.3,27.6 50.3,27.6 50.2,27.7 50.2,27.7 50.1,27.8 
		50,27.8 49.9,27.9 49.8,27.9 49.7,28 49.5,28 49.3,28.1 49.1,28.1 48.8,28.1 48.5,28.1 48.1,28.1 47.8,28.1 47.3,28.1 47.3,28.1 
		47,28.1 46.6,28 46.3,27.9 45.9,27.7 45.6,27.6 45.3,27.3 45,27.1 44.7,26.8 44.5,26.4 44.2,26 44.1,25.6 43.9,25.1 43.8,24.6 
		43.8,24.1 43.8,23.5 43.9,22.9 43.9,22.9 44,22.6 44,22.3 44.1,22 44.2,21.7 44.3,21.4 44.4,21.2 44.5,20.9 44.6,20.7 44.7,20.4 
		44.8,20.2 44.9,20 45.1,19.8 45.2,19.6 45.3,19.4 45.5,19.3 45.7,19.1 45.8,19 46,18.8 46.2,18.7 46.4,18.6 46.6,18.4 46.8,18.3 
		47,18.3 47.2,18.2 47.5,18.1 47.7,18 47.9,18 48.2,17.9 48.5,17.9 48.7,17.9 49,17.9 49.3,17.8 49.3,17.8 49.5,17.9 49.8,17.9 
		50,17.9 50.2,17.9 50.4,18 50.6,18 50.8,18 51,18.1 51.2,18.1 51.3,18.2 51.5,18.2 51.6,18.3 51.7,18.3 51.8,18.3 51.9,18.4 
		51.9,18.4 51.5,20.5 	"/>
	<polygon class="st2" points="70.2,28.2 68.1,28.2 68.3,27.3 68.3,27.2 68.2,27.4 68,27.5 67.9,27.6 67.8,27.8 67.6,27.9 67.5,27.9 
		67.4,28 67.2,28.1 67.1,28.1 66.9,28.2 66.8,28.2 66.6,28.2 66.5,28.2 66.3,28.3 66.2,28.3 66,28.3 65.6,28.2 65.3,28.2 64.9,28 
		64.6,27.9 64.4,27.6 64.1,27.4 63.9,27.1 63.7,26.8 63.6,26.4 63.4,26.1 63.4,25.7 63.3,25.3 63.3,24.9 63.3,24.5 63.3,24.1 
		63.4,23.8 63.5,23.3 63.6,22.9 63.8,22.5 64,22.1 64.2,21.8 64.4,21.5 64.6,21.2 64.9,21 65.2,20.7 65.4,20.6 65.7,20.4 66,20.3 
		66.3,20.2 66.6,20.1 66.9,20 67.2,20 67.5,20 67.7,20.1 67.9,20.1 68.1,20.1 68.2,20.2 68.4,20.3 68.5,20.4 68.7,20.4 68.8,20.5 
		68.9,20.6 69,20.7 69.1,20.8 69.2,20.9 69.2,21 69.3,21.1 69.3,21.2 69.3,21.2 69.9,18.2 71.9,18.2 70.2,28.2 70.2,28.2 	"/>
	<polyline class="st3" points="70.2,28.2 68.1,28.2 68.3,27.3 68.3,27.2 68.3,27.2 68.2,27.4 68,27.5 67.9,27.6 67.8,27.8 
		67.6,27.9 67.5,27.9 67.4,28 67.2,28.1 67.1,28.1 66.9,28.2 66.8,28.2 66.6,28.2 66.5,28.2 66.3,28.3 66.2,28.3 66,28.3 66,28.3 
		65.6,28.2 65.3,28.2 64.9,28 64.6,27.9 64.4,27.6 64.1,27.4 63.9,27.1 63.7,26.8 63.6,26.4 63.4,26.1 63.4,25.7 63.3,25.3 
		63.3,24.9 63.3,24.5 63.3,24.1 63.4,23.8 63.4,23.8 63.5,23.3 63.6,22.9 63.8,22.5 64,22.1 64.2,21.8 64.4,21.5 64.6,21.2 64.9,21 
		65.2,20.7 65.4,20.6 65.7,20.4 66,20.3 66.3,20.2 66.6,20.1 66.9,20 67.2,20 67.2,20 67.5,20 67.7,20.1 67.9,20.1 68.1,20.1 
		68.2,20.2 68.4,20.3 68.5,20.4 68.7,20.4 68.8,20.5 68.9,20.6 69,20.7 69.1,20.8 69.2,20.9 69.2,21 69.3,21.1 69.3,21.2 69.3,21.2 
		69.9,18.2 71.9,18.2 70.2,28.2 	"/>
	<polygon class="st0" points="66.8,26.3 67,26.3 67.2,26.3 67.4,26.2 67.6,26.1 67.7,26 67.9,25.9 68,25.8 68.1,25.6 68.3,25.5 
		68.4,25.3 68.5,25.2 68.5,25 68.6,24.8 68.7,24.6 68.7,24.4 68.8,24.2 68.8,24 68.8,23.7 68.8,23.5 68.8,23.3 68.8,23.1 68.8,22.9 
		68.7,22.8 68.7,22.6 68.6,22.4 68.5,22.3 68.4,22.2 68.3,22.1 68.1,22 68,21.9 67.9,21.9 67.7,21.9 67.5,21.9 67.3,21.9 67.1,22 
		67,22 66.8,22.1 66.7,22.3 66.5,22.4 66.4,22.5 66.3,22.7 66.2,22.9 66.1,23.1 66,23.3 65.9,23.5 65.9,23.7 65.8,23.9 65.8,24.1 
		65.7,24.4 65.7,24.8 65.8,25.2 65.9,25.5 66,25.8 66.2,26.1 66.5,26.3 66.8,26.3 66.8,26.3 	"/>
	<polygon class="st2" points="20.2,26.5 19.9,28.2 18,28.2 18,27.8 18.1,27.6 18.1,27.4 18.1,27.2 18,27.4 17.9,27.5 17.7,27.6 
		17.6,27.7 17.4,27.8 17.2,27.9 17,28 16.8,28.1 16.6,28.1 16.4,28.2 16.1,28.2 15.9,28.3 15.7,28.3 15.5,28.3 15.3,28.3 15.1,28.2 
		14.8,28.2 14.6,28.1 14.3,28 14.1,27.9 14,27.8 13.8,27.6 13.7,27.5 13.6,27.3 13.5,27.2 13.4,27 13.4,26.8 13.3,26.7 13.3,26.5 
		13.3,26.3 13.3,26.1 13.3,26 13.3,25.7 13.3,25.4 13.4,25.1 13.5,24.9 13.6,24.6 13.8,24.4 13.9,24.2 14.1,24 14.3,23.8 14.5,23.7 
		14.7,23.5 15,23.4 15.2,23.3 15.4,23.2 15.7,23.2 16,23.1 16,23.1 16,23.1 16.1,23.1 16.2,23.1 16.3,23.1 16.4,23.1 16.5,23 
		16.6,23 16.7,23 16.9,23 17,23 17.1,23 17.2,23 17.4,23 17.5,23 17.5,23 17.7,23 17.9,23 18.1,23 18.2,23 18.4,23 18.5,23 18.6,23 
		18.6,23 18.6,22.9 18.6,22.8 18.7,22.6 18.7,22.5 18.7,22.3 18.6,22.2 18.5,22 18.4,21.9 18.2,21.8 18.1,21.8 17.9,21.7 17.7,21.7 
		17.5,21.7 17.3,21.7 17,21.7 16.8,21.7 16.5,21.7 16.3,21.7 16,21.8 15.8,21.8 15.6,21.8 15.4,21.9 15.2,21.9 15,21.9 14.8,22 
		14.7,22 14.6,22.1 14.5,22.1 15,20.3 15.2,20.2 15.4,20.2 15.5,20.1 15.7,20.1 15.9,20 16.1,20 16.3,20 16.5,20 16.7,19.9 
		16.9,19.9 17.2,19.9 17.4,19.9 17.6,19.9 17.9,19.9 18.2,19.9 18.4,19.9 18.6,20 18.9,20 19.1,20 19.3,20.1 19.6,20.2 19.8,20.3 
		20,20.4 20.2,20.6 20.4,20.8 20.6,20.9 20.8,21.1 20.9,21.4 20.9,21.6 21,21.9 21,22.2 20.9,22.5 20.2,26.5 20.2,26.5 	"/>
	<polyline class="st3" points="20.2,26.5 19.9,28.2 18,28.2 18,28.2 18,27.8 18.1,27.6 18.1,27.4 18.1,27.2 18.1,27.2 18,27.4 
		17.9,27.5 17.7,27.6 17.6,27.7 17.4,27.8 17.2,27.9 17,28 16.8,28.1 16.6,28.1 16.4,28.2 16.1,28.2 15.9,28.3 15.7,28.3 15.5,28.3 
		15.3,28.3 15.1,28.2 15.1,28.2 14.8,28.2 14.6,28.1 14.3,28 14.1,27.9 14,27.8 13.8,27.6 13.7,27.5 13.6,27.3 13.5,27.2 13.4,27 
		13.4,26.8 13.3,26.7 13.3,26.5 13.3,26.3 13.3,26.1 13.3,26 13.3,26 13.3,25.7 13.3,25.4 13.4,25.1 13.5,24.9 13.6,24.6 13.8,24.4 
		13.9,24.2 14.1,24 14.3,23.8 14.5,23.7 14.7,23.5 15,23.4 15.2,23.3 15.4,23.2 15.7,23.2 16,23.1 16,23.1 16,23.1 16,23.1 
		16.1,23.1 16.2,23.1 16.3,23.1 16.4,23.1 16.5,23 16.6,23 16.7,23 16.9,23 17,23 17.1,23 17.2,23 17.4,23 17.5,23 17.5,23 17.5,23 
		17.7,23 17.9,23 18.1,23 18.2,23 18.4,23 18.5,23 18.6,23 18.6,23 18.6,23 18.6,22.9 18.6,22.8 18.7,22.6 18.7,22.5 18.7,22.5 
		18.7,22.3 18.6,22.2 18.5,22 18.4,21.9 18.2,21.8 18.1,21.8 17.9,21.7 17.7,21.7 17.7,21.7 17.5,21.7 17.3,21.7 17,21.7 16.8,21.7 
		16.5,21.7 16.3,21.7 16,21.8 15.8,21.8 15.6,21.8 15.4,21.9 15.2,21.9 15,21.9 14.8,22 14.7,22 14.6,22.1 14.5,22.1 15,20.3 
		15,20.3 15.2,20.2 15.4,20.2 15.5,20.1 15.7,20.1 15.9,20 16.1,20 16.3,20 16.5,20 16.7,19.9 16.9,19.9 17.2,19.9 17.4,19.9 
		17.6,19.9 17.9,19.9 18.2,19.9 18.4,19.9 18.4,19.9 18.6,20 18.9,20 19.1,20 19.3,20.1 19.6,20.2 19.8,20.3 20,20.4 20.2,20.6 
		20.4,20.8 20.6,20.9 20.8,21.1 20.9,21.4 20.9,21.6 21,21.9 21,22.2 20.9,22.5 20.2,26.5 	"/>
	<polygon class="st1" points="18.3,24.5 18.3,24.5 18.3,24.4 18.3,24.4 18.2,24.4 18.1,24.4 18,24.4 17.9,24.4 17.8,24.4 17.7,24.4 
		17.5,24.4 17.4,24.4 17.3,24.4 17.2,24.4 17.1,24.4 17,24.5 16.9,24.5 16.8,24.5 16.8,24.5 16.7,24.6 16.6,24.6 16.5,24.6 
		16.4,24.7 16.3,24.7 16.2,24.8 16.1,24.9 16,25 15.9,25 15.8,25.1 15.7,25.2 15.7,25.3 15.7,25.5 15.6,25.6 15.6,25.8 15.7,26.1 
		15.7,26.2 15.8,26.3 15.9,26.4 16.1,26.4 16.2,26.5 16.3,26.5 16.5,26.5 16.8,26.4 17,26.4 17.1,26.4 17.3,26.3 17.4,26.2 
		17.5,26.2 17.7,26.1 17.8,26 17.9,25.9 17.9,25.8 18,25.7 18,25.7 18.1,25.6 18.1,25.5 18.1,25.4 18.2,25.2 18.3,24.9 18.3,24.7 
		18.3,24.5 18.3,24.5 	"/>
	<polygon class="st2" points="4.2,28.2 2.1,28.2 3.9,18.2 7.5,18.2 7.8,24.1 10.3,18.2 14,18.2 12.3,28.2 10.2,28.2 11.5,20.7 
		11.4,20.7 8.3,28.2 6,28.2 6,27.8 5.9,27 5.9,25.8 5.8,24.5 5.7,23.1 5.6,21.9 5.6,21.1 5.6,20.7 5.6,20.7 5.5,20.7 5.5,20.7 
		5.5,20.7 4.2,28.2 4.2,28.2 	"/>
	<polyline class="st3" points="4.2,28.2 2.1,28.2 3.9,18.2 7.5,18.2 7.8,24.1 10.3,18.2 14,18.2 12.3,28.2 10.2,28.2 11.5,20.7 
		11.4,20.7 8.3,28.2 6,28.2 6,28.2 6,27.8 5.9,27 5.9,25.8 5.8,24.5 5.7,23.1 5.6,21.9 5.6,21.1 5.6,20.7 5.6,20.7 5.6,20.7 
		5.5,20.7 5.5,20.7 5.5,20.7 4.2,28.2 	"/>
	<polygon class="st2" points="57.9,26.5 57.5,28.2 55.6,28.2 55.6,27.8 55.7,27.6 55.7,27.4 55.7,27.3 55.6,27.4 55.5,27.5 
		55.3,27.6 55.2,27.7 55,27.8 54.8,27.9 54.6,28 54.4,28.1 54.2,28.1 54,28.2 53.8,28.2 53.6,28.3 53.4,28.3 53.2,28.3 53,28.3 
		52.8,28.2 52.5,28.2 52.2,28.1 52,28 51.8,27.9 51.7,27.8 51.5,27.6 51.4,27.5 51.3,27.3 51.2,27.2 51.1,27 51.1,26.8 51,26.7 
		51,26.5 51,26.3 51,26.1 51,26 51,25.7 51,25.4 51.1,25.1 51.2,24.9 51.3,24.6 51.5,24.4 51.6,24.2 51.8,24 52,23.8 52.2,23.7 
		52.4,23.5 52.6,23.4 52.9,23.3 53.1,23.2 53.4,23.2 53.6,23.1 53.7,23.1 53.7,23.1 53.7,23.1 53.8,23.1 53.9,23.1 54,23.1 54.1,23 
		54.3,23 54.4,23 54.5,23 54.7,23 54.8,23 54.9,23 55,23 55.1,23 55.2,23 55.4,23 55.6,23 55.7,23 55.9,23 56.1,23 56.2,23 56.2,23 
		56.3,23 56.3,22.9 56.3,22.8 56.3,22.6 56.4,22.5 56.3,22.3 56.3,22.2 56.2,22 56,21.9 55.9,21.8 55.8,21.8 55.6,21.7 55.4,21.7 
		55.2,21.7 55,21.7 54.7,21.7 54.5,21.7 54.2,21.7 54,21.7 53.7,21.8 53.5,21.8 53.3,21.8 53.1,21.9 52.9,21.9 52.7,21.9 52.5,22 
		52.4,22 52.3,22.1 52.2,22.1 52.7,20.3 52.9,20.2 53.1,20.2 53.2,20.1 53.4,20.1 53.6,20 53.8,20 54,20 54.2,20 54.4,19.9 
		54.6,19.9 54.9,19.9 55.1,19.9 55.3,19.9 55.6,19.9 55.8,19.9 56.1,19.9 56.3,20 56.5,20 56.8,20 57,20.1 57.2,20.2 57.5,20.3 
		57.7,20.4 57.9,20.6 58.1,20.8 58.3,20.9 58.4,21.1 58.5,21.4 58.6,21.6 58.7,21.9 58.7,22.2 58.6,22.5 57.9,26.5 57.9,26.5 	"/>
	<polygon class="st2" points="57.5,28.2 57.6,28.2 57.9,26.5 57.8,26.5 57.5,28.1 57.5,28.1 57.5,28.2 57.6,28.2 57.6,28.2 
		57.5,28.2 57.5,28.2 	"/>
	<polygon class="st2" points="55.6,28.2 55.6,28.2 57.5,28.2 57.5,28.1 55.6,28.1 55.7,28.2 55.6,28.2 55.6,28.2 55.6,28.2 
		55.6,28.2 55.6,28.2 	"/>
	<polygon class="st2" points="55.7,27.3 55.6,27.2 55.6,27.4 55.6,27.6 55.6,27.8 55.6,28.2 55.7,28.2 55.7,27.8 55.7,27.6 
		55.7,27.4 55.7,27.3 55.6,27.2 55.7,27.3 55.7,27.3 	"/>
	<polygon class="st2" points="52.8,28.3 52.8,28.3 53,28.3 53.2,28.3 53.4,28.3 53.6,28.3 53.8,28.3 54,28.2 54.3,28.2 54.5,28.1 
		54.7,28 54.8,28 55,27.9 55.2,27.8 55.4,27.6 55.5,27.5 55.6,27.4 55.7,27.3 55.6,27.2 55.5,27.4 55.4,27.5 55.3,27.6 55.1,27.7 
		55,27.8 54.8,27.9 54.6,28 54.4,28 54.2,28.1 54,28.1 53.8,28.2 53.6,28.2 53.4,28.2 53.2,28.2 53,28.2 52.8,28.2 52.8,28.2 
		52.8,28.3 52.8,28.3 	"/>
	<polygon class="st2" points="50.9,26 50.9,26 50.9,26.1 50.9,26.3 51,26.5 51,26.7 51,26.8 51.1,27 51.2,27.2 51.3,27.3 51.4,27.5 
		51.5,27.6 51.6,27.8 51.8,27.9 52,28 52.2,28.1 52.5,28.2 52.8,28.3 52.8,28.2 52.5,28.1 52.3,28 52.1,27.9 51.9,27.8 51.7,27.7 
		51.6,27.6 51.4,27.4 51.3,27.3 51.3,27.1 51.2,27 51.1,26.8 51.1,26.7 51.1,26.5 51,26.3 51,26.1 51,26 51,26 50.9,26 50.9,26 	"/>
	<polygon class="st2" points="53.6,23.1 53.6,23.1 53.4,23.1 53.1,23.2 52.9,23.3 52.6,23.4 52.4,23.5 52.2,23.6 52,23.8 51.8,24 
		51.6,24.2 51.4,24.4 51.3,24.6 51.2,24.9 51.1,25.1 51,25.4 50.9,25.7 50.9,26 51,26 51,25.7 51.1,25.4 51.1,25.1 51.2,24.9 
		51.4,24.7 51.5,24.4 51.7,24.2 51.8,24 52,23.9 52.2,23.7 52.4,23.6 52.7,23.5 52.9,23.4 53.2,23.3 53.4,23.2 53.6,23.2 53.6,23.2 
		53.6,23.1 53.6,23.1 	"/>
	<polygon class="st2" points="55.2,22.9 55.2,22.9 55.1,22.9 55,22.9 54.9,22.9 54.8,22.9 54.7,22.9 54.5,23 54.4,23 54.3,23 
		54.1,23 54,23 53.9,23 53.8,23 53.7,23 53.7,23.1 53.7,23.1 53.6,23.1 53.6,23.2 53.7,23.2 53.7,23.1 53.7,23.1 53.8,23.1 
		53.9,23.1 54,23.1 54.1,23.1 54.3,23.1 54.4,23.1 54.5,23 54.7,23 54.8,23 54.9,23 55,23 55.1,23 55.2,23 55.2,23 55.2,22.9 
		55.2,22.9 	"/>
	<polygon class="st2" points="56.2,23 56.3,22.9 56.2,22.9 56.2,22.9 56.1,22.9 55.9,22.9 55.7,22.9 55.6,22.9 55.4,22.9 55.2,22.9 
		55.2,23 55.4,23 55.6,23 55.7,23 55.9,23 56.1,23 56.2,23 56.2,23 56.3,23 56.3,23 56.3,23 56.3,23 56.3,23 56.2,23 56.2,23 	"/>
	<polygon class="st2" points="56.3,22.5 56.3,22.5 56.3,22.6 56.3,22.8 56.2,22.9 56.2,23 56.3,23 56.3,22.9 56.4,22.8 56.4,22.6 
		56.4,22.5 56.4,22.5 56.3,22.5 56.3,22.5 	"/>
	<polygon class="st2" points="55.4,21.7 55.4,21.8 55.6,21.8 55.7,21.8 55.9,21.9 56,22 56.1,22.1 56.2,22.2 56.3,22.3 56.3,22.5 
		56.4,22.5 56.4,22.3 56.3,22.2 56.2,22 56.1,21.9 55.9,21.8 55.8,21.7 55.6,21.7 55.4,21.6 55.4,21.7 55.4,21.7 55.4,21.7 	"/>
	<polygon class="st2" points="52.1,22.1 52.2,22.2 52.3,22.1 52.4,22.1 52.5,22 52.7,22 52.9,21.9 53.1,21.9 53.3,21.9 53.5,21.8 
		53.7,21.8 54,21.8 54.2,21.8 54.5,21.7 54.7,21.7 55,21.7 55.2,21.7 55.4,21.7 55.4,21.7 55.2,21.6 55,21.6 54.7,21.6 54.5,21.6 
		54.2,21.7 54,21.7 53.7,21.7 53.5,21.7 53.3,21.8 53.1,21.8 52.9,21.8 52.7,21.9 52.5,21.9 52.4,22 52.3,22 52.2,22.1 52.2,22.1 
		52.1,22.1 52.1,22.1 	"/>
	<polygon class="st2" points="52.7,20.2 52.7,20.3 52.1,22.1 52.2,22.1 52.8,20.3 52.7,20.3 52.7,20.2 52.7,20.3 52.7,20.3 
		52.7,20.2 52.7,20.2 	"/>
	<polygon class="st2" points="56.1,19.9 56.1,19.9 55.8,19.9 55.6,19.9 55.3,19.9 55.1,19.9 54.9,19.9 54.6,19.9 54.4,19.9 
		54.2,19.9 54,19.9 53.8,20 53.6,20 53.4,20 53.2,20.1 53.1,20.1 52.9,20.2 52.7,20.2 52.7,20.3 52.9,20.3 53.1,20.2 53.2,20.2 
		53.4,20.1 53.6,20.1 53.8,20 54,20 54.2,20 54.4,20 54.6,20 54.9,20 55.1,20 55.3,20 55.6,20 55.8,20 56.1,20 56.1,20 56.1,19.9 
		56.1,19.9 	"/>
	<polygon class="st2" points="58.7,22.5 58.7,22.5 58.7,22.2 58.7,21.9 58.7,21.6 58.6,21.4 58.5,21.1 58.3,20.9 58.1,20.7 
		57.9,20.5 57.7,20.4 57.5,20.3 57.3,20.2 57,20.1 56.8,20 56.5,19.9 56.3,19.9 56.1,19.9 56.1,20 56.3,20 56.5,20 56.8,20.1 
		57,20.2 57.2,20.3 57.5,20.4 57.7,20.5 57.9,20.6 58.1,20.8 58.2,21 58.4,21.2 58.5,21.4 58.6,21.6 58.6,21.9 58.6,22.2 58.6,22.5 
		58.6,22.5 58.7,22.5 58.7,22.5 	"/>
	<polygon class="st2" points="57.9,26.5 57.9,26.5 58.7,22.5 58.6,22.5 57.8,26.5 57.8,26.5 57.9,26.5 57.9,26.5 	"/>
	<polygon class="st0" points="56,24.5 56,24.4 56,24.4 55.9,24.4 55.8,24.4 55.8,24.4 55.7,24.3 55.5,24.3 55.4,24.4 55.3,24.4 
		55.2,24.4 55.1,24.4 54.9,24.4 54.8,24.4 54.7,24.5 54.6,24.5 54.6,24.5 54.5,24.5 54.4,24.5 54.4,24.5 54.3,24.6 54.2,24.6 
		54.1,24.7 54,24.7 53.9,24.8 53.8,24.9 53.7,24.9 53.6,25 53.5,25.1 53.5,25.2 53.4,25.3 53.4,25.5 53.3,25.6 53.3,25.8 53.4,26.1 
		53.4,26.2 53.5,26.3 53.6,26.4 53.8,26.4 53.9,26.5 54,26.5 54.3,26.5 54.5,26.4 54.7,26.4 54.8,26.3 55,26.3 55.1,26.2 55.3,26.1 
		55.4,26.1 55.5,26 55.6,25.9 55.7,25.8 55.8,25.7 55.8,25.6 55.8,25.5 55.9,25.4 55.9,25.3 55.9,25.1 56,24.9 56,24.7 56,24.5 
		56,24.5 	"/>
	<polygon class="st2" points="71.6,27.1 71.7,26.9 71.7,26.7 71.8,26.6 72,26.4 72.1,26.3 72.3,26.2 72.5,26.1 72.7,26.1 72.9,26.1 
		73.1,26.2 73.3,26.3 73.5,26.4 73.6,26.6 73.7,26.7 73.8,26.9 73.8,27.1 73.5,27.1 73.5,27 73.5,26.8 73.4,26.7 73.3,26.5 
		73.2,26.4 73.1,26.3 72.9,26.3 72.7,26.3 72.5,26.3 72.4,26.3 72.2,26.4 72.1,26.5 72,26.7 71.9,26.8 71.9,27 71.9,27.1 71.6,27.1 
		71.6,27.1 	"/>
	<polygon class="st2" points="72.3,27.1 72.3,26.7 72.7,26.7 72.8,26.7 72.9,26.7 73,26.7 73,26.7 73.1,26.8 73.1,26.8 73.1,26.9 
		73.1,26.9 73.1,27 73.1,27.1 73.1,27.1 73.1,27.1 72.7,27.1 72.8,27.1 72.8,27.1 72.9,27.1 72.9,27.1 72.9,27 73,27 73,27 73,26.9 
		73,26.9 73,26.9 72.9,26.8 72.9,26.8 72.9,26.8 72.8,26.8 72.8,26.8 72.7,26.8 72.5,26.8 72.5,27.1 72.3,27.1 72.3,27.1 	"/>
	<polygon class="st2" points="71.6,27.1 71.6,27.2 71.7,27.4 71.7,27.6 71.8,27.8 72,27.9 72.1,28 72.3,28.1 72.5,28.2 72.7,28.2 
		72.9,28.2 73.1,28.1 73.3,28 73.5,27.9 73.6,27.8 73.7,27.6 73.8,27.4 73.8,27.2 73.8,27.1 73.5,27.1 73.6,27.2 73.5,27.3 
		73.5,27.5 73.4,27.7 73.3,27.8 73.2,27.9 73.1,28 72.9,28 72.7,28 72.5,28 72.4,28 72.2,27.9 72.1,27.8 72,27.7 71.9,27.5 
		71.9,27.3 71.9,27.2 71.9,27.1 71.6,27.1 71.6,27.1 	"/>
	<polygon class="st2" points="72.3,27.1 72.3,27.6 72.5,27.6 72.5,27.2 72.7,27.2 72.9,27.6 73.1,27.6 72.9,27.2 72.9,27.2 73,27.2 
		73,27.2 73.1,27.1 73.1,27.1 72.7,27.1 72.7,27.1 72.5,27.1 72.5,27.1 72.3,27.1 72.3,27.1 	"/>
	<path class="st3" d="M71.6,27.2L71.6,27.2l0-0.2l0.1-0.2l0.1-0.2l0.1-0.2l0.2-0.1l0.2-0.1l0.2-0.1l0.2,0l0,0l0.2,0l0.2,0.1l0.2,0.1
		l0.2,0.1l0.1,0.2l0.1,0.2l0.1,0.2l0,0.2l0,0l0,0.2l-0.1,0.2l-0.1,0.2l-0.1,0.2L73.3,28l-0.2,0.1l-0.2,0.1l-0.2,0l0,0l-0.2,0
		l-0.2-0.1L72.1,28L72,27.9l-0.1-0.2l-0.1-0.2l-0.1-0.2L71.6,27.2 M72.5,27.6h-0.2v-0.9h0.4l0.1,0l0.1,0l0.1,0l0.1,0l0,0l0,0l0,0.1
		l0,0.1l0,0l0,0.1l0,0.1l0,0l0,0l0,0l0,0l-0.1,0h-0.1l0.2,0.4h-0.2l-0.2-0.4h-0.2V27.6 M72.7,27.1L72.7,27.1L72.7,27.1l0.1,0l0,0
		l0,0l0,0l0,0l0,0v-0.1l0,0l0,0l0,0l0,0l0,0l0,0l0,0h-0.3v0.3H72.7 M72.7,28L72.7,28l0.2,0l0.2-0.1l0.1-0.1l0.1-0.1l0.1-0.1l0.1-0.1
		l0-0.2l0-0.2l0,0l0-0.2l0-0.2l-0.1-0.2l-0.1-0.1l-0.1-0.1l-0.1-0.1l-0.2-0.1l-0.2,0l0,0l-0.2,0l-0.2,0.1l-0.1,0.1l-0.1,0.1L72,26.7
		l-0.1,0.2l0,0.2l0,0.2l0,0l0,0.2l0,0.2l0.1,0.1l0.1,0.1l0.1,0.1l0.1,0.1l0.2,0.1L72.7,28"/>
	<polygon class="st2" points="58.4,28.2 60.6,28.2 60.6,28.2 61.3,23.8 61.4,23.7 61.4,23.5 61.4,23.3 61.5,23.2 61.6,23 61.7,22.8 
		61.8,22.7 61.9,22.5 62,22.4 62.2,22.3 62.4,22.2 62.6,22.1 62.8,22 63,22 63.3,21.9 63.6,21.9 63.7,21.9 63.7,21.9 63.8,21.9 
		63.8,21.9 64.1,19.9 63.9,20 63.7,20 63.5,20 63.3,20.1 63.2,20.1 63,20.2 62.8,20.3 62.7,20.4 62.6,20.5 62.4,20.6 62.3,20.7 
		62.2,20.8 62.1,21 62,21.1 61.8,21.2 61.7,21.4 62,20 59.8,20 58.4,28.2 58.4,28.2 58.4,28.2 	"/>
	<polyline class="st3" points="58.4,28.2 60.6,28.2 60.6,28.2 61.3,23.8 61.3,23.8 61.4,23.7 61.4,23.5 61.4,23.3 61.5,23.2 
		61.6,23 61.7,22.8 61.8,22.7 61.9,22.5 62,22.4 62.2,22.3 62.4,22.2 62.6,22.1 62.8,22 63,22 63.3,21.9 63.6,21.9 63.6,21.9 
		63.7,21.9 63.7,21.9 63.8,21.9 63.8,21.9 64.1,19.9 64.1,19.9 63.9,20 63.7,20 63.5,20 63.3,20.1 63.2,20.1 63,20.2 62.8,20.3 
		62.7,20.4 62.6,20.5 62.4,20.6 62.3,20.7 62.2,20.8 62.1,21 62,21.1 61.8,21.2 61.7,21.4 62,20 59.8,20 58.4,28.2 58.4,28.2 	"/>
	<polygon class="st2" points="38.3,28.2 40.5,28.2 40.5,28.2 41.2,23.8 41.3,23.7 41.3,23.5 41.3,23.4 41.4,23.2 41.4,23 41.5,22.9 
		41.6,22.8 41.7,22.6 41.8,22.5 42,22.4 42.1,22.3 42.3,22.2 42.5,22.2 42.8,22.1 43,22.1 43.3,22 43.4,22 43.4,22.1 43.4,22.1 
		43.5,22.1 43.5,22.1 43.5,22.1 43.5,22.1 43.6,22.1 43.6,22.1 43.6,22 43.6,21.8 43.7,21.7 43.7,21.5 43.8,21.2 43.8,21 43.9,20.8 
		44,20.7 44,20.5 44.1,20.4 44.2,20.3 44.3,20.1 44.3,20.1 44.3,20 44.4,20 44.4,20 44.3,20 44.3,20 44.2,20 44.2,20 44.1,19.9 
		44.1,19.9 44,19.9 43.8,20 43.6,20 43.4,20 43.2,20.1 43,20.1 42.8,20.2 42.7,20.3 42.6,20.4 42.4,20.5 42.3,20.6 42.2,20.7 
		42.1,20.8 42,21 41.9,21.1 41.8,21.2 41.6,21.4 41.9,20 39.7,20 38.3,28.2 38.3,28.2 38.3,28.2 	"/>
	<polyline class="st3" points="38.3,28.2 40.5,28.2 40.5,28.2 41.2,23.8 41.2,23.8 41.3,23.7 41.3,23.5 41.3,23.4 41.4,23.2 
		41.4,23 41.5,22.9 41.6,22.8 41.7,22.6 41.8,22.5 42,22.4 42.1,22.3 42.3,22.2 42.5,22.2 42.8,22.1 43,22.1 43.3,22 43.3,22 
		43.4,22 43.4,22.1 43.4,22.1 43.5,22.1 43.5,22.1 43.5,22.1 43.5,22.1 43.6,22.1 43.6,22.1 43.6,22.1 43.6,22 43.6,21.8 43.7,21.7 
		43.7,21.5 43.8,21.2 43.8,21 43.9,20.8 43.9,20.8 44,20.7 44,20.5 44.1,20.4 44.2,20.3 44.3,20.1 44.3,20.1 44.3,20 44.4,20 
		44.4,20 44.4,20 44.3,20 44.3,20 44.2,20 44.2,20 44.1,19.9 44.1,19.9 44,19.9 44,19.9 43.8,20 43.6,20 43.4,20 43.2,20.1 43,20.1 
		42.8,20.2 42.7,20.3 42.6,20.4 42.4,20.5 42.3,20.6 42.2,20.7 42.1,20.8 42,21 41.9,21.1 41.8,21.2 41.6,21.4 41.9,20 39.7,20 
		38.3,28.2 38.3,28.2 	"/>
	<polygon class="st0" points="71.7,36.1 71.7,36.1 71.7,35.9 71.8,35.7 72,35.6 72.1,35.5 72.3,35.4 72.5,35.3 72.7,35.3 72.9,35.3 
		73.1,35.4 73.3,35.5 73.5,35.6 73.6,35.7 73.7,35.9 73.8,36.1 73.8,36.1 73.5,36.1 73.5,36 73.4,35.8 73.3,35.7 73.2,35.6 
		73.1,35.5 72.9,35.5 72.7,35.4 72.5,35.5 72.4,35.5 72.2,35.6 72.1,35.7 72,35.8 71.9,36 71.9,36.1 71.7,36.1 71.7,36.1 	"/>
	<polygon class="st0" points="72.3,36.1 72.3,35.9 72.7,35.9 72.8,35.9 72.9,35.9 73,35.9 73,35.9 73.1,36 73.1,36 73.1,36.1 
		73.1,36.1 73,36.1 73,36.1 73,36.1 73,36 72.9,36 72.9,36 72.9,36 72.8,36 72.8,36 72.7,36 72.5,36 72.5,36.1 72.3,36.1 72.3,36.1 
			"/>
	<polygon class="st0" points="71.6,36.3 71.7,36.1 71.9,36.1 71.9,36.1 71.9,36.3 71.6,36.3 71.6,36.3 	"/>
	<polygon class="st0" points="72.3,36.3 72.3,36.1 72.5,36.1 72.5,36.3 72.7,36.3 72.8,36.3 72.8,36.3 72.9,36.3 72.9,36.2 
		72.9,36.2 73,36.2 73,36.2 73,36.1 73.1,36.1 73.1,36.1 73.1,36.2 73.1,36.2 73.1,36.3 73.1,36.3 72.3,36.3 72.3,36.3 	"/>
	<polygon class="st0" points="73.6,36.3 73.5,36.1 73.5,36.1 73.8,36.1 73.8,36.3 73.6,36.3 73.6,36.3 	"/>
	<polygon class="st0" points="71.6,36.3 71.6,36.3 71.7,36.5 71.7,36.8 71.8,36.9 72,37.1 72.1,37.2 72.3,37.3 72.5,37.4 72.7,37.4 
		72.9,37.4 73.1,37.3 73.3,37.2 73.5,37.1 73.6,36.9 73.7,36.8 73.8,36.5 73.8,36.3 73.8,36.3 73.6,36.3 73.6,36.3 73.5,36.5 
		73.5,36.7 73.4,36.8 73.3,37 73.2,37.1 73.1,37.1 72.9,37.2 72.7,37.2 72.5,37.2 72.4,37.1 72.2,37.1 72.1,37 72,36.8 71.9,36.7 
		71.9,36.5 71.9,36.3 71.9,36.3 71.6,36.3 71.6,36.3 	"/>
	<polygon class="st0" points="72.3,36.3 72.3,36.7 72.5,36.7 72.5,36.4 72.7,36.4 72.9,36.7 73.1,36.7 72.9,36.4 72.9,36.4 73,36.4 
		73,36.3 73.1,36.3 73.1,36.3 72.3,36.3 72.3,36.3 	"/>
	<path class="st2" d="M38.6,22.4L38.5,22l-0.1-0.4l-0.2-0.3L38,20.9l-0.2-0.3l-0.3-0.2l-0.3-0.2L37,20.1L36.7,20L36.4,20l-0.3-0.1
		l-0.3,0l-0.3,0l-0.6,0L34.3,20l-0.5,0.1l-0.4,0.2L33,20.5l-0.3,0.3l-0.3,0.3l-0.2,0.3l-0.2,0.3L31.7,22l-0.1,0.3l-0.1,0.3L31.4,23
		l-0.1,0.3l0,0.3l0,0.2l0,0.6l0,0.6l0.1,0.5l0.1,0.4l0.2,0.4l0.2,0.3l0.3,0.3l0.3,0.3l0.3,0.2l0.3,0.2l0.4,0.1l0.4,0.1l0.4,0.1
		l0.4,0.1l0.4,0l0.4,0h0.3l0.2,0H36l0.2,0l0.2,0l0.2,0l0.2,0l0.1,0l0.1,0l0.1,0l0.1,0l0.1,0l0.1,0l0.1,0l0.1-0.1l0.1-0.1l0.3-1.9
		L37.9,26l-0.2,0.1l-0.2,0.1l-0.2,0.1L37,26.4l-0.2,0l-0.2,0l-0.2,0l-0.2,0l-0.2,0h-0.2l-0.2,0l-0.2,0l-0.2,0l-0.2,0l-0.2,0l-0.2,0
		l-0.2-0.1l-0.2-0.1l-0.1-0.1l-0.1-0.1L34,26l-0.1-0.1l-0.1-0.1l-0.1-0.1l-0.1-0.1l-0.1-0.1l-0.1-0.1l0-0.1l0-0.1l0-0.1l0-0.1h4.9
		l0-0.5l0.1-0.6l0.1-0.6L38.6,22.4z M36.5,23.1h-2.8l0,0l0,0l0-0.1l0-0.2l0-0.2l0.1-0.2l0.1-0.1l0.1-0.1l0.1-0.1l0.1-0.1l0.1-0.1
		l0.1-0.1l0.1-0.1l0.1-0.1l0.1-0.1l0.1,0l0.1,0l0.1,0l0.1,0l0.1,0l0.1,0l0.1,0l0.1,0l0.1,0.1l0.1,0.1l0.1,0.1l0.1,0.1l0.1,0.1
		l0.1,0.1l0.1,0.1l0.1,0.1l0,0.2l0,0.2l0,0.2L36.5,23.1z"/>
</g>
</svg>
