<?xml version="1.0" encoding="utf-8"?>
<!-- Generator: Adobe Illustrator 19.0.0, SVG Export Plug-In . SVG Version: 6.00 Build 0)  -->
<svg version="1.1" id="Layer_1" xmlns="http://www.w3.org/2000/svg" xmlns:xlink="http://www.w3.org/1999/xlink" x="0px" y="0px"
	 viewBox="0 0 207 55.1" style="enable-background:new 0 0 207 55.1;" xml:space="preserve">
<style type="text/css">
	.st0{fill:#179BD7;}
	.st1{fill:#253B80;}
</style>
<g>
	<path class="st0" d="M141.6,15.1c-0.9,5.8-5.3,5.8-9.6,5.8h-2.4l1.7-10.8c0.1-0.7,0.7-1.1,1.3-1.1h1.1c2.9,0,5.7,0,7.1,1.7
		C141.7,11.6,141.9,13.1,141.6,15.1 M139.8,0h-16.1c-1.1,0-2,0.8-2.2,1.9L115,43.2c-0.1,0.7,0.4,1.4,1.1,1.5c0.1,0,0.1,0,0.2,0h8.3
		c0.8,0,1.4-0.6,1.5-1.3l1.8-11.7c0.2-1.1,1.1-1.9,2.2-1.9h5.1c10.6,0,16.7-5.1,18.3-15.3c0.7-4.4,0-7.9-2.1-10.4
		C149.2,1.4,145.1,0,139.8,0"/>
	<path class="st1" d="M26.7,15.1c-0.9,5.8-5.3,5.8-9.6,5.8h-2.4l1.7-10.8C16.5,9.4,17.1,9,17.7,9h1.1c2.9,0,5.7,0,7.1,1.7
		C26.8,11.6,27,13.1,26.7,15.1 M24.9,0H8.8c-1.1,0-2,0.8-2.2,1.9L0,43.2c-0.1,0.7,0.4,1.4,1.1,1.5c0.1,0,0.1,0,0.2,0h7.8
		c1.1,0,2-0.8,2.2-1.9l1.8-11.1c0.2-1.1,1.1-1.9,2.2-1.9h5.1c10.6,0,16.7-5.1,18.3-15.3c0.7-4.4,0-7.9-2.1-10.4
		C34.3,1.4,30.3,0,24.9,0"/>
	<path class="st1" d="M62.3,29.9c-0.6,4.3-4.4,7.5-8.7,7.4c-3.3,0.3-6.2-2-6.6-5.3c-0.1-0.7,0-1.5,0.2-2.2c0.6-4.3,4.3-7.5,8.6-7.4
		c1.9-0.1,3.8,0.7,5.1,2.1C62.2,26,62.7,28,62.3,29.9 M73,14.9h-7.7c-0.7,0-1.2,0.5-1.3,1.1l-0.3,2.2l-0.6-0.8
		c-1.7-2.4-5.4-3.2-9.1-3.2c-8.5,0-15.8,6.5-17.2,15.5c-0.8,4.2,0.2,8.5,2.9,11.8c2.4,2.8,5.7,3.9,9.7,3.9s7.9-1.6,10.7-4.4
		l-0.3,2.1c-0.1,0.7,0.4,1.4,1.1,1.5c0.1,0,0.1,0,0.2,0H68c1.1,0,2-0.8,2.2-1.9l4.2-26.4c0.1-0.7-0.4-1.4-1.1-1.5
		C73.2,14.9,73.1,14.9,73,14.9"/>
	<path class="st0" d="M177.2,29.9c-0.6,4.3-4.4,7.5-8.7,7.4c-3.3,0.3-6.2-2-6.6-5.3c-0.1-0.7,0-1.5,0.2-2.2c0.6-4.3,4.3-7.5,8.6-7.4
		c1.9-0.1,3.8,0.7,5.1,2.1C177.1,26,177.5,28,177.2,29.9 M187.9,14.9h-7.7c-0.7,0-1.2,0.5-1.3,1.1l-0.3,2.2l-0.5-0.8
		c-1.7-2.4-5.4-3.2-9.1-3.2c-8.5,0-15.8,6.5-17.2,15.5c-0.8,4.2,0.2,8.5,2.9,11.8c2.4,2.8,5.7,3.9,9.7,3.9s7.9-1.6,10.7-4.4
		l-0.3,2.1c-0.1,0.7,0.4,1.4,1.1,1.5c0.1,0,0.1,0,0.2,0h6.9c1.1,0,2-0.8,2.2-1.9l4.2-26.4c0.1-0.7-0.4-1.4-1.1-1.5
		C188,14.9,188,14.9,187.9,14.9"/>
	<path class="st1" d="M114.1,14.9h-7.8c-0.7,0-1.4,0.4-1.9,1L93.8,31.6l-4.5-15.1c-0.3-0.9-1.2-1.6-2.1-1.6h-7.6
		c-0.7,0-1.3,0.6-1.3,1.3c0,0.1,0,0.3,0.1,0.4l8.5,25.1l-8,11.3c-0.4,0.6-0.3,1.4,0.3,1.9c0.2,0.2,0.5,0.2,0.8,0.2h7.7
		c0.7,0,1.4-0.4,1.8-1l25.8-37.2c0.4-0.6,0.3-1.4-0.3-1.9C114.6,15,114.4,14.9,114.1,14.9"/>
	<path class="st0" d="M197,1.1l-6.6,42.1c-0.1,0.7,0.4,1.4,1.1,1.5c0.1,0,0.1,0,0.2,0h6.6c1.1,0,2-0.8,2.2-1.9L207,1.5
		c0.1-0.7-0.4-1.4-1.1-1.5c-0.1,0-0.1,0-0.2,0h-7.4C197.7,0,197.1,0.5,197,1.1"/>
</g>
</svg>
