<?xml version="1.0" encoding="utf-8"?>
<!-- Generator: Adobe Illustrator 19.0.0, SVG Export Plug-In . SVG Version: 6.00 Build 0)  -->
<svg version="1.1" id="Layer_1" xmlns="http://www.w3.org/2000/svg" xmlns:xlink="http://www.w3.org/1999/xlink" x="0px" y="0px"
	 viewBox="0 0 77.2 24.4" style="enable-background:new 0 0 77.2 24.4;" xml:space="preserve">
<style type="text/css">
	.st0{fill:#0A67B2;}
	.st1{fill:#FAA634;}
</style>
<g>
	<polygon class="st0" points="32.6,24 26.4,24 30.3,0.4 36.4,0.4 	"/>
	<path class="st0" d="M21.3,0.4l-5.8,16.2l-0.7-3.5v0L12.7,2.5c-0.3-1.4-1.5-2.3-2.9-2.1H0.1L0,0.8c2.3,0.6,4.4,1.5,6.4,2.7L11.7,24
		h6.4l9.7-23.5H21.3z"/>
	<path class="st0" d="M69.5,24h5.6L70.2,0.4h-4.9C64,0.3,62.9,1,62.4,2.2L53.3,24h6.4l1.3-3.5h7.8L69.5,24z M62.7,15.6l3.2-8.8
		l1.8,8.8H62.7z"/>
	<path class="st0" d="M53.8,6.1L54.6,1c-1.8-0.6-3.6-1-5.5-1c-3,0-10.3,1.3-10.3,7.8c0,6.1,8.5,6.2,8.5,9.3c0,3.2-7.6,2.6-10.1,0.6
		L36.3,23c2.2,0.9,4.5,1.4,6.9,1.3c4.2,0,10.5-2.2,10.5-8.1c0-6.1-8.6-6.7-8.6-9.3C45.2,4.3,51.2,4.6,53.8,6.1z"/>
	<path class="st1" d="M14.7,13.1L12.7,2.5c-0.3-1.4-1.5-2.3-2.9-2.1H0.1L0,0.8c3.3,0.8,6.4,2.4,9.1,4.6
		C11.6,7.4,13.6,10.1,14.7,13.1z"/>
</g>
</svg>
