<?xml version="1.0" encoding="utf-8"?>
<!-- Generator: Adobe Illustrator 19.0.0, SVG Export Plug-In . SVG Version: 6.00 Build 0)  -->
<svg version="1.1" id="Layer_1" xmlns="http://www.w3.org/2000/svg" xmlns:xlink="http://www.w3.org/1999/xlink" x="0px" y="0px"
	 viewBox="0 0 218.9 54.7" style="enable-background:new 0 0 218.9 54.7;" xml:space="preserve">
<style type="text/css">
	.st0{fill:#0874B8;}
</style>
<g>
	<path class="st0" d="M191.4,0c4.2,0,8.3,0.9,12,2.8c0.6,0.3,1.1,0.6,1.7,0.9l-2.5,2.3L198.8,2l-6.4,5.7l-3.8-4.1l-11.9,10.7
		l7.6,8.4l-3,2.6l7.5,8.4l-3,2.6l10.7,12l6.4-5.9l5.5,6.3c-1.1,0.9-2.3,1.7-3.6,2.4c-13.1,7.5-29.8,2.8-37.3-10.3
		c-7.5-13.1-2.8-29.8,10.3-37.3C182,1.2,186.6,0,191.4,0L191.4,0L191.4,0z"/>
	<polygon class="st0" points="186.4,25.6 192.9,19.8 198.7,26.3 192.2,32.2 186.4,25.6 	"/>
	<polygon class="st0" points="191,36.9 197.5,31 203.4,37.5 196.9,43.4 191,36.9 	"/>
	<polygon class="st0" points="181.7,14.5 188.2,8.7 194.1,15.2 187.6,21 181.7,14.5 	"/>
	<polygon class="st0" points="193.7,11.4 198.5,7 202.9,11.9 198.1,16.3 193.7,11.4 	"/>
	<polygon class="st0" points="202.3,31.5 207.2,27.1 211.6,32 206.7,36.4 202.3,31.5 	"/>
	<polygon class="st0" points="206.6,41.4 211.5,37 215.9,41.9 211,46.2 206.6,41.4 	"/>
	<polygon class="st0" points="208.6,18.8 211.8,15.8 214.8,19.1 211.5,22 208.6,18.8 	"/>
	<polygon class="st0" points="204.4,9.1 207.7,6.2 210.6,9.4 207.4,12.4 204.4,9.1 	"/>
	<polygon class="st0" points="212.8,28.4 216,25.5 218.9,28.8 215.7,31.7 212.8,28.4 	"/>
	<polygon class="st0" points="198.2,21.2 203,16.8 207.4,21.7 202.6,26.1 198.2,21.2 	"/>
	<path class="st0" d="M12.8,22.7h-0.2L8.4,38.2H5.1L0,16.1h3.5L7,32.6h0.2l4.1-16.5h2.8l4.3,16.5h0.2l3.2-16.5h3.7l-5.1,22.1H17
		L12.8,22.7z"/>
	<path class="st0" d="M39.3,34.8v2.4c-1.7,1-3.6,1.5-5.5,1.4c-5.2,0-7.4-3.2-7.4-8.2c0-4.7,2.4-8.2,7.1-8.2c3.9,0,6.3,2.5,6.3,7.6
		V31H29.6c0,3.7,1.5,5.4,4.7,5.4C36,36.4,37.6,35.8,39.3,34.8z M29.6,28.9h7.2c-0.2-3.3-1.7-4.6-3.4-4.6
		C31.5,24.3,30,25.8,29.6,28.9z"/>
	<path class="st0" d="M45.8,23.4c1.3-0.7,2.7-1.1,4.2-1.2c3.9,0,6,2.7,6,7.7c0,5.8-2.8,8.7-7.3,8.7c-2.1-0.1-4.2-0.6-6.1-1.5V15.3
		l3.2-0.8V23.4z M45.8,35.9c0.9,0.4,1.9,0.5,2.9,0.5c2.3,0,4.1-1.4,4.1-6.5c0-4-1.4-5.2-3.5-5.2c-1.2,0-2.4,0.4-3.4,1V35.9
		L45.8,35.9z"/>
	<path class="st0" d="M70.2,33.6h0.2l6.7-17.5H81v22.1h-3.4V22.2h-0.3l-6.4,16.1h-2l-6.4-15.7h-0.3v15.7h-2.8V16.1h3.8L70.2,33.6z"
		/>
	<path class="st0" d="M84.4,30.4c0-5.5,3-8.2,7.1-8.2c4.1,0,7.1,2.7,7.1,8.2c0,5.3-2.8,8.2-7.1,8.2S84.4,35.8,84.4,30.4z M95.4,30.4
		c0-4.2-1.7-6-3.8-6c-2.1,0-3.8,1.8-3.8,6c0,4.3,1.6,6,3.8,6C93.7,36.4,95.4,34.7,95.4,30.4z"/>
	<path class="st0" d="M101.6,24.6c2.4-1.5,5.2-2.3,8-2.3c3.7,0,5.2,1.5,5.2,4.7v11.3h-3.2V27.7c0-2.5-1.2-2.9-2.8-2.9
		c-1.3,0.1-2.6,0.5-3.8,1.1v12.4h-3.2V24.6z"/>
	<path class="st0" d="M130.5,34.8v2.4c-1.7,1-3.6,1.5-5.5,1.4c-5.2,0-7.4-3.2-7.4-8.2c0-4.7,2.4-8.2,7.1-8.2c3.9,0,6.3,2.5,6.3,7.6
		V31h-10.2c0,3.7,1.5,5.4,4.7,5.4C127.3,36.4,128.8,35.8,130.5,34.8z M120.9,28.9h7.2c-0.2-3.3-1.7-4.6-3.4-4.6
		C122.7,24.3,121.2,25.8,120.9,28.9z"/>
	<path class="st0" d="M143.2,22.8h3.3l-5.7,15.6c-1.6,4.3-3.5,6.6-7.1,6.6v-2.6c2.1,0,3.4-1.7,4.2-4l-6-15.6h3.4l4,11.5h0.2
		L143.2,22.8z"/>
</g>
</svg>
