<?xml version="1.0" encoding="utf-8"?>
<!-- Generator: Adobe Illustrator 19.0.0, SVG Export Plug-In . SVG Version: 6.00 Build 0)  -->
<svg version="1.1" id="Layer_1" xmlns="http://www.w3.org/2000/svg" xmlns:xlink="http://www.w3.org/1999/xlink" x="0px" y="0px"
	 viewBox="0 0 196.3 70.7" style="enable-background:new 0 0 196.3 70.7;" xml:space="preserve">
<style type="text/css">
	.st0{fill:#FECF0A;}
	.st1{fill:#D1AB2B;}
	.st2{fill:#231F20;}
	.st3{fill:#EE3226;}
</style>
<g>
	<g>
		<path class="st0" d="M145.8,32.9c0-3.7,0.3-6.1,8-11.8C160.2,16.3,180.7,0,180.7,0v27.3h15.6v39.2h-45.7c-2.7,0-4.8-2.2-4.8-4.8
			V32.9z"/>
		<g>
			<g>
				<polygon class="st1" points="180.7,27.3 180.7,43 152,62.5 188.2,50.8 188.2,27.3 				"/>
				<path class="st2" d="M167.6,26.4c1.6-2,4.1-2.7,5.5-1.6c1.3,1.1,1.1,3.7-0.6,5.7c-1.6,2-4.1,2.7-5.5,1.6
					C165.6,31,165.9,28.4,167.6,26.4"/>
			</g>
		</g>
	</g>
	<g>
		<path class="st3" d="M21.2,19.1h-6.9c-6.8,0-12.6,5.2-12.6,15.2c0,6,2.8,10.5,7.8,12.6L0.1,63.8c-0.3,0.5,0,0.9,0.5,0.9H5
			c0.3,0,0.6-0.1,0.7-0.4l8.5-16.5h3v16.5c0,0.2,0.2,0.4,0.4,0.4h3.8c0.3,0,0.5-0.2,0.5-0.5V19.7C21.8,19.2,21.6,19.1,21.2,19.1
			 M17.1,43.9h-2.5c-4,0-7.9-3-7.9-10.3c0-7.6,3.6-10.8,7.3-10.8h3.1V43.9z"/>
		<path class="st2" d="M44,34.2h-3.8c-0.3,0-0.5,0.2-0.5,0.4v11.7h-7V34.7c0-0.3-0.1-0.4-0.4-0.4h-3.8c-0.3,0-0.5,0.2-0.5,0.4v29.7
			c0,0.3,0.1,0.5,0.4,0.5h3.9c0.2,0,0.4-0.2,0.4-0.5V50.1h7v14.1c0,0.3,0.2,0.5,0.5,0.5H44c0.3,0,0.4-0.2,0.4-0.5V34.7
			C44.4,34.4,44.2,34.2,44,34.2"/>
		<path class="st2" d="M130,62.7l-0.5-2.1c-0.1-0.2-0.1-0.2-0.3-0.2c-0.3,0-2,0.7-4.4,0.7c-4.6,0-6.9-4.4-6.9-11.5
			c0-6.2,1.9-12.4,5-12.4c0.8,0,1.9,0.2,3.5,1.8c0.2,0.2,0.3,0.2,0.5,0.2s0.3-0.2,0.6-0.4l1.6-2.7c0.1-0.2,0.2-0.3,0.2-0.6
			c0-0.2-0.2-0.4-0.6-0.6c-2.5-1.3-4.2-1.6-5.7-1.6c-5.7,0-10.2,6.8-10.2,17.5c0,9.2,4.3,14.5,10.3,14.5c2.5,0,5.3-1.2,6.4-2
			C130,63.2,130,63,130,62.7"/>
		<path class="st2" d="M103.5,48l7.3-13.3c0.1-0.2,0.1-0.4-0.2-0.4h-3.6c-1.1,0-1.4,0.3-1.7,1.1l-5.5,11.4c-0.3,0.7-0.6,1.1-0.9,1.3
			V34.7c0-0.2-0.1-0.4-0.3-0.4h-3.9c-0.2,0-0.3,0.2-0.3,0.4v29.7c0,0.2,0.1,0.4,0.3,0.4h3.9c0.2,0,0.3-0.2,0.3-0.4V49
			c0.2,0.1,0.3,0.3,0.4,0.6l6.9,14.3c0.3,0.7,0.9,0.9,1.7,0.9h3.9c0.2,0,0.3-0.2,0.2-0.4L103.5,48z"/>
		<path class="st2" d="M68.8,60.9h-0.7c-0.9,0-1.1-0.3-1.1-1.1V34.7c0-0.3-0.1-0.4-0.3-0.4H54.3c-0.3,0-0.5,0.2-0.5,0.4v2.1
			c0,7.4-0.4,16.8-4.4,24.1h-1.2c-0.3,0-0.5,0.2-0.5,0.5v8.9c0,0.3,0.2,0.4,0.4,0.4h2.9c0.7,0,0.9-0.5,0.9-0.9v-5h13v5.6
			c0,0.2,0.2,0.4,0.4,0.4h3.1c0.3,0,0.7-0.3,0.7-0.9v-8.5C69.3,61.1,69,60.9,68.8,60.9 M62.2,60.9h-8.8c3.1-5.3,4.4-11.3,4.8-18.6
			c0.1-1.6,0.2-3.2,0.2-4.3h3.9V60.9z"/>
		<path class="st2" d="M81.2,33.5c-6.6,0-9.4,8.3-9.4,17.3c0,9.2,4.1,14.7,10.2,14.7c3,0,5.6-1.1,6.9-2c0.2-0.1,0.3-0.3,0.2-0.6
			l-0.5-2.1c-0.1-0.2-0.2-0.3-0.5-0.3c-0.2,0-2,0.7-4.5,0.7c-4.7,0-6.9-4.1-6.9-9.4v-1.5c0,0,2.4,0.2,3.8,0.2h8.9V48
			C89.3,38.5,86,33.5,81.2,33.5 M80.5,46.7c-1.4,0-3.6,0.2-3.6,0.2s0-0.9,0.1-1.9c0.6-5.2,1.8-7.8,3.9-7.8c2,0,3.1,2.7,3.4,7.4
			c0.1,1,0.1,2.1,0.1,2.1H80.5z"/>
	</g>
</g>
</svg>
