<?xml version="1.0" encoding="utf-8"?>
<!-- Generator: Adobe Illustrator 19.0.0, SVG Export Plug-In . SVG Version: 6.00 Build 0)  -->
<svg version="1.1" id="Слой_1" xmlns="http://www.w3.org/2000/svg" xmlns:xlink="http://www.w3.org/1999/xlink" x="0px" y="0px"
	 viewBox="0 0 117.5 4.5" style="enable-background:new 0 0 117.5 4.5;" xml:space="preserve">
<style type="text/css">
	
		.st0{clip-path:url(#SVGID_2_);fill:none;stroke:#00C0F3;stroke-width:1.147;stroke-linecap:round;stroke-linejoin:round;stroke-miterlimit:10;stroke-dasharray:6.879,6.879;}
	
		.st1{clip-path:url(#SVGID_4_);fill:none;stroke:#00C0F3;stroke-width:1.147;stroke-linecap:round;stroke-linejoin:round;stroke-miterlimit:10;stroke-dasharray:6.879,6.879;}
</style>
<g>
	<defs>
		<rect id="SVGID_1_" x="-1.5" y="0" width="124.1" height="4.5"/>
	</defs>
	<clipPath id="SVGID_2_">
		<use xlink:href="#SVGID_1_"  style="overflow:visible;"/>
	</clipPath>
	<line class="st0" x1="-24.5" y1="4.7" x2="-1.7" y2="-18"/>
	<line class="st0" x1="-18" y1="4.7" x2="4.8" y2="-18"/>
	<line class="st0" x1="-11.5" y1="4.7" x2="11.3" y2="-18"/>
	<path class="st0" d="M17.8-18"/>
	<path class="st0" d="M-5,4.7"/>
	<line class="st0" x1="1.5" y1="4.7" x2="24.3" y2="-18"/>
	<line class="st0" x1="8" y1="4.7" x2="30.8" y2="-18"/>
	<line class="st0" x1="14.5" y1="4.7" x2="37.3" y2="-18"/>
	<line class="st0" x1="21" y1="4.7" x2="43.8" y2="-18"/>
	<line class="st0" x1="27.5" y1="4.7" x2="50.3" y2="-18"/>
	<line class="st0" x1="34" y1="4.7" x2="56.8" y2="-18"/>
	<line class="st0" x1="40.5" y1="4.7" x2="63.3" y2="-18"/>
	<line class="st0" x1="47" y1="4.7" x2="69.8" y2="-18"/>
	<line class="st0" x1="53.5" y1="4.7" x2="76.3" y2="-18"/>
	<line class="st0" x1="60" y1="4.7" x2="82.8" y2="-18"/>
	<line class="st0" x1="66.5" y1="4.7" x2="89.3" y2="-18"/>
	<line class="st0" x1="73" y1="4.7" x2="95.8" y2="-18"/>
	<line class="st0" x1="79.5" y1="4.7" x2="102.3" y2="-18"/>
	<line class="st0" x1="79.5" y1="4.7" x2="102.3" y2="-18"/>
	<line class="st0" x1="86" y1="4.7" x2="108.8" y2="-18"/>
	<line class="st0" x1="92.5" y1="4.7" x2="115.3" y2="-18"/>
	<line class="st0" x1="99" y1="4.7" x2="121.8" y2="-18"/>
	<line class="st0" x1="105.5" y1="4.7" x2="128.3" y2="-18"/>
	<line class="st0" x1="112" y1="4.7" x2="134.8" y2="-18"/>
	<path class="st0" d="M141.3-18"/>
	<path class="st0" d="M118.5,4.7"/>
</g>
<g>
	<defs>
		<rect id="SVGID_3_" x="-2.5" y="0" width="124.1" height="4.5"/>
	</defs>
	<clipPath id="SVGID_4_">
		<use xlink:href="#SVGID_3_"  style="overflow:visible;"/>
	</clipPath>
	<line class="st1" x1="-25.5" y1="4.7" x2="-2.7" y2="-18"/>
	<line class="st1" x1="-19" y1="4.7" x2="3.8" y2="-18"/>
	<line class="st1" x1="-12.5" y1="4.7" x2="10.3" y2="-18"/>
	<path class="st1" d="M16.8-18"/>
	<path class="st1" d="M-6,4.7"/>
	<line class="st1" x1="0.5" y1="4.7" x2="23.3" y2="-18"/>
	<line class="st1" x1="7" y1="4.7" x2="29.8" y2="-18"/>
	<line class="st1" x1="13.5" y1="4.7" x2="36.3" y2="-18"/>
	<line class="st1" x1="20" y1="4.7" x2="42.8" y2="-18"/>
	<line class="st1" x1="26.5" y1="4.7" x2="49.3" y2="-18"/>
	<line class="st1" x1="33" y1="4.7" x2="55.8" y2="-18"/>
	<line class="st1" x1="39.5" y1="4.7" x2="62.3" y2="-18"/>
	<line class="st1" x1="46" y1="4.7" x2="68.8" y2="-18"/>
	<line class="st1" x1="52.5" y1="4.7" x2="75.3" y2="-18"/>
	<line class="st1" x1="59" y1="4.7" x2="81.8" y2="-18"/>
	<line class="st1" x1="65.5" y1="4.7" x2="88.3" y2="-18"/>
	<line class="st1" x1="72" y1="4.7" x2="94.8" y2="-18"/>
	<line class="st1" x1="78.5" y1="4.7" x2="101.3" y2="-18"/>
	<line class="st1" x1="78.5" y1="4.7" x2="101.3" y2="-18"/>
	<line class="st1" x1="85" y1="4.7" x2="107.8" y2="-18"/>
	<line class="st1" x1="91.5" y1="4.7" x2="114.3" y2="-18"/>
	<line class="st1" x1="98" y1="4.7" x2="120.8" y2="-18"/>
	<line class="st1" x1="104.5" y1="4.7" x2="127.3" y2="-18"/>
	<line class="st1" x1="111" y1="4.7" x2="133.8" y2="-18"/>
	<path class="st1" d="M140.3-18"/>
	<path class="st1" d="M117.5,4.7"/>
</g>
</svg>
