<?xml version="1.0" encoding="utf-8"?>
<!-- Generator: Adobe Illustrator 19.0.0, SVG Export Plug-In . SVG Version: 6.00 Build 0)  -->
<svg version="1.1" id="Слой_1" xmlns="http://www.w3.org/2000/svg" xmlns:xlink="http://www.w3.org/1999/xlink" x="0px" y="0px"
	 viewBox="0 0 13.1 12.4" style="enable-background:new 0 0 13.1 12.4;" xml:space="preserve">
<style type="text/css">
	.st0{fill:#FFFFFF;}
	.st1{fill:#ACE6F5;}
</style>
<path id="XMLID_43_" class="st0" d="M5.5,1.8c-2.4,0-4.6,1-3.7,4.3C2.8,9.7,4.3,11,5.8,11c3.5,0,7.1-7,3.6-8.4
	C8.4,2.1,7,1.8,5.5,1.8L5.5,1.8z"/>
<path id="XMLID_1_" class="st1" d="M5.7,3.2c1.4,0,2.9,0.4,3.9,0.7c0.1,0.4-0.1,1.6-1,3.1C7.6,8.5,6.5,9.2,6,9.2
	c-0.4,0-1.4-1-2.2-4.2C3.5,4.1,3.6,3.7,3.6,3.6C3.7,3.6,4.2,3.2,5.7,3.2 M5.7,0.2c-3.1,0-6,1.3-4.9,5.6C2,10.5,4,12.2,6,12.2
	c4.6,0,9.3-9.2,4.8-11C9.5,0.7,7.5,0.2,5.7,0.2L5.7,0.2z"/>
</svg>
