<?xml version="1.0" encoding="utf-8"?>
<!-- Generator: Adobe Illustrator 19.0.0, SVG Export Plug-In . SVG Version: 6.00 Build 0)  -->
<svg version="1.1" id="Слой_1" xmlns="http://www.w3.org/2000/svg" xmlns:xlink="http://www.w3.org/1999/xlink" x="0px" y="0px"
	 viewBox="0 0 293.7 291.3" style="enable-background:new 0 0 293.7 291.3;" xml:space="preserve">
<style type="text/css">
	.st0{fill-rule:evenodd;clip-rule:evenodd;fill:none;stroke:#00BFF2;stroke-width:11;stroke-linecap:round;stroke-miterlimit:10;}
	.st1{fill-rule:evenodd;clip-rule:evenodd;fill:#00BFF2;}
	.st2{fill:#00BFF2;}
</style>
<path id="XMLID_18_" class="st0" d="M69.9,168.9c3.5-1.9,58.8-49,113,27"/>
<path id="XMLID_16_" class="st1" d="M187.4,123.9c6.9,0,12.5,5.6,12.5,12.5s-5.6,12.5-12.5,12.5c-6.9,0-12.5-5.6-12.5-12.5
	S180.5,123.9,187.4,123.9z"/>
<path id="XMLID_12_" class="st1" d="M69.4,110.9c6.9,0,12.5,5.6,12.5,12.5c0,6.9-5.6,12.5-12.5,12.5c-6.9,0-12.5-5.6-12.5-12.5
	C56.9,116.5,62.5,110.9,69.4,110.9z"/>
<path id="XMLID_8_" class="st2" d="M246.3,24C165.2-9.6-37.3-30.1,7.4,136.5C104,513.8,403.1,89.1,246.3,24z M27.3,137.4
	C-10.8-4.5,161.7,12.9,230.9,41.6C364.5,97,109.6,458.7,27.3,137.4z"/>
</svg>
