<?xml version="1.0" encoding="utf-8"?>
<!-- Generator: Adobe Illustrator 19.0.0, SVG Export Plug-In . SVG Version: 6.00 Build 0)  -->
<svg version="1.1" id="Layer_1" xmlns="http://www.w3.org/2000/svg" xmlns:xlink="http://www.w3.org/1999/xlink" x="0px" y="0px"
	 viewBox="216.3 -200.3 45.8 55.2" style="enable-background:new 216.3 -200.3 45.8 55.2;" xml:space="preserve">
<style type="text/css">
	.st0{fill:#FFFFFF;}
</style>
<g>
	<g>
		<path class="st0" d="M238.7-161.5h0.8v-1h-0.8V-161.5z M240.4-161.5h0.8v-1h-0.8V-161.5z M242.2-161.5h0.8v-1h-0.8V-161.5z
			 M243.8-161.5h0.8v-1h-0.8V-161.5z M245.6-161.5h0.8v-1h-0.8V-161.5z M247.2-161.5h0.8v-1h-0.8V-161.5z M245-189.5v-0.6
			c0.6-0.7,0.8-1.5,0.8-2.2c-0.1-1.2-1-2-1-2l-0.6-0.6c0.2-0.2,0.4-0.5,0.4-0.8c0-0.6-0.5-1.1-1.2-1.3v-2.5c0-0.2-0.2-0.4-0.4-0.4
			c-0.2,0-0.4,0.2-0.4,0.4v2.5c-0.7,0.1-1.2,0.7-1.2,1.3c0,0.4,0.1,0.6,0.4,0.8l-0.7,0.7c-0.7,0.7-1,1.4-1,2.1
			c0,0.8,0.5,1.5,0.8,1.9c-0.5-0.1-1-0.1-1.4-0.1c-12.1,0-22,10-22,22.2c0,4.2,1.2,8.2,3.2,11.5c0.2,0.3,0.4,0.5,0.5,0.8
			c0.1,0.2,0.2,0.3,0.3,0.4c0.4,0.5,0.7,1,1.1,1.5c0.8,1,1.8,2,2.9,2.8c0.4,0.3,0.7,0.5,1.1,0.8c0.9,0.7,1.8,1.3,2.8,1.7
			c0.2,0.1,0.5,0.3,0.8,0.4c1.1,0.5,2.2,0.9,3.3,1.3c0.2,0.1,0.5,0.1,0.8,0.2c0.4,0.1,0.8,0.2,1.2,0.2c0.3,0.1,0.5,0.1,0.8,0.1
			c0.4,0.1,0.8,0.1,1.2,0.1c0.3,0,0.5,0.1,0.8,0.1c0.4,0,0.8,0,1.1,0c0.2,0,0.5,0,0.8,0c0.7,0,1.2-0.1,1.8-0.1
			c0.4-0.1,0.8-0.1,1.2-0.2c0.4-0.1,0.7-0.1,1.1-0.2c0.4-0.1,0.8-0.2,1.1-0.3c0.7-0.2,1.4-0.4,2-0.7c0.3-0.1,0.5-0.2,0.8-0.4
			c0.8-0.4,1.5-0.7,2.3-1.2c1-0.6,2-1.3,2.9-2c1-0.8,2-1.8,2.9-2.8c0.2-0.2,0.4-0.5,0.7-0.8c0.2-0.3,0.4-0.5,0.6-0.8
			c2.4-3.6,3.9-7.9,3.9-12.6C261.3-178.3,254.4-186.9,245-189.5z M242.9-196.2c0.5,0,0.8,0.3,0.8,0.5c0,0.1-0.1,0.2-0.2,0.3
			c-0.1,0.1-0.4,0.2-0.7,0.2s-0.5-0.1-0.7-0.2c-0.1-0.1-0.2-0.2-0.2-0.3C242.1-196,242.5-196.2,242.9-196.2z M241.6-193.6l0.9-0.8
			c0.2,0.1,0.3,0.1,0.5,0.1s0.4,0,0.5-0.1l0.8,0.8c0,0,0.7,0.6,0.8,1.4c0.1,0.5-0.2,1.1-0.6,1.6h-2.9c-0.2-0.2-0.7-0.8-0.7-1.5
			C240.8-192.6,241-193.1,241.6-193.6z M252-177.5c-0.4,0-0.8-0.2-0.9-0.5c0-0.1-0.1-0.1-0.1-0.2c0-0.4,0.5-0.6,1-0.6
			c0.5,0,1,0.3,1,0.6c0,0.1,0,0.1,0,0.1C252.9-177.7,252.5-177.5,252-177.5z M252.8-175.6h-0.4h-0.6h-0.4l0.2-1.1v-0.1h0.1
			c0.1,0,0.2,0.1,0.4,0.1c0.1,0,0.2,0,0.3,0c0.1,0,0.1,0,0.2-0.1l0.1,0.3L252.8-175.6z M253-174.8l1.2,1.3l-0.5,0.5l-1.4-1.3
			c-0.2-0.1-0.4-0.1-0.5,0l-1.4,1.2l-0.6-0.5c0.4-0.5,0.8-0.9,1.1-1.3H253z M250.3-172.2c0.2,0.1,0.4,0.1,0.5,0l1.4-1.2l1.4,1.3
			c0.1,0.1,0.2,0.1,0.3,0.1s0.2-0.1,0.3-0.1l0.8-0.7l1,1.1c0.1,0.1,0.5,0.6,0.9,1.4l-1-0.9c-0.2-0.1-0.4-0.1-0.5,0l-1.3,1.3
			l-1.4-1.3c-0.2-0.1-0.4-0.1-0.5,0l-1.4,1.2l-1.5-1.2c-0.1-0.1-0.4-0.1-0.5,0l-1.1,0.6c0.2-0.4,0.5-0.8,0.8-1.2
			c0.4-0.4,0.7-0.8,1-1.1L250.3-172.2z M249.4-155.8c-1,0-1.4,0.7-1.5,1.3h-0.4c0.1-0.4,0.2-1,0.6-1.4c0.4-0.4,0.8-0.5,1.4-0.5
			s1.1,0.2,1.4,0.5c0.4,0.4,0.5,1,0.5,1.4h-0.5C250.7-155.1,250.3-155.8,249.4-155.8z M250-154.5h-1.4c0.1-0.2,0.3-0.5,0.7-0.5
			C249.8-155,250-154.7,250-154.5z M242.9-152.2h-0.4h-0.3c0.1-0.3,0.2-0.7,0.2-1h1h2h1.2l0.2,1H242.9z M246.9-151.3l-0.5,1.1
			l-0.5-1.1H246.9z M245.3-150.9l0.6,1.3h-1.2L245.3-150.9z M244.1-150.2l-0.5-1.1h1.1L244.1-150.2z M240.4-156.9l0.1,0.1
			c0.1,0.1,0.6,0.6,1,1.5l-0.8,1l-1.2-1.4L240.4-156.9z M240.2-158.4h0.1c0.4,0,0.6,0.3,0.6,0.6v0.2L240.2-158.4z M241.7-154.3
			c0.1,0.4,0.1,0.8,0,1.3l-0.5-0.7L241.7-154.3z M238.8-156.3l-1.2-1.3l1.1-1.2l1.2,1.3L238.8-156.3z M238.3-155.7l-1.4,1.6
			l-1.2-1.4l1.4-1.6L238.3-155.7z M238.3-160.7l-0.3-1.6c0.3-0.2,0.5-0.6,0.5-1v-0.1h10h0.1v0.1v0.1v0.1v2.3L238.3-160.7z
			 M238.8-165.8c0.4-0.4,0.8-0.5,1.4-0.5s1.1,0.2,1.4,0.5c0.5,0.5,0.6,1.4,0.6,1.7h-0.4c-0.1-0.6-0.4-1.6-1.5-1.6s-1.5,1-1.6,1.6
			h-0.4v0.1c0,0-0.1,0-0.1-0.1h0.1C238.2-164.4,238.3-165.2,238.8-165.8z M238.4-166.4c0.1-0.1,0.1-0.2,0.1-0.2
			c0.1-0.1,0.1-0.1,0.1-0.1c0.1,0,0.1,0,0.1,0C238.6-166.6,238.5-166.5,238.4-166.4z M239.6-168.8c0.1-0.2,0.3-0.5,0.7-0.5
			c0.2,0,0.3,0.1,0.4,0.2c0.2,0.2,0.4,0.8,0.4,1.1c-0.1,0.1-0.2,0.3-0.4,0.5C240.6-168.1,240.1-168.5,239.6-168.8z M240.9-164.1
			h-1.5c0.1-0.2,0.2-0.8,0.8-0.8C240.7-164.9,240.9-164.3,240.9-164.1z M242.3-166.1c0-0.1,0.1-0.4,0.2-0.5c0.1-0.1,0.2-0.1,0.4-0.1
			c0.2,0,0.3,0.1,0.4,0.1c0.1,0.1,0.2,0.4,0.2,0.5c-0.3,0.4-0.5,0.9-0.5,1.3C242.8-165.2,242.7-165.6,242.3-166.1z M244.9-164.1
			c0.1-0.2,0.2-0.8,0.8-0.8c0.6,0,0.7,0.6,0.8,0.8H244.9z M247.2-164.1c-0.1-0.6-0.4-1.6-1.5-1.6c-1.1,0-1.5,1-1.6,1.6h-0.4
			c0-0.3,0.1-1.1,0.6-1.7c0.4-0.4,0.8-0.5,1.4-0.5s1.1,0.2,1.4,0.5c0.5,0.5,0.6,1.4,0.6,1.7H247.2z M244.5-168.4
			c0-0.2,0.1-0.6,0.3-0.8c0.1-0.1,0.3-0.2,0.5-0.2c0.2,0,0.3,0.1,0.4,0.2c0.1,0.1,0.2,0.3,0.2,0.5c-0.5,0.2-0.8,0.5-1,1
			C244.9-168,244.7-168.2,244.5-168.4z M245.6-167.1c0.1-0.3,0.3-0.7,0.8-1c0,0,0,0,0.1,0c0.1,0.4,0.2,0.8,0.3,1.1
			C246.4-167,246-167.1,245.6-167.1z M246.5-169.7c0,0.1,0,0.1,0,0.1c-0.1-0.1-0.1-0.1-0.2-0.2c-0.2-0.3-0.6-0.4-1-0.4
			s-0.8,0.2-1.1,0.4c-0.2,0.3-0.4,0.7-0.5,1c-0.1-0.1-0.2-0.1-0.4-0.1c0.1-0.4,0.2-0.9,0.6-1.3c0.4-0.4,0.8-0.5,1.4-0.5
			c0.5,0,1,0.2,1.4,0.5C246.6-170.1,246.6-169.9,246.5-169.7z M244.5-166.9c-0.1,0.1-0.2,0.1-0.4,0.2c-0.1-0.2-0.2-0.4-0.3-0.5
			c-0.2-0.2-0.6-0.4-1-0.4c-0.4,0-0.7,0.1-1,0.4c-0.1,0.1-0.2,0.3-0.3,0.5c-0.1-0.1-0.2-0.1-0.4-0.2c0.2-0.5,0.7-1.3,1.7-1.3
			C243.9-168.2,244.4-167.4,244.5-166.9z M241.9-168.7c-0.1-0.4-0.2-0.7-0.5-1c-0.2-0.3-0.6-0.4-1-0.4c-0.9,0-1.3,0.6-1.5,1.2
			c-0.1,0-0.1,0-0.2,0s-0.2,0-0.2,0c0.1-0.4,0.2-0.8,0.5-1.2c0.4-0.4,0.8-0.5,1.4-0.5c0.6,0,1.1,0.2,1.4,0.5
			c0.4,0.4,0.5,0.9,0.5,1.3C242.2-168.8,242-168.8,241.9-168.7z M238.7-168.2c0.9,0,1.3,0.6,1.5,1.1c-0.2,0-0.4,0-0.5,0.1
			c-0.2-0.2-0.5-0.5-1.1-0.5c-0.2,0-0.5,0.1-0.7,0.3c-0.6,0.6-0.7,2-0.7,2.6c-0.1,0-0.1,0-0.1-0.1v-2
			C237.2-166.7,237.3-168.2,238.7-168.2z M237.7-163.2c0,0.1,0,0.1,0,0.1c-0.1,0.3-0.5,0.5-1,0.5c-0.4,0-0.8-0.2-0.9-0.5
			c0-0.1-0.1-0.1-0.1-0.2c0-0.4,0.5-0.6,1-0.6C237.2-163.8,237.7-163.5,237.7-163.2z M237.5-160.7H237h-0.6h-0.4l0.2-1.1v-0.1h0.1
			c0.1,0,0.2,0.1,0.4,0.1s0.2,0,0.3,0c0.1,0,0.1,0,0.2-0.1l0.1,0.3L237.5-160.7z M237.8-159.8l0.4,0.4l-1.1,1.2l-1.4-1.6H237.8z
			 M236.6-157.6l-1.4,1.5l-1.4-1.6c0.5-0.6,0.9-1.1,1.3-1.5L236.6-157.6z M234.7-155.5l-1.2,1.4c-0.6-0.7-1-1.1-1.2-1.4
			c0.2-0.5,0.5-0.9,0.9-1.4c0.1-0.1,0.1-0.2,0.2-0.2L234.7-155.5z M232.9-153.4l-0.8,0.9c-0.2-0.6-0.3-1.3-0.1-2
			C232.2-154.3,232.5-153.9,232.9-153.4z M233.4-152.8c0.4,0.5,0.8,1,1.2,1.4l-0.5,0.5h-1.1c-0.1-0.2-0.4-0.5-0.6-0.9L233.4-152.8z
			 M233.9-153.4l1.2-1.4l1.2,1.4l-1.2,1.5C234.7-152.5,234.3-153,233.9-153.4z M236.9-152.8l1.2,1.4l-0.5,0.6h-1.5
			c-0.1-0.2-0.3-0.4-0.4-0.5L236.9-152.8z M237.5-153.4l1.4-1.6l1.2,1.4l-1.4,1.7L237.5-153.4z M240.6-153.1l0.8,1
			c-0.2,0.4-0.4,0.9-0.8,1.3h-1l-0.5-0.6L240.6-153.1z M241.2-150.1c0.4-0.4,0.6-0.8,0.8-1.2h0.3l-1,1.8h-0.5L241.2-150.1z
			 M242.9-150.9l0.6,1.3h-1.2L242.9-150.9z M243.9-153.9v-3.8c0-0.4,0.3-0.6,0.6-0.6s0.6,0.3,0.6,0.6v3.8H243.9z M246.6-154v0.1
			h-0.7v-3.8c0-0.8-0.7-1.4-1.4-1.4s-1.4,0.7-1.4,1.4v3.8h-0.5c-0.1-1-0.4-1.9-0.8-2.5v-1.3c0-0.8-0.7-1.4-1.4-1.4h-0.2
			c-0.2,0-0.3,0-0.5,0.1c0,0-0.1,0.1-0.1,0.1l-0.8-0.8h9.8v1.4H248c-0.2,0-0.4,0.1-0.4,0.3l-0.5,1.9
			C246.5-155.2,246.6-154.1,246.6-154z M251.3-156.3c-0.5-0.5-1.2-0.8-2-0.8c-0.4,0-0.8,0.1-1.1,0.2l0.2-0.6h0.7h1.9h2.1h1.9h0.5
			l0.2,0.5c-0.3-0.1-0.6-0.1-1-0.1c-0.8,0-1.5,0.2-2,0.8c-0.5,0.5-0.7,1.1-0.8,1.6C251.9-155.2,251.7-155.8,251.3-156.3z M252-162.1
			c-0.8,0-1.5,0.7-1.5,1.5v2.2h-1.1v-4.4h5.2v4.4h-1.1v-2.2C253.5-161.4,252.9-162.1,252-162.1z M252.7-160.6v2.2h-1.4v-2.2
			c0-0.4,0.3-0.7,0.7-0.7C252.3-161.3,252.7-161,252.7-160.6z M254.8-163.5h-5.5l-0.5-1.4h6.7L254.8-163.5z M248.3-165.7
			c-0.1-0.2-0.4-0.5-0.6-1l1-0.8l1.5,1.2c0.2,0.1,0.4,0.1,0.5,0l1.4-1.2l1.4,1.3c0.1,0.1,0.2,0.1,0.3,0.1c0.1,0,0.2-0.1,0.3-0.1
			l1.4-1.3l1.1,0.9c-0.1,0.2-0.4,0.5-0.5,0.8H248.3z M255.7-168.3c-0.2-0.1-0.4-0.1-0.5,0l-1.3,1.3l-1.4-1.3c-0.2-0.1-0.4-0.1-0.5,0
			l-1.4,1.2l-1.5-1.2c-0.1-0.1-0.4-0.1-0.5,0l-1.1,0.8c-0.2-0.5-0.2-1.1-0.2-1.8l1.5-1.1l1.5,1.2c0.2,0.1,0.4,0.1,0.5,0l1.4-1.2
			l1.4,1.3c0.2,0.1,0.4,0.1,0.5,0l1.4-1.3l1.6,1.4c0.1,0.5,0,1.1-0.2,1.6L255.7-168.3z M247-171.1c-0.5-0.3-1-0.5-1.7-0.5
			c-0.8,0-1.5,0.2-2,0.8c-0.2,0.2-0.4,0.5-0.5,0.8c-0.1-0.2-0.2-0.5-0.5-0.7c-0.5-0.5-1.2-0.8-2-0.8s-1.5,0.2-2,0.8
			c-0.1,0.1-0.1,0.2-0.2,0.2v-2.2h2.8h3.8h3l0.1,0.5C247.5-171.8,247.2-171.4,247-171.1z M241.8-186.4L241.8-186.4l0.8,0.1h0.6h0.8
			h0.1v0.2v1.6h-0.3H242h-0.3v-1.5v-0.4H241.8z M241.7-187.1v-1.9v-0.8h2h0.5v0.1v1.1v1.4h-0.4H243h-0.1h-0.8H241.7z M241.7-183.6
			h0.7v6.4l-1.5,3.1l-1.4-3.2L241.7-183.6z M242.9-176.2l1.2,2.6h-2.5L242.9-176.2z M240.4-173.5h-2l0.9-2.7L240.4-173.5z
			 M245.4-173.5l1.2-3.1l1,3.1H245.4z M244.7-174.1l-1.4-3.1v-6.4h0.9l2,5.9L244.7-174.1z M230-167.1c-0.1,0.4-0.4,0.7-0.7,1.1
			c-2.1-2.8-3.7-7.3-4.2-8.8h1.1C226.8-173.6,228.9-168.6,230-167.1z M227.9-173.1l1.2,1.4c0.1,0.1,1.5,1.6,1.2,3.6
			C229.6-169.3,228.7-171.4,227.9-173.1z M225-175.6h-0.4l0.2-1.1v-0.1h0.1c0.1,0,0.2,0.1,0.4,0.1s0.2,0,0.3,0c0.1,0,0.1,0,0.2-0.1
			l0.1,0.3l0.2,0.9h-0.4H225z M226.3-178c-0.1,0.3-0.5,0.5-1,0.5c-0.4,0-0.8-0.2-0.9-0.5c0-0.1-0.1-0.1-0.1-0.2c0-0.4,0.4-0.6,1-0.6
			c0.5,0,1,0.3,1,0.6C226.3-178.1,226.3-178.1,226.3-178z M228.5-165.7h-0.8c-2-2.3-3.9-8.5-3.9-8.5c0.1-0.2,0.3-0.3,0.4-0.5
			C224.7-173.6,226.3-168.8,228.5-165.7z M226.8-165.7h-1.5c-1.6-2.8-2.7-6-2.9-6.8c0.3-0.4,0.6-0.7,0.9-1
			C223.7-172.2,225.2-168.1,226.8-165.7z M224.3-165.7h-0.7c-1.1-1.4-2.1-4.7-2.4-5.5c0.1-0.2,0.3-0.4,0.5-0.6
			C222.1-170.6,223-168.1,224.3-165.7z M222.7-165.7h-1.1c-0.4-0.5-1.7-2.3-0.8-4.4C221.1-169,221.8-167,222.7-165.7z M228.7-164.9
			l-0.7,1.4h-5.5l-0.5-1.4H228.7z M225.3-162.1c-0.8,0-1.5,0.7-1.5,1.5v2.2h-1.1v-4.4h5.2v4.4h-1.1v-2.2
			C226.8-161.4,226.1-162.1,225.3-162.1z M226-160.6v2.2h-1.4v-2.2c0-0.4,0.3-0.7,0.7-0.7C225.7-161.3,226-161,226-160.6z
			 M222.3-157.6h1.9h2.1h1.9h0.5l0.2,0.5c-0.3-0.1-0.6-0.1-1-0.1c-0.8,0-1.5,0.2-2,0.8c-0.5,0.5-0.7,1.1-0.8,1.6
			c-0.1-0.5-0.3-1.1-0.7-1.6c-0.5-0.5-1.2-0.8-2-0.8c-0.4,0-0.8,0.1-1.1,0.2l0.2-0.6H222.3z M228.1-155.8c-1,0-1.4,0.7-1.5,1.3h-0.4
			c0.1-0.4,0.2-1,0.6-1.4c0.4-0.4,0.8-0.5,1.4-0.5c0.6,0,1.1,0.2,1.4,0.5c0.4,0.4,0.5,1,0.5,1.4h-0.5
			C229.5-155.1,229.1-155.8,228.1-155.8z M228.8-154.5h-1.4c0.1-0.2,0.3-0.5,0.7-0.5C228.5-155,228.7-154.7,228.8-154.5z
			 M222.8-154.9c0.2,0.1,0.4,0.3,0.4,0.5C223.1-154.6,223-154.8,222.8-154.9z M222.6-155.8c-0.1,0-0.3,0-0.4,0.1
			c-0.1-0.2-0.2-0.3-0.4-0.5c0.2-0.1,0.5-0.1,0.7-0.1c0.6,0,1.1,0.2,1.4,0.5c0.4,0.4,0.5,1,0.5,1.4h-0.5
			C224-155.1,223.6-155.8,222.6-155.8z M229.2-149.5c-0.3-0.2-0.6-0.4-0.9-0.5h0.9V-149.5z M229.3-150.8h-2.1
			c-1.1-0.8-2.2-1.8-3.2-2.8h6.1L229.3-150.8z M233.3-147.7c-1.1-0.4-2.3-0.8-3.3-1.3v-1.3l0.9-3.6v-0.1c0-0.1,0.1-1.3-0.7-2.2
			l-0.7-1.9c-0.1-0.2-0.2-0.2-0.4-0.2h-0.4v-4.7l1.1-2c3.2-3.7,0-7.2-0.1-7.2l-2.8-3.1l-0.4-1.8c0.3-0.2,0.5-0.6,0.5-1
			c0-0.7-0.6-1.3-1.4-1.4v-2.3c0-0.2-0.2-0.4-0.4-0.4s-0.4,0.2-0.4,0.4v2.3c-0.8,0.1-1.4,0.7-1.4,1.4c0,0.4,0.2,0.8,0.6,1.1
			l-0.4,1.7c-0.7,0.7-1.5,1.7-2.6,3.1c-3,3.5-0.4,6.7-0.1,7.2l0.8,2v4.6h-0.6c-0.2,0-0.4,0.1-0.4,0.3v0.1c-1.6-3-2.5-6.4-2.5-10
			c0-11.7,9.4-21.2,20.9-21.2c0.5,0,1.1,0,1.5,0.1v2.3v2.7c0,0.1,0.1,0.2,0.1,0.2l-3.6,10.6c0,0.1,0,0.1,0,0.1v4.5
			c-0.6,0.4-0.9,1.1-1,1.6c0,0.1-0.1,0.2-0.1,0.3v2c-0.8,0.1-1.4,0.7-1.4,1.4c0,0.4,0.2,0.8,0.6,1.1l-0.4,1.7
			c-0.7,0.7-1.5,1.7-2.6,3.1c-3,3.5-0.4,6.7-0.1,7.2l0.8,2V-147.7z M239.3-146.8c-0.6,0-1.2-0.1-1.8-0.1c-0.4-0.1-0.8-0.1-1.2-0.1
			c-0.7-0.1-1.4-0.2-2.1-0.4v-0.3h5.2V-146.8z M239.4-148.6H234l-0.5-1.3h6.7L239.4-148.6z M247.3-148.4c-2.3,1-4.7,1.5-7.3,1.6
			v-1.3l0.3-0.6h7V-148.4z M247.3-149.5H247l0.3-0.7V-149.5z M248.2-148.8v-1.2h2.1C249.6-149.6,248.9-149.2,248.2-148.8z
			 M251.5-150.8H248l-0.2-0.8l-0.5-2h7.3C253.7-152.6,252.6-151.6,251.5-150.8z M255.4-154.5h-1.2c0.1-0.2,0.3-0.5,0.7-0.5
			c0.4,0,0.5,0.2,0.7,0.4c0,0.1,0.1,0.1,0.1,0.1H255.4z M256-155.2c-0.2-0.3-0.6-0.6-1.2-0.6c-1,0-1.4,0.7-1.5,1.3h-0.4
			c0.1-0.4,0.2-1,0.6-1.4c0.4-0.4,0.8-0.5,1.4-0.5s1.1,0.2,1.4,0.5c0.1,0.1,0.1,0.1,0.1,0.1C256.2-155.5,256.1-155.4,256-155.2z
			 M256.8-156.4l-0.7-1.6c-0.1-0.2-0.2-0.2-0.4-0.2h-0.4v-4.7l1.1-2c3.2-3.7,0-7.2-0.1-7.2l-2.8-3.1l-0.4-1.8c0.3-0.2,0.5-0.6,0.5-1
			c0-0.7-0.6-1.3-1.4-1.4v-2.3c0-0.2-0.2-0.4-0.4-0.4c-0.2,0-0.4,0.2-0.4,0.4v2.3c-0.8,0.1-1.4,0.7-1.4,1.4c0,0.4,0.2,0.8,0.6,1.1
			l-0.4,1.7c-0.5,0.5-1.1,1.3-2,2.2v-0.1l-1.5-4.6l-2-6c0-0.1,0.1-0.1,0.1-0.2v-2.7v-1.6c8.8,2.5,15.3,10.6,15.3,20.3
			C260.2-163.7,259-159.8,256.8-156.4z"/>
	</g>
</g>
</svg>
