<?xml version="1.0" encoding="utf-8"?>
<!-- Generator: Adobe Illustrator 19.0.0, SVG Export Plug-In . SVG Version: 6.00 Build 0)  -->
<svg version="1.1" id="Слой_1" xmlns="http://www.w3.org/2000/svg" xmlns:xlink="http://www.w3.org/1999/xlink" x="0px" y="0px"
	 viewBox="0 0 65.5 64.5" style="enable-background:new 0 0 65.5 64.5;" xml:space="preserve">
<style type="text/css">
	.st0{clip-path:url(#SVGID_2_);fill:#00bdf2;}
	.st1{clip-path:url(#SVGID_4_);fill:#00bdf2;}
</style>
<g>
	<defs>
		<rect id="SVGID_1_" x="0.2" y="0.4" width="64.4" height="63.9"/>
	</defs>
	<clipPath id="SVGID_2_">
		<use xlink:href="#SVGID_1_"  style="overflow:visible;"/>
	</clipPath>
	<path class="st0" d="M33,4.4c0,0,15.2,4.6,18.1,6.2c3,1.6,7.9,4.5,10.2,8.1c-2.1-6-7.3-9.9-14.3-11.6C43.4,6.2,33,4.4,33,4.4"/>
	<path class="st0" d="M18.8,0.4c-11,0-20.3,9.8-18.3,21.5l3.9,23.2c1.2,7.3,6.3,12.5,12.5,14.5c-2.6-2.3-5.3-5.3-6.9-9
		c-2.9-6.8-6.9-23.4-6.9-23.4C-1.4,14.9,8,2.4,20.5,2.4c1.1,0,2.2,0.1,3.3,0.3l8.3,1.4l-6.7-2.5C23.2,0.7,21,0.4,18.8,0.4"/>
	<path class="st0" d="M61.6,19c2,5.8,1.2,12.5-3.3,17.9l-3.4,4v5.6l4.4-4.3C65.9,35.6,66.1,25.9,61.6,19"/>
	<path class="st0" d="M48.2,48.7c0,0-4.2,4.5-5.6,6C35.9,61.5,30.3,62.9,23,61c0,0-4.2-0.7-6.1-1.4c3.4,3,7.9,4.6,12.4,4.6
		c4.6,0,9.4-1.7,13.1-5.4l8-7.9C49.4,50.4,48.7,49.7,48.2,48.7"/>
	<path class="st0" d="M38.8,51.4h-1.6c-1.5,0-2.7-1.2-2.7-2.6c-2.3,2.3-5.6,3.4-8.9,3.4c-6.1,0-9.8-3.1-9.8-8.3c0-7.2,6.6-8,12-8.7
		c4.9-0.6,6.7-1.1,6.7-3.3c0-2.5-1.6-3.7-5-3.7c-3.5,0-4.9,1.1-5.4,4.2h-7.1c0.4-6.1,4.8-9.2,12.8-9.2c0.1,0,5.4,0,5.4,0v-9.6h7.6
		v9.6h1.7c1.5-0.1,2.8-1.4,2.8-2.9v-3.6h7.5v6.6h4.3v5.1h-0.8c-1.9,0-3.5,1.6-3.5,3.5v7.7c8.1-8.7,6.2-23.3-4.6-27.7
		C44.9,9.6,28,5.2,28,5.2c-1.7-0.4-3.3-0.7-4.9-0.7C11.3,4.5,1.9,15.7,5.1,27.8l5,18.6l1.1,2.9c5.2,15.3,19.9,9.9,23.4,7l6-4.9H38.8
		"/>
</g>
<g>
	<defs>
		<rect id="SVGID_3_" x="0.2" y="0.2" width="65" height="64"/>
	</defs>
	<clipPath id="SVGID_4_">
		<use xlink:href="#SVGID_3_"  style="overflow:visible;"/>
	</clipPath>
	<path class="st1" d="M42.8,28.4v21.2l4.6-3.8c-0.1-0.7-0.1-1.6-0.1-2.5v-15H42.8"/>
	<path class="st1" d="M23.6,43.7c0,2.3,1.5,3.7,4.2,3.7c4,0,6.7-2.2,6.7-6.1v-3.1c-1.8,1-3.4,1.1-5.3,1.4
		C26.6,40,23.6,40.3,23.6,43.7"/>
</g>
</svg>
