<?xml version="1.0" encoding="utf-8"?>
<!-- Generator: Adobe Illustrator 19.0.0, SVG Export Plug-In . SVG Version: 6.00 Build 0)  -->
<svg version="1.1" id="Слой_1" xmlns="http://www.w3.org/2000/svg" xmlns:xlink="http://www.w3.org/1999/xlink" x="0px" y="0px"
	 viewBox="0 0 105 370" style="enable-background:new 0 0 105 370;" xml:space="preserve">
<style type="text/css">
	.st0{fill:#F0002F;}
	.st1{fill:#FFFFFF;}
</style>
<polygon id="XMLID_50_" class="st0" points="105.1,318 0,318.1 0,-6.1 105.1,-6.1 "/>
<g id="XMLID_51_">
	<path id="XMLID_26_" class="st1" d="M71.2,269.1c26.2,10.3,39,39.9,28.7,66.1s-39.9,39-66.1,28.7s-39-39.9-28.7-66.1
		S45,258.8,71.2,269.1z"/>
	<path id="XMLID_49_" class="st0" d="M71.7,267.7L71.7,267.7L71.7,267.7c13.5,5.3,23.5,15.6,28.8,27.9s6,26.7,0.7,40.1l0,0l0,0
		c-5.3,13.5-15.6,23.5-27.9,28.8s-26.7,6-40.1,0.7l0,0l0,0l0,0C19.7,360,9.7,349.7,4.4,337.4c-5.3-12.3-6-26.7-0.7-40.1l0,0l0,0
		c5.3-13.5,15.6-23.5,27.9-28.8C43.9,263,58.3,262.4,71.7,267.7L71.7,267.7L71.7,267.7L71.7,267.7z M70.6,270.6L70.6,270.6
		L70.6,270.6c-12.7-5-26.2-4.4-37.8,0.6s-21.3,14.5-26.3,27.2l0,0l0,0l0,0c-5,12.7-4.4,26.2,0.6,37.8c5,11.6,14.5,21.3,27.2,26.3
		l0,0l0,0c12.7,5,26.2,4.4,37.8-0.6s21.3-14.5,26.3-27.2l0,0l0,0l0,0l0,0c5-12.7,4.4-26.2-0.6-37.8
		C92.7,285.2,83.3,275.6,70.6,270.6z"/>
	<path class="st0" d="M27.5,341.8l3.7,2.6l-0.9,1.3l0,0c0.5-0.3,1-0.4,1.6-0.4c0.6,0,1.1,0.1,1.5,0.4c0.3,0.2,0.5,0.4,0.6,0.5
		c0.1,0.2,0.2,0.4,0.3,0.6l-1.9,1.9c0.1-1-0.1-1.8-0.7-2.2c-0.4-0.3-0.8-0.3-1.3-0.1c-0.5,0.2-0.9,0.5-1.3,1l-3.4,4.9l-2.7-1.8
		l4.7-6.7c0.3-0.4,0.4-0.8,0.3-1.1C28,342.3,27.8,342,27.5,341.8L27.5,341.8z"/>
	<path class="st0" d="M32.3,350.9c-0.6,1.5-0.6,2.9,0,4.1c0.6,1.2,1.7,2.1,3.2,2.7c0.8,0.3,1.5,0.4,2.3,0.5c0.8,0,1.5-0.1,2.1-0.3
		c0.6-0.2,1.3-0.6,1.8-1.1s1-1.2,1.2-1.9c0.6-1.5,0.6-2.9-0.1-4.1c-0.6-1.2-1.8-2.2-3.3-2.7c-1-0.4-2-0.5-2.9-0.4
		c-1,0.1-1.8,0.4-2.6,1C33.3,349.1,32.7,349.9,32.3,350.9L32.3,350.9z"/>
	<path class="st1" d="M35.8,351.9c0.1-0.3,0.3-0.6,0.4-0.9s0.3-0.6,0.6-1c0.2-0.4,0.5-0.6,0.7-0.9c0.2-0.2,0.5-0.4,0.8-0.5
		s0.7-0.1,1,0.1c1.2,0.5,1.3,2.1,0.2,4.9c-0.1,0.3-0.3,0.6-0.4,0.9c-0.1,0.3-0.3,0.6-0.6,1c-0.2,0.4-0.5,0.7-0.7,1
		c-0.3,0.3-0.5,0.4-0.9,0.6c-0.3,0.1-0.7,0.1-1,0c-0.2-0.1-0.4-0.2-0.5-0.3c-0.1-0.1-0.3-0.3-0.3-0.4c-0.1-0.2-0.1-0.4-0.1-0.6
		s0-0.4,0-0.6s0-0.4,0.1-0.7c0.1-0.3,0.1-0.5,0.2-0.7c0.1-0.2,0.1-0.4,0.2-0.7s0.2-0.5,0.2-0.6C35.7,352.3,35.7,352.1,35.8,351.9
		L35.8,351.9z"/>
	<path class="st0" d="M43.2,354.8c0.2-1.5,0.8-2.7,1.8-3.6s2.4-1.2,4-1c1,0.1,1.9,0.3,2.7,0.7c0.8,0.4,1.4,0.8,1.9,1.5l-0.8,7.9
		c-0.1,0.8-0.3,1.4-0.6,2s-0.8,1-1.3,1.3s-1.1,0.6-1.8,0.7s-1.4,0.1-2.2,0.1c-0.9-0.1-1.7-0.3-2.3-0.7c-0.7-0.4-1.2-1-1.5-1.6
		c0.8,0.4,1.8,0.7,2.9,0.8c1,0.1,1.9-0.1,2.5-0.5s1-1.1,1.1-2V360c-0.8,0.2-1.6,0.3-2.4,0.2c-1.4-0.1-2.4-0.7-3.1-1.6
		C43.3,357.4,43.1,356.2,43.2,354.8L43.2,354.8z"/>
	<path class="st1" d="M46.4,354.9c-0.3,2.5,0.3,3.9,1.7,4.1c0.6,0.1,1.1,0,1.5-0.2l0.6-5.8c0.1-0.6,0-1-0.3-1.4
		c-0.3-0.3-0.6-0.5-1.1-0.6c-0.3,0-0.6,0-0.8,0.1s-0.4,0.3-0.7,0.5c-0.2,0.3-0.4,0.7-0.6,1.2C46.6,353.5,46.5,354.1,46.4,354.9
		L46.4,354.9z"/>
	<path class="st0" d="M52.7,351c0.4,0,0.7,0.1,1,0.3s0.4,0.6,0.5,1l1.3,8.1l3.2-0.5l-1-5.9c-0.1-0.6,0-1.1,0.2-1.6s0.6-0.8,1-0.9
		c0.8-0.1,1.5,0.3,2.1,1.1v-2.7c-0.3-0.1-0.5-0.2-0.6-0.3c-0.2,0-0.4,0-0.8,0c-0.5,0.1-1,0.3-1.3,0.7c-0.4,0.4-0.7,0.9-0.8,1.4l0,0
		l-0.3-1.6L52.7,351L52.7,351z"/>
	<path class="st0" d="M62,355.2c-0.5-1.5-0.5-2.9,0.1-4.2c0.6-1.3,1.7-2.3,3.2-2.8c0.5-0.2,0.9-0.3,1.4-0.4c0.4-0.1,0.9-0.1,1.4-0.1
		s0.9,0.1,1.3,0.4s0.6,0.6,0.8,1.1c0.1,0.3,0.1,0.7,0.1,1c-0.1,0.3-0.2,0.7-0.3,1c-0.2,0.3-0.4,0.6-0.7,0.9
		c-0.3,0.3-0.6,0.6-0.9,0.8c-0.3,0.2-0.6,0.5-1,0.7s-0.7,0.4-1,0.6s-0.6,0.3-0.9,0.5c0.4,0.8,0.9,1.4,1.6,1.7
		c0.7,0.3,1.5,0.3,2.3-0.1c0.5-0.2,1-0.5,1.5-0.8c0.5-0.4,0.8-0.8,1.1-1.3c0,0.4-0.1,0.7-0.2,1c-0.5,1.4-1.7,2.4-3.5,3.1
		c-1.4,0.5-2.7,0.5-3.8,0C63.3,357.6,62.5,356.6,62,355.2L62,355.2z"/>
	<path class="st1" d="M64.7,353.3c0.1,0.2,0.1,0.4,0.2,0.5c0.6-0.3,1.1-0.6,1.5-1s0.7-0.8,0.8-1.2c0.1-0.4,0-1-0.2-1.5
		c-0.1-0.4-0.4-0.7-0.7-0.9c-0.3-0.2-0.7-0.3-1.1-0.1c-0.3,0.1-0.5,0.3-0.7,0.6c-0.2,0.3-0.3,0.6-0.3,0.8c0,0.3,0,0.6,0,1
		s0.1,0.7,0.2,1C64.5,352.8,64.6,353.1,64.7,353.3L64.7,353.3z"/>
	<path class="st0" d="M73.9,355c1.3-0.2,2.5-0.6,3.5-1.2c1.1-0.7,1.9-1.5,2.2-2.4c0.3-0.9,0.2-1.8-0.3-2.7c-0.3-0.4-0.6-0.8-0.9-1
		c-0.4-0.3-0.8-0.4-1.1-0.4c-0.4-0.1-0.8-0.1-1.2-0.1c-0.4,0-0.8,0.1-1.2,0.1c-0.4,0.1-0.8,0.1-1.1,0.1c-0.3,0-0.6,0-0.9-0.1
		s-0.4-0.2-0.6-0.4c-0.2-0.3-0.2-0.5-0.1-0.8s0.4-0.5,0.7-0.8c0.6-0.3,1.1-0.5,1.7-0.4s1.1,0.4,1.7,0.8l-0.9-2.3
		c-0.9,0.1-1.9,0.4-3,1.1c-0.4,0.3-0.9,0.6-1.2,0.9c-0.3,0.3-0.6,0.7-0.8,1.1c-0.2,0.4-0.3,0.8-0.3,1.3c0,0.4,0.2,0.9,0.4,1.3
		c0.3,0.4,0.5,0.7,0.9,1c0.4,0.2,0.7,0.4,1.1,0.4c0.4,0.1,0.8,0.1,1.2,0.1c0.4,0,0.8,0,1.2-0.1s0.8-0.1,1.1-0.1c0.3,0,0.6,0,0.9,0.1
		s0.5,0.3,0.6,0.5c0.2,0.3,0.2,0.7,0.1,1s-0.4,0.6-0.9,0.9c-0.4,0.3-0.8,0.4-1.3,0.5c-0.4,0.1-0.8,0.1-1.2-0.1s-0.7-0.3-1.1-0.4
		c-0.3-0.2-0.6-0.4-0.9-0.7L73.9,355L73.9,355z"/>
	<path class="st0" d="M82.1,350l-1.9-2.4c0.3,0.2,0.7,0.4,1,0.5s0.7,0.2,1.1,0.2s0.8,0,1.2-0.2c0.4-0.1,0.8-0.4,1.2-0.7
		c0.4-0.3,0.6-0.7,0.7-1.1s0-0.7-0.3-1c-0.2-0.2-0.4-0.3-0.7-0.4c-0.3-0.1-0.6,0-0.9,0.1s-0.7,0.2-1.1,0.3s-0.8,0.2-1.2,0.3
		c-0.4,0.1-0.8,0.1-1.2,0.2s-0.8-0.1-1.2-0.2c-0.4-0.2-0.8-0.4-1.1-0.8c-0.3-0.4-0.6-0.8-0.7-1.2s-0.1-0.9,0-1.3s0.3-0.8,0.6-1.2
		c0.3-0.4,0.6-0.8,1-1.1c0.9-0.8,1.8-1.3,2.7-1.6l1.3,2c-0.6-0.4-1.2-0.5-1.8-0.5c-0.6,0-1.1,0.3-1.6,0.7c-0.3,0.3-0.5,0.6-0.6,0.9
		s0,0.6,0.2,0.8c0.2,0.2,0.4,0.3,0.6,0.3c0.3,0,0.6,0,0.9-0.1s0.7-0.2,1.1-0.3c0.4-0.1,0.8-0.2,1.2-0.3c0.4-0.1,0.8-0.1,1.2-0.1
		c0.4,0,0.8,0.1,1.2,0.2c0.4,0.2,0.8,0.4,1.1,0.8c0.7,0.8,1,1.7,0.8,2.6c-0.2,1-0.7,1.9-1.7,2.8C84.4,349,83.4,349.6,82.1,350
		L82.1,350z"/>
	<path class="st0" d="M85.3,341.1c1.3,0.9,2.7,1.2,4,0.9c1.3-0.3,2.5-1.1,3.4-2.5c0.4-0.7,0.8-1.4,1-2.1s0.3-1.4,0.2-2.1
		s-0.3-1.3-0.7-2c-0.4-0.6-0.9-1.2-1.6-1.7c-1.3-0.9-2.7-1.2-4.1-0.8c-1.3,0.4-2.5,1.2-3.4,2.6c-0.6,0.9-1,1.8-1.1,2.8
		s0,1.8,0.4,2.7C83.8,339.8,84.4,340.5,85.3,341.1L85.3,341.1z"/>
	<path class="st1" d="M87.1,337.9c0.2,0.1,0.4,0.3,0.4,0.3c0.1,0.1,0.3,0.2,0.5,0.3c0.3,0.2,0.4,0.3,0.6,0.4s0.4,0.2,0.6,0.3
		c0.3,0.1,0.5,0.2,0.7,0.3c0.2,0.1,0.4,0.1,0.6,0.1s0.4,0,0.6,0s0.3-0.1,0.5-0.2s0.3-0.3,0.4-0.4c0.2-0.3,0.3-0.6,0.3-1
		s-0.1-0.7-0.3-1s-0.4-0.6-0.8-0.9s-0.6-0.6-0.9-0.8c-0.3-0.2-0.5-0.4-0.8-0.6c-2.5-1.7-4.1-2-4.8-0.9c-0.2,0.3-0.3,0.6-0.3,1
		c0,0.3,0.1,0.6,0.3,0.9s0.4,0.6,0.7,0.9c0.3,0.3,0.6,0.6,0.8,0.8C86.5,337.5,86.8,337.7,87.1,337.9L87.1,337.9z"/>
	<path class="st0" d="M21.3,330.4c0.3,0.5,0.5,0.9,0.4,1.3s-0.4,0.8-0.9,1.3l-8.8,7.9l2.4,2.7l4.5-4.1l0.6,0.6
		c0.4,0.4,0.8,0.8,1.2,1.1c0.4,0.3,0.9,0.7,1.4,1s1.1,0.5,1.6,0.6s1.1,0.1,1.7-0.1s1.1-0.5,1.7-1c0.9-0.8,1.3-1.8,1.2-2.9
		c-0.1-1.1-0.8-2.4-2-3.8C25,333.6,23.3,332,21.3,330.4L21.3,330.4L21.3,330.4z"/>
	<path class="st1" d="M19.7,338.9l4.1-3.7c0.2-0.2,0.5-0.3,0.8-0.3c0.3,0.1,0.6,0.2,0.8,0.5c0.4,0.5,0.6,1.1,0.4,1.8
		c-0.2,0.7-0.6,1.3-1.3,1.9c-0.9,0.8-1.7,1.2-2.5,1.2s-1.5-0.3-2.1-1L19.7,338.9z"/>
	<path id="XMLID_52_" class="st0" d="M50.4,308.4c0,0,4.5-5,7.8-11.9c3.2-5.9,9.2-5.2,12.1-2.3c2.9,2.9,0.4,8.6-4.4,9
		c-4.9,0.4-7.1-2.5-5.9-4.9c1.2-2.4,6.5-3.3,8.1-1.7s0,4.2-2.7,4.3c-2.6,0-3.9-1.9-2.3-2.9s3.1,0.1,2.5,0.7s-1.2,0.4-1.2,0.4
		s1-0.6,0.2-0.8c-0.8-0.2-2.3,1.2-0.4,1.8c1.9,0.6,3.7-1.1,3.6-2.3c-0.1-1.3-3.6-2-6-0.5s-1.6,4.3,1.5,5.1c3.2,0.8,6.7-0.6,7.6-3.6
		c0.9-2.9-2.3-6.4-6.2-6c-3.9,0.4-5.3,2-7.7,6.9C54.7,304.6,50.4,308.4,50.4,308.4L50.4,308.4z M35.6,299.1c0,0-3.3-4.9-4.4-9.3
		c-1-4.4-4.1-6-7.1-1.2c-2,3.2-1.8,6.5,0.1,7.7c-4.1,0-7.8,2-9.4,5.4c-2.9,6.4,2.5,13.5,10.2,12.4c7.7-1.2,10.1-6.5,7.3-9.8
		c-2.7-3.3-11.4-2.8-13.2,0.4c-1.8,3.2,1.6,6.6,5.7,5.6s5.4-4.4,2.5-5.3s-4.7,1.3-3.6,2.1c1.1,0.8,2,0.1,2,0.1s-1.7-0.6-0.6-1.2
		s4,1,1.3,2.7s-6.1-0.3-6.4-2.3s4.9-4.5,9.1-3c4.2,1.4,4.1,6-0.5,8.4s-10.6,1.5-13.1-2.7s1.3-10.8,7.5-11.6
		c6.2-0.8,9.2,2.5,14.5,7.9s7.7,5.4,7.7,5.4s-4.4-2.9-10.8-9.9c-2.2-2.4-4.8-3.7-7.4-4.3c0.3-0.1,0.5-0.1,0.8-0.3
		c4.7-1.9,2.5-6.9-0.2-7s-3.3,3-2.7,4.3c0.6,1.3,2.9,0.9,3.3-0.1s0.1-2.1-0.9-2.1s-0.8,0.9-0.8,0.9s1.1-0.9,1.3,0.5
		c0.1,1.4-1.9,1.3-2.4,0.5s-0.1-3,1.8-2.9c1.8,0.1,3.3,2.4,1.7,4.4c-1.6,2-5.1,0.7-5.3-1.4c-0.1-2,2.8-6.2,3.9-6.7
		c1.1-0.4,2.7,1.2,3.9,5.4C32.5,296.3,35.6,299.1,35.6,299.1L35.6,299.1z M47.1,309.4c0,0-0.3-1-1-2.5s-1.5-2.2-2.3-3.4
		c-0.8-1.3-1.9-3.6-1.6-7.1c0.3-3.5,0.8-6.4-1.4-6.9c-2.2-0.6-4.1,2-3.7,4.7c0.4,2.7,2.4,3.4,3.4,1.6s0.4-5-1.3-4.3
		c-1.6,0.8-1.3,3.2-0.1,3.3c1.1,0.1,0.4-1.9,0.4-1.9s0.8,0.6,0.6,1.5c-0.1,0.9-1.4,1.2-2,0.5c-0.5-0.8-0.4-3.5,0.9-4.3
		c1.3-0.8,3.4,1.4,2.4,4.5s-2.5,2.7-4,1.4c-1.5-1.4-2.7-7.1,2.1-8.1s4,4.6,3.6,6.4c-0.5,1.8-1,5.5,1.4,9
		C47,307.1,47.1,309.4,47.1,309.4L47.1,309.4z M44.5,311.1c0,0-2.2,0.8-4.7-1.3c-2.5-2.1-3.7-2.1-5.3-0.3s2.2,4.8,3.6,2.5
		c1.4-2.3-1.1-2.9-1.7-1.8c-0.6,1,0.9,1.3,0.9,1.3s0,0-0.4,0s-1.9-1-0.8-2.1c1.1-1.1,3.9,0.1,2.9,2.1c-0.9,2-3.3,2.5-5,1
		c-1.8-1.5,0.2-7.5,4.1-4.3C42,311.4,44.3,311,44.5,311.1L44.5,311.1z M49.5,309.3c0,0-0.2-3.2,4.6-10.1s8.8-11.7,8-19.9
		c-0.6-7.1-11.3-7.3-14.9-2c0.3-6-7.3-8.7-10.2-6.6c-3.6,2.6-7.7,10.3-3.9,21.3s13.1,17.8,13.1,17.8s-0.9-0.7-5.2-5.5
		s-7.3-11.7-8.5-18.1s2.4-12.9,4.4-14.5s5.4-1.1,8,1.1c1.5,1.3,2.1,3.6,1.5,6.1c-0.1,0.2-0.1,0.4-0.2,0.6c-0.5,1.5-1.5,3.1-2.9,4.6
		c-4.1,4.1-6.7,2.2-8.1-0.9s0.9-7.8,3.2-9.7c2.3-1.9,5.5-0.9,5.7,2s-2.2,6.3-4.1,6.7c-1.8,0.4-3.3-1.3-2.5-4.1c0.8-2.7,3-3.9,4-2.8
		c1.1,1.2,0.2,2.6-1.3,3.2s-0.9-1.3-0.9-1.3s-0.5,0.5-0.5,1.3s1,1.9,2.9-0.3c1.9-2.2-0.1-4.9-2.4-3.3c-2.2,1.5-4.5,5.2-2.1,7.2
		s4.4,0.6,6.5-3.1s-0.7-8-4.4-6.6s-5.7,5.9-5.7,9.9s5.5,9.1,11.6-0.1c0.3-0.4,0.4-0.7,0.6-1.1c-0.4,7.4,6.2,7.1,9.5,4.6
		c3.4-2.7,3.2-7.3,0.9-8.8s-7.2-1-8.3,3s1.6,5.6,4.4,3.4c2.9-2.2,0.9-3.9,0-4c-0.8-0.1-0.8-0.1-0.8-0.1s2.4,0.9,0.8,2.5
		c-1.6,1.6-3.8,1.7-3.2-1.2c0.6-2.8,3.3-4.5,6.3-3.4s1.8,6.8-2.2,8.2s-6.2,0.3-6.8-2.4c-0.6-2.7,0.8-6.7,5.3-8.2s9,0.4,9,5.6
		c-0.1,5.2-1.6,8.8-5,14.3s-5,8-5.8,10.4C49.3,307.4,49.5,309.3,49.5,309.3L49.5,309.3z M48,309.4c0,0,1.4-2.9-1-6.9
		c-2.4-4.1-3.8-5.5-1.9-9.2c1.8-3.8,6.5-4.9,7.8-1.6s-1.8,5.9-3.9,6.6c-2.1,0.6-3.5-2-2.5-4s3.2-1.8,3.6-0.6
		c0.5,1.2-0.2,2.1-0.8,1.8c-0.5-0.4-0.1-1.2-0.1-1.2s-0.8-0.2-1.4,1c-0.6,1.1,0.7,3.1,2.7,0.8c2-2.3,1.1-3.8-0.6-4.5
		c-1.7-0.8-4.3,1.6-4.5,4.3c-0.1,2.7,2.1,5,5.2,2.9c3.1-2,4.6-5.5,2.6-8.4s-6.7-1.6-8.4,1.4c-1.7,2.9-2.7,5.2,0.4,9.9
		c3.2,4.6,2.8,6.7,2.7,7.2C48.1,309.1,48,309.4,48,309.4L48,309.4z M75.2,315.3c0,0,0.6-13.7-20.9-7.4s-26.2,17.6-22.2,24.6
		s14.8,17.4,25.5,14.9c10.8-2.5,14.2-12.6,14.2-12.6s13.1-3.1,18.5-14.5s-8.6-10.4-11.7-8C75.6,314.7,75.2,315.3,75.2,315.3
		L75.2,315.3z M72.2,312.8c0-0.3,0.2-0.4,0.4-0.4c0.3,0,0.4,0.2,0.4,0.4c0,6.6-7,12.2-12.2,15.2c-5.6,3.2-12.2,5.2-17.7,5.2
		c-18.9-0.1-8.4-13.5,2.9-19.7c4.5-2.4,9.5-4.3,14.3-4.5c3.4-0.2,5.7,0.2,7.1,1c1,0.6,1.6,1.4,1.7,2.3s-0.2,1.9-0.9,3
		c-1.5,2.5-4.8,5.3-8.8,7.9c-0.3,0.2,0,0-0.2,0.1c-4.8,3.1-9.3,4.7-12.9,5.6c-5.1,1.2-10.4-0.6-6.2-6.2c3.1-4.1,14.9-10.9,20.3-10.4
		c0.8,0.1,1.3,0.3,1.6,0.7c0.3,0.4,0.4,1,0.3,1.6c-0.2,1.1-1.1,2.4-2.6,3.9c-2.3,2.2-5.3,4.1-8.1,5.4c-2.9,1.3-5.5,1.8-6.5,0.9
		c-0.2-0.1-0.3-0.3-0.4-0.5c-0.2-0.4-0.1-1,0.2-1.5c0.2-0.5,0.6-1,1.1-1.5c1.6-1.8,4.5-3.7,6.8-4.6c1.1-0.4,1.8-0.4,2.3-0.2
		c0.3,0.2,0.5,0.4,0.6,0.8c0,0.3,0,0.6-0.1,1c-0.4,1-1.5,2.3-2.9,2.9c-2.9,1.3-4,0.6-4,0.6c-0.2-0.1-0.3-0.4-0.1-0.6
		s0.4-0.3,0.6-0.1c0,0,0.6,0.5,3.1-0.6c1.1-0.5,2.1-1.6,2.4-2.4c0.1-0.2,0.1-0.4,0.1-0.5s0-0.1-0.1-0.1c-0.2-0.1-0.7-0.1-1.5,0.3
		c-2.2,0.9-4.9,2.7-6.5,4.4c-0.4,0.5-0.8,0.9-1,1.3c-0.2,0.3-0.2,0.6-0.1,0.8c0,0.1,0.1,0.1,0.1,0.2c0.7,0.6,2.9,0.1,5.5-1
		c2.7-1.2,5.6-3.1,7.8-5.2c1.3-1.3,2.2-2.5,2.4-3.4c0.1-0.4,0-0.6-0.1-0.8c-0.2-0.2-0.5-0.4-1-0.4c-5-0.5-16.6,6.2-19.5,10.1
		c-3.6,4.9,1.1,5.9,5.3,4.8c3.4-0.8,7.8-2.4,12.6-5.5c0.3-0.2,0,0,0.2-0.1c3.9-2.5,7.1-5.3,8.6-7.6c0.6-0.9,0.8-1.7,0.8-2.4
		c-0.1-0.6-0.4-1.2-1.2-1.6c-1.2-0.7-3.4-1-6.7-0.9c-4.6,0.2-9.6,2-13.9,4.4c-9,4.9-21.9,18-3.3,18c5.3,0,11.8-2,17.3-5.1
		C65.4,324.4,72.2,319,72.2,312.8L72.2,312.8z M75.4,319.9c0.4-0.3,3.3-5.5,7.8-4.4c4.4,1.1,1.5,8.3-3.4,11.5
		c-4.8,3.3-6.3,3.1-6.3,3.1s1.3-3.8,1.7-6.6C75.5,320.6,75.4,319.9,75.4,319.9z"/>
</g>
</svg>
