<?xml version="1.0" encoding="utf-8"?>
<!-- Generator: Adobe Illustrator 19.0.0, SVG Export Plug-In . SVG Version: 6.00 Build 0)  -->
<svg version="1.1" id="Слой_1" xmlns="http://www.w3.org/2000/svg" xmlns:xlink="http://www.w3.org/1999/xlink" x="0px" y="0px"
	 viewBox="0 0 209 46" style="enable-background:new 0 0 209 46;" xml:space="preserve">
<style type="text/css">
	.st0{fill:#FFFFFF;}
</style>
<path class="st0" d="M23.1,3.8c0,0,10.7,3.2,12.8,4.3c2.1,1.1,5.6,3.2,7.2,5.7C41.6,9.6,38,6.9,33,5.7C30.4,5.1,23.1,3.8,23.1,3.8"
	/>
<path class="st0" d="M13.1,1C5.4,1-1.2,7.9,0.2,16.1l2.7,16.4c0.9,5.1,4.5,8.8,8.8,10.2C9.9,41.1,8,39,6.9,36.4
	C4.8,31.6,2,19.9,2,19.9C-1.1,11.2,5.5,2.4,14.3,2.4c0.8,0,1.6,0.1,2.4,0.2l5.8,1l-4.8-1.8C16.2,1.2,14.6,1,13.1,1"/>
<path class="st0" d="M43.2,14.1c1.4,4.1,0.9,8.8-2.3,12.6l-2.4,2.8v4l3.1-3.1C46.3,25.8,46.5,19,43.2,14.1"/>
<path class="st0" d="M33.8,35.1c0,0-3,3.2-4,4.2c-4.7,4.8-8.7,5.8-13.8,4.4c0,0-3-0.5-4.3-1c2.4,2.1,5.6,3.3,8.8,3.3
	c3.3,0,6.6-1.2,9.2-3.8l5.6-5.6C34.7,36.3,34.1,35.8,33.8,35.1"/>
<path class="st0" d="M27.2,37h-1.1c-1,0-1.9-0.8-1.9-1.9c-1.7,1.6-3.9,2.4-6.3,2.4c-4.3,0-6.9-2.2-6.9-5.8c0-5,4.6-5.6,8.5-6.1
	c3.5-0.4,4.7-0.7,4.7-2.3c0-1.8-1.1-2.6-3.5-2.6c-2.4,0-3.5,0.7-3.8,3h-5c0.3-4.3,3.4-6.5,9-6.5c0.1,0,3.8,0,3.8,0v-6.8H30v6.8h1.2
	c1.1-0.1,2-1,2-2.1v-2.5h5.3v4.6h3v3.6H41c-1.4,0-2.5,1.1-2.5,2.4v5.4c5.7-6.1,4.4-16.4-3.2-19.5c-3.8-1.6-15.7-4.7-15.7-4.7
	c-1.2-0.3-2.3-0.5-3.5-0.5c-8.3,0-14.9,7.9-12.6,16.4L7,33.4l0.8,2.1c3.6,10.8,14,7,16.5,5l4.2-3.5H27.2"/>
<path class="st0" d="M30,20.7v15l3.3-2.7c-0.1-0.5-0.1-1.1-0.1-1.8V20.7H30"/>
<path class="st0" d="M16.5,31.5c0,1.6,1.1,2.6,2.9,2.6c2.8,0,4.7-1.5,4.7-4.3v-2.2c-1.2,0.7-2.4,0.8-3.8,1
	C18.6,28.9,16.5,29.1,16.5,31.5"/>
<path class="st0" d="M64.3,28.7c-0.3,0.1-0.6,0.2-0.9,0.2c-0.8,0-1.2-0.4-1.2-1.2c-0.8,0.9-1.7,1.3-3,1.3c-1.6,0-2.7-0.9-2.7-2.3
	c0-1.5,1-2.3,3-2.6c2-0.2,2.7-0.2,2.7-1.3c0-0.9-0.7-1.4-1.9-1.4c-1.3,0-1.9,0.5-2.1,1.7h-1.3c0-1.8,1.3-2.8,3.5-2.8
	c1.1,0,2.1,0.3,2.6,0.8c0.6,0.6,0.6,1.4,0.6,2.1c0,1.2-0.1,2.5-0.1,3.7c0,0.6,0.1,0.8,0.6,0.8c0.1,0,0.2,0,0.3,0V28.7 M60.3,25
	c-1,0.1-2.4,0.2-2.4,1.6c0,0.9,0.6,1.4,1.7,1.4c1.3,0,2.5-0.9,2.5-1.9v-1.5C61.6,24.8,60.9,24.9,60.3,25z"/>
<path class="st0" d="M69.3,29c-2.6,0-4-1.7-4-4.3c0-2.8,1.6-4.5,4-4.5c2,0,3.3,1.1,3.5,2.9h-1.4c-0.2-1.2-1-1.8-2.1-1.8
	c-1.6,0-2.6,1.2-2.6,3.2c0,2,0.9,3.2,2.5,3.2c1.2,0,2.1-0.8,2.3-2.1H73C72.7,27.7,71.4,29,69.3,29"/>
<path class="st0" d="M78,21.6h-1.7v4.8c0,0.8,0,1.2,0.9,1.2c0.3,0,0.5,0,0.7,0v1.2c-0.4,0-0.6,0.1-1.1,0.1c-2.1,0-2-1-2-2.8v-4.4
	h-1.4v-1.1H75V18h1.4v2.5H78V21.6"/>
<path class="st0" d="M79.6,17.3H81V19h-1.4V17.3z M79.6,20.5H81v8.3h-1.4V20.5z"/>
<polyline class="st0" points="83.8,20.5 86.2,27.4 88.5,20.5 89.9,20.5 86.9,28.7 85.4,28.7 82.3,20.5 83.8,20.5 "/>
<path class="st0" d="M94.7,29c-2.5,0-3.9-1.6-3.9-4.3c0-2.7,1.6-4.5,3.9-4.5c2.7,0,3.8,2.2,3.8,4.6V25h-6.3l0,0.1
	c0,1.8,1,2.8,2.6,2.8c1.2,0,1.9-0.5,2.2-1.8h1.3C97.9,28,96.7,29,94.7,29 M94.6,21.4c-1.3,0-2.3,1-2.5,2.5H97
	C96.9,22.3,96,21.4,94.6,21.4z"/>
<rect x="104.4" y="17.3" class="st0" width="1.4" height="11.4"/>
<path class="st0" d="M108,17.3h1.4V19H108V17.3z M108,20.5h1.4v8.3H108V20.5z"/>
<path class="st0" d="M115.3,18.5c-0.2,0-0.5-0.1-0.8-0.1c-0.9,0-1,0.2-1,1.1v0.9h1.6v1.1h-1.6v7.1h-1.4v-7.1h-1.4v-1.1h1.4v-1.1
	c0-1.5,0.8-2.1,2.3-2.1c0.3,0,0.5,0,0.9,0.1V18.5"/>
<path class="st0" d="M119.8,29c-2.5,0-3.9-1.6-3.9-4.3c0-2.7,1.6-4.5,3.9-4.5c2.7,0,3.8,2.2,3.8,4.6V25h-6.3l0,0.1
	c0,1.8,1,2.8,2.6,2.8c1.2,0,1.9-0.5,2.2-1.8h1.3C123,28,121.8,29,119.8,29 M119.7,21.4c-1.3,0-2.3,1-2.5,2.5h4.8
	C122,22.3,121.1,21.4,119.7,21.4z"/>
<path class="st0" d="M133,21.6h-1.7v4.8c0,0.8,0,1.2,0.9,1.2c0.3,0,0.5,0,0.7,0v1.2c-0.4,0-0.6,0.1-1.1,0.1c-2.1,0-2-1-2-2.8v-4.4
	h-1.4v-1.1h1.4V18h1.4v2.5h1.7V21.6"/>
<path class="st0" d="M138.1,29c-2.5,0-3.9-1.6-3.9-4.3c0-2.7,1.6-4.5,3.9-4.5c2.7,0,3.8,2.2,3.8,4.6V25h-6.3l0,0.1
	c0,1.8,1,2.8,2.6,2.8c1.2,0,1.9-0.5,2.2-1.8h1.3C141.3,28,140,29,138.1,29 M138,21.4c-1.3,0-2.3,1-2.5,2.5h4.8
	C140.2,22.3,139.3,21.4,138,21.4z"/>
<path class="st0" d="M146.8,29c-2.6,0-4-1.7-4-4.3c0-2.8,1.6-4.5,4-4.5c2,0,3.3,1.1,3.5,2.9h-1.4c-0.2-1.2-1-1.8-2.1-1.8
	c-1.6,0-2.6,1.2-2.6,3.2c0,2,0.9,3.2,2.5,3.2c1.2,0,2.1-0.8,2.3-2.1h1.4C150.2,27.7,148.8,29,146.8,29"/>
<path class="st0" d="M153.3,21.6c0.6-0.9,1.5-1.4,2.7-1.4c2,0,2.8,1.1,2.8,2.8v5.7h-1.4v-5.3c0-1.1-0.3-2-1.8-2
	c-1.8,0-2.3,1.2-2.3,3.1v4.2h-1.4V17.3h1.4V21.6"/>
<path class="st0" d="M162.2,21.8c0.7-1,1.6-1.5,2.8-1.5c2,0,2.8,1.1,2.8,3v5.5h-1.4v-4.9c0-1.3-0.1-2.4-1.8-2.4
	c-1.8,0-2.4,1.3-2.4,3v4.3h-1.4v-8.3h1.3V21.8"/>
<path class="st0" d="M177.5,24.6c0,2.8-1.5,4.4-4,4.4c-2.6,0-4.1-1.6-4.1-4.4c0-2.7,1.6-4.4,4.1-4.4C176,20.2,177.5,21.8,177.5,24.6
	 M170.9,24.6c0,2,1,3.2,2.7,3.2c1.6,0,2.6-1.2,2.6-3.3c0-2-1-3.2-2.6-3.2C171.9,21.4,170.9,22.6,170.9,24.6z"/>
<rect x="179.2" y="17.3" class="st0" width="1.4" height="11.4"/>
<path class="st0" d="M190.4,24.6c0,2.8-1.5,4.4-4,4.4c-2.6,0-4.1-1.6-4.1-4.4c0-2.7,1.6-4.4,4.1-4.4
	C188.9,20.2,190.4,21.8,190.4,24.6 M183.7,24.6c0,2,1,3.2,2.7,3.2c1.6,0,2.6-1.2,2.6-3.3c0-2-1-3.2-2.6-3.2
	C184.7,21.4,183.7,22.6,183.7,24.6z"/>
<path class="st0" d="M199.7,27.9c0,1.4-0.1,2.1-0.5,2.8c-0.6,1-1.7,1.5-3.2,1.5h-0.2c-1.6,0-3.2-0.6-3.4-2.4h1.4
	c0.2,0.9,0.9,1.4,2.1,1.4c1.7,0,2.4-0.8,2.5-2.7l0-1c-0.5,1-1.4,1.5-2.6,1.5c-2.2,0-3.7-1.6-3.7-4.2c0-2.2,1.2-4.4,3.7-4.4
	c1.1,0,2.1,0.5,2.6,1.4v-1.2h1.3V27.9 M193.5,24.7c0,1.8,1,3,2.4,3c1.5,0,2.5-1.2,2.5-3.2c0-1.9-0.9-3-2.5-3
	C194.4,21.4,193.5,22.7,193.5,24.7z"/>
<path class="st0" d="M205.1,29.8c-0.5,1.2-0.9,2.3-2.4,2.3c-0.4,0-0.7-0.1-1-0.1v-1.2c0.4,0.1,0.6,0.2,0.9,0.2c0.5,0,0.8-0.3,1-0.7
	l0.6-1.5l-3.3-8.2h1.5l2.5,6.6l2.3-6.6h1.4v0L205.1,29.8"/>
</svg>
