<?xml version="1.0" encoding="utf-8"?>
<!-- Generator: Adobe Illustrator 19.0.0, SVG Export Plug-In . SVG Version: 6.00 Build 0)  -->
<svg version="1.1" id="Слой_1" xmlns="http://www.w3.org/2000/svg" xmlns:xlink="http://www.w3.org/1999/xlink" x="0px" y="0px"
	 viewBox="0 0 400 400" style="enable-background:new 0 0 400 400;" xml:space="preserve">
<style type="text/css">
	.st0{fill-rule:evenodd;clip-rule:evenodd;fill:#FFFFFF;}
	.st1{fill-rule:evenodd;clip-rule:evenodd;fill:#f0002f;}
	.st2{fill-rule:evenodd;clip-rule:evenodd;fill:#f0002f;}
</style>
<g>
	<path id="XMLID_26_" class="st0" d="M266.6,31.3c93.4,36.9,139.2,142.5,102.3,235.9c-36.9,93.4-142.5,139.2-235.9,102.3
		C39.6,332.6-6.2,226.9,30.7,133.6C67.5,40.2,173.2-5.6,266.6,31.3z"/>
	<path class="st1" d="M268.6,26.2L268.6,26.2L268.6,26.2c48.1,19,83.9,55.7,103,99.7c19.1,44,21.4,95.2,2.4,143.3h0v0
		c-19,48.1-55.7,83.9-99.7,103c-44,19.1-95.2,21.4-143.3,2.4l0,0l0,0l0,0c-48.1-19-83.9-55.7-103-99.7c-19.1-44-21.4-95.2-2.4-143.3
		l0,0v0c19-48.1,55.7-83.9,99.7-103C169.2,9.5,220.5,7.2,268.6,26.2L268.6,26.2L268.6,26.2L268.6,26.2z M264.6,36.4L264.6,36.4
		L264.6,36.4c-45.3-17.9-93.6-15.8-135,2.2c-41.4,17.9-75.9,51.7-93.8,97l0,0l0,0l0,0c-17.9,45.3-15.7,93.6,2.2,135
		c17.9,41.4,51.7,75.9,97,93.8l0,0h0c45.3,17.9,93.6,15.7,135-2.2c41.4-17.9,75.9-51.7,93.8-97l0,0l0,0l0,0l0,0
		c17.9-45.3,15.7-93.6-2.2-135C343.6,88.8,309.9,54.3,264.6,36.4z"/>
	<path class="st1" d="M110.8,290.6l13.2,9.2l-3.3,4.7l0.1,0.1c1.8-1,3.7-1.5,5.7-1.6c2-0.1,3.8,0.4,5.3,1.5c1,0.7,1.7,1.4,2.1,1.9
		c0.4,0.6,0.7,1.3,1,2.3l-6.8,6.8c0.5-3.7-0.3-6.3-2.6-7.9c-1.3-0.9-2.9-1-4.7-0.3c-1.8,0.7-3.3,1.9-4.5,3.6L104,328.4l-9.5-6.6
		l16.8-23.9c1-1.4,1.4-2.8,1.2-4C112.3,292.6,111.8,291.6,110.8,290.6L110.8,290.6z M127.8,323.2c-2.1,5.4-2.1,10.4,0.1,14.7
		c2.2,4.4,6,7.6,11.5,9.7c2.8,1.1,5.5,1.6,8.2,1.7c2.7,0.1,5.2-0.3,7.6-1.1c2.3-0.8,4.5-2.2,6.3-4.1c1.9-1.9,3.4-4.2,4.4-6.9
		c2.1-5.4,2-10.4-0.3-14.8c-2.3-4.4-6.3-7.7-11.9-9.8c-3.6-1.4-7.1-1.9-10.5-1.6c-3.4,0.3-6.5,1.5-9.2,3.5
		C131.3,316.8,129.2,319.6,127.8,323.2L127.8,323.2z M140.4,326.7c0.4-1.1,0.9-2.2,1.4-3.2c0.5-1,1.1-2.2,2-3.4
		c0.8-1.3,1.7-2.3,2.5-3.1c0.8-0.8,1.9-1.4,3-1.7c1.2-0.4,2.4-0.3,3.6,0.2c4.4,1.7,4.6,7.5,0.8,17.5c-0.5,1.2-0.9,2.3-1.4,3.3
		c-0.5,1-1.1,2.2-2,3.7c-0.8,1.4-1.7,2.6-2.6,3.4c-0.9,0.9-1.9,1.5-3.1,2c-1.2,0.4-2.4,0.4-3.6-0.1c-0.7-0.3-1.4-0.7-1.9-1.2
		c-0.5-0.5-0.9-1.1-1.2-1.6c-0.3-0.6-0.4-1.3-0.5-2.1c-0.1-0.8-0.1-1.6-0.1-2.3c0-0.7,0.1-1.5,0.4-2.5c0.2-1,0.4-1.8,0.6-2.4
		c0.2-0.6,0.4-1.4,0.7-2.4c0.3-1,0.6-1.7,0.7-2.1C139.9,328.2,140.1,327.6,140.4,326.7L140.4,326.7z M166.7,337.2
		c0.6-5.5,2.7-9.7,6.4-12.8c3.7-3.1,8.5-4.3,14.4-3.7c3.5,0.4,6.7,1.2,9.5,2.5c2.8,1.3,5.1,3,6.8,5.2l-3,28.1
		c-0.3,2.7-1,5.1-2.2,7.1c-1.2,2-2.7,3.6-4.6,4.8c-1.9,1.2-4,2-6.5,2.4c-2.4,0.5-5.1,0.5-7.9,0.2c-3.1-0.3-5.9-1.2-8.3-2.6
		c-2.4-1.4-4.2-3.4-5.5-5.8c3,1.5,6.5,2.5,10.3,2.9c3.7,0.4,6.7-0.2,9-1.7c2.3-1.5,3.7-4,4-7.3l0.1-1.4c-2.8,0.7-5.7,0.9-8.7,0.6
		c-5-0.5-8.7-2.4-11.1-5.8C167.1,346.5,166.2,342.3,166.7,337.2L166.7,337.2z M178.3,337.6c-1,9.1,1.1,14,6.1,14.5
		c2,0.2,3.8,0,5.3-0.6l2.2-20.7c0.2-2.1-0.1-3.7-1-4.9c-0.9-1.1-2.3-1.8-4-2c-1-0.1-2,0-2.8,0.4c-0.8,0.3-1.6,1-2.4,1.9
		c-0.8,0.9-1.5,2.4-2,4.3C179,332.4,178.6,334.8,178.3,337.6L178.3,337.6z M200.5,323.6c1.3,0,2.5,0.4,3.5,1.1c1,0.7,1.6,2,1.9,3.7
		l4.6,28.9l11.4-1.8l-3.4-21.1c-0.3-2-0.1-3.9,0.8-5.7c0.8-1.8,2-2.8,3.6-3.1c2.7-0.4,5.2,0.9,7.4,3.9l0.1-9.6
		c-0.9-0.5-1.7-0.8-2.3-1c-0.6-0.1-1.6-0.1-2.8,0.1c-1.8,0.3-3.4,1.2-4.8,2.6c-1.4,1.5-2.4,3.2-3,5.1l-0.1,0l-0.9-5.7L200.5,323.6
		L200.5,323.6z M233.7,338.5c-1.9-5.3-1.8-10.4,0.5-15.1c2.3-4.7,6.1-8.1,11.4-10c1.7-0.6,3.3-1,4.9-1.3c1.6-0.3,3.2-0.4,4.9-0.4
		c1.7,0.1,3.2,0.5,4.5,1.4c1.3,0.9,2.3,2.1,2.9,3.8c0.4,1.2,0.5,2.4,0.4,3.6c-0.2,1.2-0.6,2.4-1.2,3.5c-0.6,1.1-1.5,2.2-2.5,3.3
		c-1.1,1.1-2.1,2.1-3.2,2.9c-1.1,0.8-2.3,1.7-3.7,2.6c-1.4,0.9-2.6,1.6-3.6,2.1c-1,0.6-2.1,1.1-3.2,1.7c1.4,3,3.3,5,5.7,5.9
		c2.4,1,5.2,0.9,8.3-0.2c1.9-0.7,3.7-1.7,5.3-3c1.7-1.3,3-2.9,4-4.6c0,1.5-0.2,2.6-0.6,3.4c-1.9,5-6,8.7-12.5,11
		c-5,1.8-9.5,1.8-13.4,0C238.4,347.1,235.5,343.6,233.7,338.5L233.7,338.5z M243.6,332c0.3,0.8,0.5,1.4,0.7,1.7c2.2-0.9,4-2,5.5-3.4
		c1.5-1.3,2.4-2.7,2.7-4.3c0.3-1.6,0-3.4-0.8-5.5c-0.5-1.5-1.4-2.6-2.6-3.3c-1.2-0.7-2.5-0.9-3.9-0.3c-1.1,0.4-1.9,1.1-2.5,2
		c-0.6,0.9-0.9,2-1,3c-0.1,1.1-0.1,2.3,0.1,3.7c0.2,1.4,0.4,2.5,0.7,3.5C242.9,330.1,243.3,331.1,243.6,332L243.6,332z M276.5,338
		c4.7-0.7,8.9-2.1,12.5-4.3c4.1-2.5,6.8-5.4,8-8.6c1.2-3.3,0.8-6.5-1.1-9.8c-0.9-1.5-2-2.7-3.3-3.5c-1.3-0.9-2.7-1.4-4-1.6
		c-1.4-0.2-2.8-0.3-4.3-0.3c-1.5,0-2.9,0.2-4.4,0.3c-1.4,0.2-2.7,0.3-3.9,0.4c-1.2,0.1-2.3,0-3.2-0.3c-0.9-0.3-1.6-0.8-2.1-1.5
		c-0.6-0.9-0.6-1.9-0.2-2.9c0.4-1,1.3-1.9,2.6-2.7c2-1.2,4.1-1.7,6.2-1.4c2.1,0.3,4.1,1.3,6,3l-3.3-8.1c-3.3,0.3-6.9,1.6-10.6,3.8
		c-1.6,1-3.1,2.1-4.3,3.3c-1.2,1.2-2.1,2.5-2.8,4c-0.7,1.4-1,3-0.9,4.6c0.1,1.6,0.6,3.2,1.6,4.8c0.9,1.5,1.9,2.6,3.2,3.4
		c1.3,0.8,2.6,1.3,4,1.5c1.4,0.2,2.8,0.3,4.3,0.3c1.5,0,2.9-0.1,4.3-0.3c1.4-0.2,2.7-0.3,4-0.3c1.2,0,2.3,0.1,3.3,0.5
		c1,0.3,1.7,0.9,2.2,1.8c0.7,1.2,0.8,2.4,0.3,3.7c-0.5,1.2-1.6,2.3-3.1,3.2c-1.5,0.9-3,1.5-4.6,1.7c-1.6,0.2-3,0.2-4.4-0.2
		c-1.4-0.4-2.6-0.9-3.8-1.6c-1.1-0.7-2.2-1.5-3.2-2.4L276.5,338L276.5,338z M305.7,320.2l-6.8-8.4c1.2,0.7,2.4,1.3,3.6,1.8
		c1.2,0.4,2.6,0.7,4,0.8c1.4,0.1,2.9-0.1,4.4-0.6c1.5-0.5,2.9-1.4,4.2-2.6c1.3-1.2,2.1-2.5,2.4-3.8c0.3-1.3-0.1-2.5-1-3.5
		c-0.7-0.7-1.5-1.2-2.5-1.3c-1-0.2-2.1-0.1-3.3,0.2c-1.2,0.3-2.5,0.6-3.8,1c-1.3,0.4-2.7,0.8-4.2,1.1c-1.5,0.3-2.9,0.5-4.3,0.6
		c-1.4,0.1-2.8-0.2-4.2-0.8c-1.4-0.6-2.7-1.5-3.8-2.7c-1.2-1.4-2.1-2.8-2.5-4.4c-0.4-1.6-0.4-3.1,0-4.7c0.4-1.5,1.1-3,2-4.4
		c0.9-1.4,2.1-2.8,3.6-4.1c3.2-2.9,6.4-4.8,9.7-5.7l4.8,7.3c-2.1-1.3-4.3-1.9-6.4-1.8c-2.1,0.1-4.1,0.9-5.8,2.5c-1.1,1-1.8,2-2,3.1
		c-0.2,1.1,0,2,0.8,2.8c0.6,0.6,1.4,1,2.3,1.1c1,0.1,2,0,3.2-0.4c1.2-0.3,2.4-0.7,3.8-1.1c1.4-0.4,2.8-0.8,4.2-1.2
		c1.5-0.3,2.9-0.5,4.3-0.5c1.4,0,2.8,0.2,4.3,0.8c1.4,0.6,2.8,1.5,3.9,2.8c2.5,2.8,3.5,5.9,3,9.4c-0.6,3.4-2.6,6.8-6.2,10
		C314,316.5,310.2,318.7,305.7,320.2L305.7,320.2z M317.2,288.3c4.8,3.3,9.6,4.3,14.4,3.2c4.8-1.1,8.8-4.1,12.1-9
		c1.6-2.4,2.8-5,3.5-7.6c0.7-2.6,0.9-5.1,0.6-7.6c-0.3-2.5-1.1-4.8-2.5-7.1c-1.4-2.3-3.3-4.2-5.8-5.9c-4.8-3.3-9.7-4.3-14.5-3
		c-4.8,1.3-8.9,4.4-12.2,9.4c-2.2,3.2-3.5,6.5-4,9.9c-0.5,3.4,0,6.6,1.4,9.7C311.7,283.6,314,286.2,317.2,288.3L317.2,288.3z
		 M323.5,276.9c0.7,0.5,1.3,0.9,1.6,1.1c0.3,0.2,1,0.6,1.9,1.2c0.9,0.6,1.6,1,2.2,1.3c0.6,0.3,1.3,0.7,2.2,1.1
		c0.9,0.4,1.7,0.7,2.4,0.9c0.7,0.2,1.4,0.3,2.2,0.4c0.8,0.1,1.6,0.1,2.2,0c0.6-0.1,1.2-0.4,1.8-0.8c0.6-0.4,1.1-0.9,1.6-1.5
		c0.7-1.1,1-2.2,0.9-3.5c-0.1-1.3-0.5-2.4-1.2-3.4c-0.7-1-1.6-2.1-2.8-3.3c-1.2-1.2-2.2-2.1-3.1-2.8c-0.9-0.7-1.9-1.4-2.9-2.1
		c-8.9-6-14.6-7-17.3-3.2c-0.7,1.1-1.1,2.2-1,3.4c0.1,1.2,0.4,2.3,1,3.3c0.6,1,1.4,2,2.5,3.1c1,1.1,2,2,2.9,2.7
		C321.5,275.5,322.4,276.2,323.5,276.9L323.5,276.9z M88.4,250.1c1.2,1.8,1.7,3.3,1.4,4.7c-0.3,1.4-1.4,2.9-3.3,4.6l-31.3,28.1
		l8.7,9.7l16.2-14.6l2.1,2.3c1.3,1.5,2.7,2.8,4.2,4.1c1.5,1.2,3.2,2.4,5.1,3.4c1.9,1,3.8,1.7,5.7,2.1c1.9,0.4,3.9,0.2,6-0.4
		c2.1-0.6,4.1-1.7,6-3.4c3.3-2.9,4.8-6.4,4.4-10.4c-0.3-4-2.7-8.5-7.3-13.6c-4.7-5.2-10.7-10.8-17.9-16.7L88.4,250.1L88.4,250.1z
		 M82.7,280.4l14.8-13.3c0.8-0.8,1.8-1,2.9-0.9c1.1,0.2,2.1,0.8,3,1.8c1.6,1.8,2.1,3.9,1.6,6.3c-0.6,2.4-2.1,4.7-4.7,6.9
		c-3.1,2.8-6,4.2-8.8,4.2c-2.8,0-5.2-1.1-7.4-3.5L82.7,280.4z"/>
	<path class="st2" d="M192.4,171.5c0,0,15.9-18,27.9-42.4c11.6-21,32.8-18.5,43.1-8.3c10.3,10.2,1.6,30.7-15.8,32.1
		c-17.4,1.4-25.3-8.9-21-17.5c4.3-8.5,23.3-11.9,28.9-5.9c5.6,6-0.1,15.1-9.5,15.2c-9.4,0-14-6.7-8.3-10.2c5.8-3.5,11,0.4,9,2.6
		c-2,2.2-4.2,1.3-4.2,1.3s3.4-2.2,0.6-3c-2.8-0.8-8.1,4.2-1.3,6.4c6.8,2.2,13.2-3.9,12.8-8.3c-0.4-4.5-13-7.1-21.4-1.9
		c-8.4,5.3-5.8,15.2,5.5,18.1c11.3,2.9,23.9-2.2,27-12.7c3.2-10.5-8.3-22.8-22.2-21.3c-13.9,1.6-19.1,7.1-27.5,24.6
		C207.6,157.9,192.4,171.5,192.4,171.5L192.4,171.5z M139.4,138.4c0,0-11.9-17.4-15.7-33.2c-3.7-15.8-14.6-21.5-25.5-4.3
		c-7.3,11.6-6.4,23.2,0.3,27.5c-14.6,0.1-27.8,7.2-33.4,19.4c-10.4,22.7,8.8,48.3,36.4,44.1c27.6-4.2,36-23.2,26.2-34.9
		c-9.8-11.7-40.6-9.9-47.2,1.5c-6.6,11.5,5.7,23.5,20.3,20.1c14.6-3.4,19.3-15.6,9.1-18.9c-10.3-3.3-16.9,4.7-13,7.4
		c4,2.7,7,0.5,7,0.5s-6.2-2.2-2-4.4c4.1-2.2,14.2,3.6,4.5,9.5c-9.7,6-21.9-1.2-22.9-8.3c-1-7.1,17.5-15.9,32.6-10.8
		c15,5.1,14.7,21.5-1.9,30.1c-16.5,8.6-37.9,5.4-46.7-9.8c-8.8-15.1,4.5-38.6,26.8-41.3c22.2-2.7,33,9,51.8,28.2
		c18.8,19.2,27.6,19.2,27.6,19.2s-15.7-10.4-38.5-35.2c-7.7-8.4-17-13.3-26.3-15.4c0.9-0.2,1.8-0.5,2.7-0.9
		c16.9-6.8,9.1-24.6-0.6-25c-9.7-0.4-11.8,10.6-9.6,15.3c2.2,4.7,10.3,3.2,11.7-0.3c1.5-3.5,0.3-7.4-3.1-7.4c-3.4,0.1-3,3.1-3,3.1
		s4-3.3,4.5,1.7c0.5,4.9-6.8,4.5-8.5,1.8c-1.7-2.7-0.2-10.8,6.3-10.4c6.5,0.4,11.7,8.7,5.9,15.8c-5.8,7.1-18.3,2.4-18.8-4.9
		c-0.5-7.2,10-22.3,14.1-23.8c4.1-1.5,9.7,4.3,13.8,19.2C128.4,128.3,139.4,138.4,139.4,138.4L139.4,138.4z M180.7,175
		c0,0-1.1-3.4-3.5-8.9c-2.5-5.5-5.3-7.7-8.1-12.3c-2.8-4.6-6.9-12.8-5.7-25.3c1.2-12.5,2.8-22.8-5.1-24.8c-7.9-2-14.7,7.1-13.1,16.7
		c1.6,9.6,8.4,12,12,5.6c3.6-6.5,1.3-18-4.5-15.3s-4.6,11.3-0.5,11.7c4.1,0.4,1.4-6.7,1.4-6.7s2.7,2.1,2.3,5.2
		c-0.4,3.2-5.1,4.4-7,1.7c-1.9-2.7-1.4-12.6,3.3-15.3c4.6-2.7,12.1,5.1,8.6,16.2c-3.5,11.1-8.8,9.8-14.2,4.9
		c-5.4-4.9-9.8-25.2,7.4-28.8c17.1-3.6,14.4,16.5,12.7,22.9c-1.7,6.4-3.5,19.7,5.1,32C180.2,166.8,180.7,175,180.7,175L180.7,175z
		 M171.4,181c0,0-7.8,2.7-16.9-4.6c-9.1-7.4-13.3-7.6-19.1-0.9s7.8,17.3,13,9c5.1-8.3-4-10.4-6-6.6c-2,3.7,3.3,4.8,3.3,4.8
		s0,0-1.5,0.1c-1.4,0.1-6.8-3.4-2.9-7.5c3.9-4.1,13.8,0.5,10.5,7.4c-3.3,7-11.8,8.9-18,3.6c-6.3-5.4,0.8-26.8,14.8-15.3
		C162.6,182.3,170.5,180.8,171.4,181L171.4,181z M189.1,174.7c0,0-0.7-11.6,16.3-36.2c17-24.7,31.3-41.8,28.7-71.1
		c-2.2-25.3-40.4-26.2-53.2-7.1c1.1-21.3-26.2-31.2-36.4-23.7c-12.7,9.3-27.6,36.6-13.9,75.9c13.7,39.3,46.9,63.7,46.9,63.7
		s-3.2-2.6-18.4-19.7c-15.2-17.1-25.9-41.8-30.2-64.7c-4.3-23,8.6-45.9,15.6-51.6c7-5.7,19.2-4.1,28.4,3.8
		c5.5,4.7,7.6,12.8,5.4,21.7c-0.3,0.7-0.5,1.5-0.7,2.3c-1.8,5.4-5.2,11.1-10.5,16.3c-14.7,14.6-24,7.9-29-3.2
		c-5-11.1,3.3-27.7,11.4-34.6c8.1-6.9,19.5-3.3,20.3,7.1c0.8,10.4-8,22.4-14.5,24c-6.5,1.6-11.7-4.8-8.8-14.5
		c2.9-9.7,10.6-14.1,14.4-9.9c3.8,4.2,0.6,9.2-4.6,11.3c-5.2,2.1-3.3-4.7-3.3-4.7s-1.7,1.8-1.7,4.5c0.1,2.7,3.7,6.7,10.4-1.2
		c6.7-7.8-0.5-17.4-8.5-11.9c-8,5.5-16,18.7-7.5,25.8c8.5,7.1,15.7,2.1,23.3-11.2c7.6-13.3-2.6-28.6-15.8-23.4
		c-13.2,5.1-20.4,21.1-20.3,35.4c0.1,14.3,19.5,32.6,41.4-0.3c0.9-1.3,1.6-2.6,2.3-3.8c-1.6,26.5,22,25.5,33.8,16.3
		c12.2-9.5,11.3-26.1,3.1-31.6c-8.2-5.5-25.7-3.5-29.6,10.7c-3.9,14.2,5.6,20.1,15.8,12.3c10.3-7.8,3.1-13.8,0.1-14.3
		c-3-0.4-3-0.4-3-0.4s8.5,3.3,2.9,8.9c-5.6,5.7-13.5,5.9-11.3-4.3c2.2-10.1,11.9-15.9,22.6-12c10.8,3.9,6.5,24.4-8,29.4
		c-14.5,5-22.2,1-24.2-8.7c-2-9.7,2.9-23.8,19.1-29.2c16.2-5.4,32.3,1.6,32.1,20c-0.2,18.4-5.8,31.4-18,51
		c-12.2,19.6-17.8,28.5-20.8,37.3C188.5,168,189.1,174.7,189.1,174.7L189.1,174.7z M184,175.1c0,0,5.1-10.2-3.4-24.8
		c-8.5-14.6-13.5-19.6-6.9-33c6.6-13.4,23.2-17.4,27.9-5.7c4.7,11.7-6.5,21.2-13.9,23.6c-7.4,2.3-12.6-7.1-8.9-14.4
		c3.7-7.2,11.3-6.6,13-2.3c1.7,4.2-0.8,7.6-2.7,6.3c-1.9-1.3-0.4-4.2-0.4-4.2s-2.8-0.6-4.9,3.4c-2.1,4,2.6,11,9.8,2.8
		c7.2-8.2,3.9-13.5-2.3-16.2c-6.2-2.7-15.5,5.6-16,15.5c-0.5,9.8,7.5,17.7,18.5,10.4c11.1-7.3,16.5-19.8,9.4-30
		c-7-10.2-23.9-5.6-30.1,4.9c-6.2,10.5-9.8,18.7,1.5,35.4c11.3,16.6,10,24.1,9.7,25.7C184.2,174,184,175.1,184,175.1L184,175.1z
		 M281.1,196.3c0,0,2-48.8-74.6-26.3c-76.6,22.5-93.5,63-79.1,87.9c14.4,25,52.8,62.2,91.2,53.2c38.4-9,50.6-44.9,50.6-44.9
		s46.7-11,66.1-51.8c19.4-40.8-30.6-37-41.8-28.7C282.4,194,281.1,196.3,281.1,196.3L281.1,196.3z M270.3,187.1
		c0-0.9,0.7-1.6,1.6-1.6c0.9,0,1.6,0.7,1.6,1.6c-0.1,23.7-24.9,43.6-43.5,54.1c-20,11.3-43.6,18.6-63.1,18.5
		c-67.4-0.2-30-48.3,10.3-70.4c15.9-8.7,34-15.3,51.1-16.1c12.3-0.6,20.5,0.8,25.4,3.5c3.7,2,5.6,4.9,6,8.2
		c0.3,3.2-0.8,6.8-3.1,10.6c-5.3,8.8-17.1,19.1-31.6,28.3c-1.1,0.7,0,0-0.6,0.4c-17.3,11-33.3,16.9-45.9,19.9
		c-18.2,4.3-37.1-2.2-22.3-22.3c10.9-14.8,53.3-39,72.5-37.2c2.7,0.3,4.6,1.2,5.8,2.6c1.2,1.5,1.5,3.4,1.1,5.7
		c-0.8,3.8-4,8.7-9.3,13.8c-8.1,7.9-19.1,14.8-28.9,19.2c-10.4,4.6-19.7,6.3-23.2,3.1c-0.6-0.5-1-1.1-1.3-1.8
		c-0.6-1.6-0.4-3.4,0.6-5.4c0.8-1.7,2.2-3.6,3.9-5.5c5.8-6.3,16-13.3,24.3-16.5c3.9-1.5,6.5-1.6,8.1-0.8c1.2,0.6,1.9,1.6,2.1,2.9
		c0.1,1,0,2.2-0.5,3.5c-1.4,3.6-5.4,8.2-10.3,10.4c-10.5,4.7-14.2,2-14.2,2c-0.7-0.5-0.9-1.5-0.4-2.2c0.5-0.7,1.5-0.9,2.2-0.4
		c0,0,2.3,1.7,11.1-2.3c4.1-1.9,7.5-5.6,8.7-8.6c0.3-0.8,0.4-1.4,0.3-1.9c0-0.2-0.1-0.4-0.3-0.5c-0.8-0.4-2.6-0.2-5.5,0.9
		c-7.9,3.1-17.6,9.7-23.1,15.7c-1.5,1.7-2.7,3.3-3.4,4.7c-0.6,1.2-0.8,2.2-0.5,2.9c0.1,0.2,0.2,0.5,0.5,0.7
		c2.5,2.3,10.5,0.5,19.8-3.7c9.5-4.2,20.1-11,28-18.6c4.8-4.7,7.8-9,8.4-12.2c0.3-1.3,0.1-2.3-0.4-3c-0.6-0.8-1.8-1.3-3.6-1.4
		c-18-1.7-59.4,22.1-69.6,36c-13,17.6,3.9,20.9,19,17.3c12.3-2.9,27.9-8.7,44.9-19.5c1.1-0.7,0,0,0.6-0.4
		c14.1-9,25.5-18.9,30.6-27.3c2-3.3,2.9-6.2,2.7-8.7c-0.2-2.3-1.6-4.3-4.4-5.8c-4.4-2.4-12.1-3.6-23.8-3.1
		c-16.6,0.7-34.2,7.2-49.7,15.7c-32.1,17.6-78.1,64.2-11.8,64.4c19,0.1,42-7,61.6-18.1C245.9,228.6,270.2,209.4,270.3,187.1
		L270.3,187.1z M281.6,212.4c1.5-1,11.9-19.6,27.7-15.8c15.8,3.8,5.2,29.5-12.1,41.2c-17.3,11.7-22.6,11.1-22.6,11.1
		s4.8-13.6,6.1-23.7C282.2,215.1,281.6,212.4,281.6,212.4z"/>
</g>
</svg>
