<?xml version="1.0" encoding="utf-8"?>
<!-- Generator: Adobe Illustrator 19.0.0, SVG Export Plug-In . SVG Version: 6.00 Build 0)  -->
<svg version="1.1" id="Слой_1" xmlns="http://www.w3.org/2000/svg" xmlns:xlink="http://www.w3.org/1999/xlink" x="0px" y="0px"
	 viewBox="0 0 65 64" style="enable-background:new 0 0 65 64;" xml:space="preserve">
<style type="text/css">
	.st0{clip-path:url(#SVGID_2_);fill:#ADDAF9;}
	.st1{clip-path:url(#SVGID_2_);fill:#9EDDF9;}
	.st2{clip-path:url(#SVGID_2_);fill:#22C0F1;}
	.st3{clip-path:url(#SVGID_4_);fill:#22C0F1;}
</style>
<g>
	<defs>
		<rect id="SVGID_1_" y="0.1" width="64.4" height="63.9"/>
	</defs>
	<clipPath id="SVGID_2_">
		<use xlink:href="#SVGID_1_"  style="overflow:visible;"/>
	</clipPath>
	<path class="st0" d="M32.8,4.1c0,0,15.2,4.6,18.1,6.2c3,1.6,7.9,4.5,10.2,8.1c-2.1-6-7.3-9.9-14.3-11.6C43.2,5.9,32.8,4.1,32.8,4.1
		"/>
	<path class="st1" d="M18.6,0.1c-11,0-20.3,9.8-18.3,21.5l3.9,23.2c1.2,7.3,6.3,12.5,12.5,14.5c-2.6-2.3-5.3-5.3-6.9-9
		C6.9,43.6,2.9,27,2.9,27C-1.6,14.7,7.8,2.2,20.3,2.2c1.1,0,2.2,0.1,3.3,0.3l8.3,1.4l-6.7-2.5C23,0.5,20.7,0.1,18.6,0.1"/>
	<path class="st1" d="M61.3,18.7c2,5.8,1.2,12.5-3.3,17.9l-3.4,4v5.6l4.4-4.3C65.6,35.3,65.9,25.7,61.3,18.7"/>
	<path class="st1" d="M47.9,48.5c0,0-4.2,4.5-5.6,6c-6.6,6.8-12.3,8.2-19.6,6.3c0,0-4.2-0.7-6.1-1.4c3.4,3,7.9,4.6,12.4,4.6
		c4.6,0,9.4-1.7,13.1-5.4l8-7.9C49.2,50.2,48.4,49.5,47.9,48.5"/>
	<path class="st2" d="M38.6,51.2H37c-1.5,0-2.7-1.2-2.7-2.6C32,50.9,28.7,52,25.4,52c-6.1,0-9.8-3.1-9.8-8.3c0-7.2,6.6-8,12-8.7
		c4.9-0.6,6.7-1.1,6.7-3.3c0-2.5-1.6-3.7-5-3.7c-3.5,0-4.9,1.1-5.4,4.2h-7.1c0.4-6.1,4.8-9.2,12.8-9.2c0.1,0,5.4,0,5.4,0v-9.6h7.6
		v9.6h1.7c1.5-0.1,2.8-1.4,2.8-2.9v-3.6h7.5v6.6h4.3v5.1h-0.8c-1.9,0-3.5,1.6-3.5,3.5v7.7c8.1-8.7,6.2-23.3-4.6-27.7
		c-5.4-2.2-22.3-6.7-22.3-6.7c-1.7-0.4-3.3-0.6-4.9-0.6C11,4.3,1.6,15.5,4.9,27.6l5,18.6l1.1,2.9c5.2,15.3,19.9,9.9,23.4,7l6-4.9
		H38.6"/>
</g>
<g>
	<defs>
		<rect id="SVGID_3_" width="65" height="64"/>
	</defs>
	<clipPath id="SVGID_4_">
		<use xlink:href="#SVGID_3_"  style="overflow:visible;"/>
	</clipPath>
	<path class="st3" d="M42.5,28.2v21.2l4.6-3.8c-0.1-0.7-0.1-1.6-0.1-2.5v-15H42.5"/>
	<path class="st3" d="M23.4,43.4c0,2.3,1.5,3.7,4.2,3.7c4,0,6.7-2.2,6.7-6.1v-3.1c-1.8,1-3.4,1.1-5.3,1.4
		C26.3,39.8,23.4,40.1,23.4,43.4"/>
	<path class="st3" d="M47.9,48.5c0.5,1,1.2,1.7,2.2,2.2l4.4-4.4v-5.6L47.9,48.5"/>
</g>
</svg>
