<?xml version="1.0" encoding="utf-8"?>
<!-- Generator: Adobe Illustrator 19.0.0, SVG Export Plug-In . SVG Version: 6.00 Build 0)  -->
<svg version="1.1" id="Слой_1" xmlns="http://www.w3.org/2000/svg" xmlns:xlink="http://www.w3.org/1999/xlink" x="0px" y="0px"
	 viewBox="180 -79.6 460.2 258.6" style="enable-background:new 180 -79.6 460.2 258.6;" xml:space="preserve">
<style type="text/css">
	.st0{clip-path:url(#SVGID_2_);fill:#D4EFFC;}
	.st1{clip-path:url(#SVGID_4_);fill:#C7EAFB;}
	.st2{clip-path:url(#SVGID_6_);fill:#B9E6FA;}
	.st3{clip-path:url(#SVGID_8_);fill:#ABE1FA;}
	.st4{clip-path:url(#SVGID_10_);fill:#9DDCF9;}
	.st5{clip-path:url(#SVGID_12_);fill:#8ED8F8;}
	.st6{clip-path:url(#SVGID_14_);fill:#7ED3F7;}
	.st7{clip-path:url(#SVGID_16_);fill:#6DCFF6;}
	.st8{clip-path:url(#SVGID_18_);fill:#5BCBF5;}
	.st9{clip-path:url(#SVGID_20_);fill:#44C8F5;}
	.st10{clip-path:url(#SVGID_22_);fill:#20C4F4;}
	.st11{clip-path:url(#SVGID_24_);fill:#00C0F3;}
</style>
<g>
	<g>
		<defs>
			<rect id="SVGID_1_" x="179" y="-80.3" width="462" height="260"/>
		</defs>
		<clipPath id="SVGID_2_">
			<use xlink:href="#SVGID_1_"  style="overflow:visible;"/>
		</clipPath>
		<path class="st0" d="M640.2,146l-8.3,33.1h8.3V146"/>
	</g>
	<g>
		<defs>
			<rect id="SVGID_3_" x="179" y="-80.3" width="462" height="260"/>
		</defs>
		<clipPath id="SVGID_4_">
			<use xlink:href="#SVGID_3_"  style="overflow:visible;"/>
		</clipPath>
		<path class="st1" d="M637.4-13.7l-61.8,192.8H632l8.3-33.1V-23.3C639.3-20.1,638.4-16.9,637.4-13.7"/>
	</g>
	<g>
		<defs>
			<rect id="SVGID_5_" x="179" y="-80.3" width="462" height="260"/>
		</defs>
		<clipPath id="SVGID_6_">
			<use xlink:href="#SVGID_5_"  style="overflow:visible;"/>
		</clipPath>
		<path class="st2" d="M594.5,14.5L526,179.1h49.5l61.8-192.8c1-3.2,2-6.4,2.9-9.6v-56.3h-30C612.2-48.8,607.5-16.7,594.5,14.5"/>
	</g>
	<g>
		<defs>
			<rect id="SVGID_7_" x="179" y="-80.3" width="462" height="260"/>
		</defs>
		<clipPath id="SVGID_8_">
			<use xlink:href="#SVGID_7_"  style="overflow:visible;"/>
		</clipPath>
		<path class="st3" d="M557.9,31.3l-73.3,147.8H526l68.5-164.6c13-31.1,17.7-63.3,15.6-94.1h-36.5C580.1-43.8,575.9-5,557.9,31.3"/>
	</g>
	<g>
		<defs>
			<rect id="SVGID_9_" x="179" y="-80.3" width="462" height="260"/>
		</defs>
		<clipPath id="SVGID_10_">
			<use xlink:href="#SVGID_9_"  style="overflow:visible;"/>
		</clipPath>
		<path class="st4" d="M196.9,179.1L179.8,157v22.1H196.9 M529.1,37.5l-76,141.6h31.6L558,31.3C576-5,580.2-43.8,573.7-79.6h-32.6
			C552.1-42.8,549.6-0.7,529.1,37.5z"/>
	</g>
	<g>
		<defs>
			<rect id="SVGID_11_" x="179" y="-80.3" width="462" height="260"/>
		</defs>
		<clipPath id="SVGID_12_">
			<use xlink:href="#SVGID_11_"  style="overflow:visible;"/>
		</clipPath>
		<path class="st5" d="M221.4,179.1l-41.6-63.2V157l17.1,22.1H221.4 M507.2,49.5l-82.9,129.6H453l76-141.6
			c20.5-38.2,23-80.3,12-117.1h-24C534.6-40.7,533.6,8.2,507.2,49.5z"/>
	</g>
	<g>
		<defs>
			<rect id="SVGID_13_" x="179" y="-80.3" width="462" height="260"/>
		</defs>
		<clipPath id="SVGID_14_">
			<use xlink:href="#SVGID_13_"  style="overflow:visible;"/>
		</clipPath>
		<path class="st6" d="M245.1,179.1c-1.7-2.4-3.4-4.8-5.1-7.4l-11.2-16.4l-49-87.1v47.7l41.6,63.2H245.1 M485.5,57.4l-89.9,121.1
			c-0.1,0.2-0.3,0.4-0.4,0.6h29.2l82.9-129.6c26.4-41.3,27.3-90.2,9.9-129.1h-27.9C515.4-41.7,517.5,14.3,485.5,57.4z"/>
	</g>
	<g>
		<defs>
			<rect id="SVGID_15_" x="179" y="-80.3" width="462" height="260"/>
		</defs>
		<clipPath id="SVGID_16_">
			<use xlink:href="#SVGID_15_"  style="overflow:visible;"/>
		</clipPath>
		<path class="st7" d="M179.8-17.6c2.6-23.5,13.4-45.4,29.9-62h-29.9V-17.6 M272.3,179.1c-8.8-6.8-17.2-16.4-24.9-29.4l-9.1-14.7
			l-48.1-95.8c-5.8-11.5-9.1-23.3-10.4-35v64l49,87.1l11.2,16.3c1.7,2.6,3.4,5.1,5.1,7.4h27.2V179.1z M466.2,60l-83.3,102
			c-4,4.9-11.5,11.3-21.3,17.1h33.6c0.1-0.2,0.3-0.4,0.4-0.6l89.9-121.1c32-43.1,29.9-99.1,3.7-137h-31.6
			C495.1-47.6,502.4,15.6,466.2,60z"/>
	</g>
	<g>
		<defs>
			<rect id="SVGID_17_" x="179" y="-80.3" width="462" height="260"/>
		</defs>
		<clipPath id="SVGID_18_">
			<use xlink:href="#SVGID_17_"  style="overflow:visible;"/>
		</clipPath>
		<path class="st8" d="M448.7,61.6l-76.7,85c-14.7,16.3-81.1,53-117.1-16.5l-7.3-13.2L210,31.8c-19-42.9-1.2-88.8,33.8-111.4h-34.1
			c-16.5,16.6-27.3,38.5-29.9,62V4.2c1.3,11.7,4.7,23.5,10.4,35l48.1,95.8l9.1,14.7c7.6,13.1,16,22.6,24.9,29.4h89.4
			c9.8-5.8,17.3-12.3,21.3-17.1l83.3-102c36.1-44.4,28.8-107.6-8.7-139.6h-52.2c3.3,0.6,6.3,1.3,8.8,1.9
			C473.4-63.4,491.5,14.2,448.7,61.6"/>
	</g>
	<g>
		<defs>
			<rect id="SVGID_19_" x="179" y="-80.3" width="462" height="260"/>
		</defs>
		<clipPath id="SVGID_20_">
			<use xlink:href="#SVGID_19_"  style="overflow:visible;"/>
		</clipPath>
		<path class="st9" d="M405.4-79.6H243.8C208.8-57,191-11.1,210,31.8l37.7,85.2l7.3,13.2c36,69.5,102.4,32.8,117.1,16.5l76.7-85
			c42.8-47.5,24.6-125-34.5-139.4C411.7-78.4,408.8-79,405.4-79.6 M431.9,62l-69.1,69.4c-13.3,13.4-71.5,41.9-99.4-19l-5.7-11.6
			l-28.6-74.4C210.5-21.9,244.6-72.1,293-77.1c6.6-0.7,13.5-0.5,20.5,0.6c0,0,71.6,11.1,94.8,18C458.2-43.8,470.5,23.2,431.9,62z"/>
	</g>
	<g>
		<defs>
			<rect id="SVGID_21_" x="179" y="-80.3" width="462" height="260"/>
		</defs>
		<clipPath id="SVGID_22_">
			<use xlink:href="#SVGID_21_"  style="overflow:visible;"/>
		</clipPath>
		<path class="st10" d="M408.2-58.6c-23.2-6.8-94.7-18-94.7-18c-7-1.1-13.9-1.3-20.5-0.6c-48.4,5-82.5,55.2-63.8,103.6l28.6,74.4
			l5.7,11.6c27.9,60.9,86.1,32.3,99.4,19L432,62C470.5,23.2,458.2-43.8,408.2-58.6 M415.4,64.9l-64.8,52.9
			c-12.5,10.2-64.5,29.3-82.8-24.9L264,82.6l-17.7-65.7c-11.6-42.8,21.8-82.4,63.4-82.4c5.7,0,11.5,0.7,17.4,2.3
			c0,0,59.8,15.8,78.9,23.7C447.1-22.6,451.6,35.4,415.4,64.9z"/>
	</g>
	<g>
		<defs>
			<rect id="SVGID_23_" x="179" y="-80.3" width="462" height="260"/>
		</defs>
		<clipPath id="SVGID_24_">
			<use xlink:href="#SVGID_23_"  style="overflow:visible;"/>
		</clipPath>
		<path class="st11" d="M406-39.6c-19.2-7.9-79-23.6-79-23.6c-5.9-1.6-11.7-2.3-17.4-2.3c-41.6,0-74.9,39.6-63.4,82.4L264,82.6
			l3.8,10.3c18.3,54.2,70.3,35.1,82.8,24.9l64.8-52.9C451.6,35.4,447.1-22.6,406-39.6"/>
	</g>
</g>
</svg>
