<?xml version="1.0" encoding="utf-8"?>
<!-- Generator: Adobe Illustrator 19.0.0, SVG Export Plug-In . SVG Version: 6.00 Build 0)  -->
<svg version="1.1" id="Слой_1" xmlns="http://www.w3.org/2000/svg" xmlns:xlink="http://www.w3.org/1999/xlink" x="0px" y="0px"
	 viewBox="0 0 460.2 258.6" style="enable-background:new 0 0 460.2 258.6;" xml:space="preserve">
<style type="text/css">
	.st0{clip-path:url(#SVGID_2_);fill:#D4EFFC;}
	.st1{clip-path:url(#SVGID_2_);fill:#C7EAFB;}
	.st2{clip-path:url(#SVGID_2_);fill:#B9E6FA;}
	.st3{clip-path:url(#SVGID_2_);fill:#ABE1FA;}
	.st4{clip-path:url(#SVGID_2_);fill:#9DDCF9;}
	.st5{clip-path:url(#SVGID_2_);fill:#8ED8F8;}
	.st6{clip-path:url(#SVGID_2_);fill:#7ED3F7;}
	.st7{clip-path:url(#SVGID_2_);fill:#6DCFF6;}
	.st8{clip-path:url(#SVGID_2_);fill:#5BCBF5;}
	.st9{clip-path:url(#SVGID_2_);fill:#44C8F5;}
	.st10{clip-path:url(#SVGID_2_);fill:#20C4F4;}
	.st11{clip-path:url(#SVGID_2_);fill:#00C0F3;}
</style>
<g>
	<defs>
		<rect id="SVGID_1_" x="-1" y="-0.7" width="462" height="260"/>
	</defs>
	<clipPath id="SVGID_2_">
		<use xlink:href="#SVGID_1_"  style="overflow:visible;"/>
	</clipPath>
	<polyline class="st0" points="460.2,225.6 451.9,258.7 460.2,258.7 460.2,225.6 	"/>
	<path class="st1" d="M457.4,65.9l-61.8,192.8h56.4l8.3-33.1V56.3C459.3,59.5,458.4,62.7,457.4,65.9"/>
	<path class="st2" d="M414.5,94.1L346,258.7h49.5l61.8-192.8c1-3.2,2-6.4,2.9-9.6V0h-30C432.2,30.8,427.5,62.9,414.5,94.1"/>
	<path class="st3" d="M377.9,110.9l-73.3,147.8H346l68.5-164.6c13-31.1,17.7-63.3,15.6-94.1h-36.5
		C400.1,35.8,395.9,74.6,377.9,110.9"/>
	<path class="st4" d="M16.9,258.7l-17.1-22.1v22.1H16.9 M349.1,117.1l-76,141.6h31.6l73.3-147.8c18-36.3,22.2-75.1,15.7-110.9h-32.6
		C372.1,36.8,369.6,78.9,349.1,117.1z"/>
	<path class="st5" d="M41.4,258.7l-41.6-63.2v41.1l17.1,22.1H41.4 M327.2,129.1l-82.9,129.6h28.7l76-141.6
		c20.5-38.2,23-80.3,12-117.1h-24C354.6,38.9,353.6,87.8,327.2,129.1z"/>
	<path class="st6" d="M65.1,258.7c-1.7-2.4-3.4-4.8-5.1-7.4l-11.2-16.4l-49-87.1v47.7l41.6,63.2H65.1 M305.5,137l-89.9,121.1
		c-0.1,0.2-0.3,0.4-0.4,0.6h29.2l82.9-129.6c26.4-41.3,27.3-90.2,9.9-129.1h-27.9C335.4,37.9,337.5,93.9,305.5,137z"/>
	<path class="st7" d="M-0.2,62C2.4,38.5,13.2,16.6,29.7,0H-0.2V62 M92.3,258.7c-8.8-6.8-17.2-16.4-24.9-29.4l-9.1-14.7l-48.1-95.8
		c-5.8-11.5-9.1-23.3-10.4-35v64l49,87.1L60,251.2c1.7,2.6,3.4,5.1,5.1,7.4H92.3z M286.2,139.6l-83.3,102
		c-4,4.9-11.5,11.3-21.3,17.1h33.6c0.1-0.2,0.3-0.4,0.4-0.6L305.5,137c32-43.1,29.9-99.1,3.7-137h-31.6
		C315.1,32,322.4,95.2,286.2,139.6z"/>
	<path class="st8" d="M268.7,141.2l-76.7,85c-14.7,16.3-81.1,53-117.1-16.5l-7.3-13.2L30,111.4C11,68.5,28.8,22.6,63.8,0H29.7
		C13.2,16.6,2.4,38.5-0.2,62v21.8c1.3,11.7,4.7,23.5,10.4,35l48.1,95.8l9.1,14.7c7.6,13.1,16,22.6,24.9,29.4h89.4
		c9.8-5.8,17.3-12.3,21.3-17.1l83.3-102C322.4,95.2,315.1,32,277.6,0h-52.2c3.3,0.6,6.3,1.3,8.8,1.9
		C293.4,16.2,311.5,93.8,268.7,141.2"/>
	<path class="st9" d="M225.4,0H63.8C28.8,22.6,11,68.5,30,111.4l37.7,85.2l7.3,13.2c36,69.5,102.4,32.8,117.1,16.5l76.7-85
		c42.8-47.5,24.6-125-34.5-139.4C231.7,1.2,228.8,0.6,225.4,0 M251.9,141.6L182.8,211c-13.3,13.4-71.5,41.9-99.4-19l-5.7-11.6
		l-28.6-74.4C30.5,57.7,64.6,7.5,113,2.5c6.6-0.7,13.5-0.5,20.5,0.6c0,0,71.6,11.1,94.8,18C278.2,35.8,290.5,102.8,251.9,141.6z"/>
	<path class="st10" d="M228.2,21C205,14.2,133.5,3,133.5,3c-7-1.1-13.9-1.3-20.5-0.6c-48.4,5-82.5,55.2-63.8,103.6l28.6,74.4
		l5.7,11.6c27.9,60.9,86.1,32.3,99.4,19l69.1-69.4C290.5,102.8,278.2,35.8,228.2,21 M235.4,144.5l-64.8,52.9
		c-12.5,10.2-64.5,29.3-82.8-24.9L84,162.2L66.3,96.5c-11.6-42.8,21.8-82.4,63.4-82.4c5.7,0,11.5,0.7,17.4,2.3
		c0,0,59.8,15.8,78.9,23.7C267.1,57,271.6,115,235.4,144.5z"/>
	<path class="st11" d="M226,40C206.8,32.1,147,16.4,147,16.4c-5.9-1.6-11.7-2.3-17.4-2.3c-41.6,0-74.9,39.6-63.4,82.4L84,162.2
		l3.8,10.3c18.3,54.2,70.3,35.1,82.8,24.9l64.8-52.9C271.6,115,267.1,57,226,40"/>
</g>
</svg>
