<?xml version="1.0" encoding="utf-8"?>
<!-- Generator: Adobe Illustrator 19.0.0, SVG Export Plug-In . SVG Version: 6.00 Build 0)  -->
<svg version="1.1" id="Слой_1" xmlns="http://www.w3.org/2000/svg" xmlns:xlink="http://www.w3.org/1999/xlink" x="0px" y="0px"
	 viewBox="0 0 58.1 57.1" style="enable-background:new 0 0 58.1 57.1;" xml:space="preserve">
<style type="text/css">
	.st0{fill:#00BFF2;}
</style>
<g id="XMLID_2_">
	<path id="XMLID_26_" class="st0" d="M26.2,57c-8,0-18.6-5.4-25-29.9c-2.6-9.5-1.2-16.7,4.1-21.4c10-8.9,31.7-6,43.2-1.3l0,0
		c7.4,3,10.6,10.2,9,19.8C55,38.9,41.1,56.4,27,57C26.7,57,26.5,57,26.2,57z M25.1,3c-7,0-13.7,1.4-17.7,5C3,11.9,1.9,18.1,4.2,26.4
		C8.9,44.5,16.5,54,26.2,54c0.2,0,0.4,0,0.6,0c10.5-0.4,24.8-13.7,27.7-30.2c0.8-4.7,1-13.2-7.1-16.5C41.5,4.8,33,3,25.1,3z"/>
</g>
</svg>
